<?xml version="1.0" standalone="no"?>
<!DOCTYPE svg PUBLIC "-//W3C//DTD SVG 1.1//EN" "http://www.w3.org/Graphics/SVG/1.1/DTD/svg11.dtd" >
<svg xmlns="http://www.w3.org/2000/svg" xmlns:xlink="http://www.w3.org/1999/xlink" version="1.1">
<metadata></metadata>
<defs>
<font id="nefelibatascript" horiz-adv-x="849" >
<font-face units-per-em="2048" ascent="1638" descent="-410" />
<missing-glyph horiz-adv-x="716" />
<glyph horiz-adv-x="0" />
<glyph horiz-adv-x="682" />
<glyph unicode=" "  horiz-adv-x="716" />
<glyph unicode="&#x09;" horiz-adv-x="716" />
<glyph unicode="&#xa0;" horiz-adv-x="716" />
<glyph unicode="!" horiz-adv-x="452" d="M122.5 741q-1.5 243 4 412.5t10.5 241.5q2 30 50 20q50 -11 80 -46q19 -23 14 -44q-21 -81 -50 -438.5t-10 -587.5q1 -15 -22 -14q-35 2 -52 33q-7 12 -8 28q-15 152 -16.5 395zM127 39q0 41 23.5 63.5t48.5 22.5q37 0 63.5 -28t26.5 -66q0 -41 -30.5 -69.5t-70.5 -12.5 q-31 13 -46 30.5t-15 59.5z" />
<glyph unicode="&#x22;" horiz-adv-x="718" d="M147 987q6 -42 38 -49.5t60 8t25 29.5q-5 19 1 256t12 258q5 19 -22 22q-31 3 -47 -17l-5 -9q-14 -47 -41 -254.5t-21 -243.5zM451 987q6 -42 38 -49.5t59.5 8t24.5 29.5q-5 18 -0.5 255.5t11.5 258.5q6 19 -20 22q-30 3 -47 -16q-3 -5 -5 -10q-14 -47 -40.5 -254 t-20.5 -244z" />
<glyph unicode="#" horiz-adv-x="1378" d="M122 710q1 37 16 45q4 2 7 1q62 -10 324 26q0 268 -33 387q-2 10 23 20.5t56 3.5t42 -40q9 -28 2 -356l291 45q-3 245 -31 358q-3 8 18 18q41 19 74 0q19 -11 27 -34q9 -26 2 -328q232 34 260 27q27 -7 27 -38q-1 -22 -15 -24h-4q-22 3 -270 -37q-2 -131 -10 -376 q268 64 299 57q28 -7 28 -36q0 -23 -15 -26h-5q-23 3 -309 -67q-14 -410 -4 -434q6 -14 -14 -23q-31 -12 -55 16q-6 7 -11 17q-11 26 0 401q-17 -4 -130.5 -32t-170.5 -43q-7 -269 0 -285q6 -14 -14 -23q-30 -12 -55 14q-8 8 -13 19q-11 25 -4 252q-220 -56 -242 -53 q-46 5 -55 51q-6 34 9 48q4 4 9 3q63 -11 283 35q10 312 10 406q-292 -51 -317 -48q-31 5 -30 53zM543 317q235 55 301 72q8 246 8 379q-8 -1 -295 -49z" />
<glyph unicode="$" horiz-adv-x="1062" d="M63 258q-9 55 46 99q32 25 44 19q3 -1 3 -3q35 -131 106 -204.5t154 -94.5q3 46 14 504v47q-10 10 -37.5 36.5t-38.5 38t-36 36.5t-36.5 39t-32.5 39t-31.5 43t-26 43t-24 47t-16.5 48.5t-12 53.5q-7 49 1 92t33.5 81.5t78 64t127.5 32.5q16 2 51 2q-2 80 -2 152 q0 46 57 60q43 9 66 -4q8 -4 6 -9q-23 -63 -35 -211q106 -25 184 -87t91 -149q12 -81 -47 -108q-32 -15 -51 -6q-5 3 -5 6q-8 100 -54.5 174t-121.5 100q-10 -140 -18 -487q152 -161 201 -222q101 -126 114 -213q12 -79 -11 -140t-71 -97.5t-101 -57t-114 -30.5 q-28 -4 -41 -4q-1 -7 -2 -21t-2 -20q-6 -40 -41 -49q-28 -7 -38 10q-6 9 1 20q7 14 13 62q-128 12 -229 90.5t-116 177.5zM281 1067q3 -47 41.5 -106t109.5 -138q0 301 -2 426h-8q-77 -7 -112 -55t-29 -127zM481 66q21 0 29 2q83 13 124.5 63t27.5 135q-12 82 -55 152.5 t-111 142.5q-12 -437 -15 -495z" />
<glyph unicode="%" horiz-adv-x="1236" d="M123 1087q0 80 24 122t72 69q21 7 49 3.5t45 -11.5q15 -7 22 -8.5t32 -1.5q35 0 183.5 16t213.5 29q64 14 166 61q15 18 51 18h6q53 -4 78 -29q17 -17 2 -32q-53 -53 -135.5 -160.5t-182.5 -260.5t-190.5 -314.5t-161 -338t-92.5 -315.5q-4 -4 -27 -6t-46.5 18.5 t-18.5 55.5q22 126 251.5 554t407.5 720q-4 -1 -20.5 -6.5t-39.5 -12t-48 -10.5q-17 -3 -60.5 -11.5t-70.5 -13t-64.5 -10t-66.5 -6.5q49 -52 49 -133q0 -92 -65.5 -162.5t-159.5 -70.5q-61 0 -103.5 23.5t-63 63.5t-28.5 78.5t-8 81.5zM236 1049q0 -29 6.5 -56t30 -51 t61.5 -22q49 2 96 42.5t47 110.5q0 38 -6 63t-20.5 38t-21.5 16t-26 8q-4 1 -6 2q-3 1 -7 -10t-11.5 -25t-18.5 -18q-14 -6 -31 3t-26 9q-19 0 -43 -38.5t-24 -71.5zM614 217q0 79 24 121.5t73 69.5q4 2 16.5 9.5t20.5 11.5t23.5 7.5t33.5 3.5q23 0 49 -17l25 -17 q74 0 118.5 -56t44.5 -147q0 -92 -65.5 -163t-159.5 -71q-49 0 -87 16.5t-59 41.5t-34.5 60t-18 65.5t-4.5 64.5zM698 178q0 -43 35.5 -87.5t91.5 -41.5q49 2 96.5 43t47.5 111q0 38 -6 63t-20.5 38t-21.5 16t-26 8q-4 1 -6 2q-3 1 -6 -4t-9.5 -13t-17.5 -12 q-30 -12 -61 -12q-29 0 -63 -27t-34 -84z" />
<glyph unicode="&#x26;" horiz-adv-x="1583" d="M190 209q0 -118 41 -208.5t113 -144.5t162 -81t196 -27q99 0 189 33t152 86t98.5 120t36.5 134q0 96 -43 168q-6 10 -13.5 20.5t-10 14.5t-3 8.5t3 7.5t12.5 8q18 10 66 21.5t105 15t91 -17.5q15 -10 27 23q15 44 -1 78q-12 24 -40 24q-68 0 -231 -58l-326 -116t-231 -58 q-7 -5 -8.5 -32t14 -59t41.5 -32q42 0 102 34t118 73t89 45q51 11 91 -43.5t40 -141.5q0 -113 -104.5 -194.5t-247.5 -81.5q-73 0 -141 23.5t-123.5 68.5t-89 120.5t-33.5 170.5q0 74 25 139.5t60 106.5t75.5 72.5t68.5 45t41 15.5q61 12 130 -1t79 -11q28 5 32.5 38t-9 62 t-27.5 24q-46 -17 -94 -6q-27 6 -55 20.5t-58.5 41t-50 71.5t-19.5 101q0 87 65 138.5t144 51.5q82 0 120.5 -39.5t64.5 -126.5q4 -3 24 0t37.5 30t9.5 65q-13 63 -82 99t-174 36q-83 0 -153.5 -28t-117 -88.5t-46.5 -141.5q0 -85 33.5 -147.5t68.5 -90.5q19 -15 19 -18 q-1 -5 -19 -11q-20 -7 -47 -19t-82 -50t-97 -84.5t-75 -125.5t-33 -171z" />
<glyph unicode="'" horiz-adv-x="460" d="M164 987q-6 37 20.5 244t40.5 254q7 23 40 26q29 2 33 -14q0 -3 -1 -8q-7 -21 -11 -258.5t1 -255.5q3 -14 -25 -29.5t-60 -8t-38 49.5z" />
<glyph unicode="(" horiz-adv-x="778" d="M164 573q0 164 42.5 360t125 379.5t184.5 280.5q28 21 51.5 13.5t37.5 -29.5t5 -31q-111 -111 -194.5 -285.5t-122.5 -349.5t-39 -331q0 -121 15 -235.5t38.5 -202t52.5 -162.5t58.5 -125.5t54 -80.5t41.5 -38q11 -6 0 -28q-16 -30 -42 -23l-7 2q-39 18 -88 85.5t-98 175 t-82 274t-33 351.5z" />
<glyph unicode=")" horiz-adv-x="776" d="M166 -254q111 111 194.5 285.5t122.5 350t39 331.5q0 121 -15 235.5t-38.5 202t-52.5 162.5t-58.5 125t-54 80t-41.5 38q-12 6 1 30q16 31 44 22l4 -2q31 -14 68.5 -58t79 -123t75.5 -178.5t56 -238.5t22 -289q0 -164 -42.5 -360t-125 -379.5t-184.5 -280.5 q-28 -21 -51.5 -13.5t-37.5 29.5t-5 31z" />
<glyph unicode="*" d="M94 1243.5q1 30.5 31 42.5q39 14 176 4q-55 61 -125 103q-5 8 -0.5 33t29 44.5t53.5 4.5q35 -19 137 -160q34 98 37 178q0 12 27.5 18t55.5 -6.5t28 -44.5q0 -40 -70 -184q188 -15 207 2q8 6 15 -15q12 -36 -5 -59q-6 -7 -14 -10q-9 -3 -23.5 -4.5t-36 -1t-38.5 2t-49 4 t-50 3.5q104 -149 131 -154q11 -1 -4 -23q-24 -33 -51 -32l-12 4q-10 5 -20 15t-24.5 28.5t-24 31.5t-30 43t-30.5 44q-24 -48 -36 -72.5t-26.5 -57.5t-19.5 -51t-2 -26q2 -6 -8 -8q-24 -6 -50 11q-19 13 -18 32t12.5 47.5t40.5 88.5t41 85q-136 -4 -213 -33 q-11 -4 -26.5 19t-14.5 53.5z" />
<glyph unicode="+" d="M123 506.5q1 30.5 31 42.5q39 15 243 0q10 123 -14 215q-3 11 21.5 24.5t54.5 10t39 -34.5q10 -33 -17 -221q207 -19 228 0q8 6 15 -14q13 -37 -5 -60q-7 -7 -14 -10q-14 -5 -40 -5.5t-51 1t-70.5 5t-74.5 5.5q-39 -232 -25 -252q5 -8 -13 -14q-35 -11 -58 6 q-10 7 -13 18q-5 7 -2 40.5t6.5 56t11 69t11.5 78.5q-137 0 -223 -33q-11 -4 -26.5 19t-14.5 53.5z" />
<glyph unicode="," horiz-adv-x="452" d="M123 20q0 42 25.5 64t60.5 22q53 0 87 -48t34 -132q0 -70 -28 -147t-79 -115q-28 -20 -59 7q-17 16 -10 24q49 30 74 73.5t28 86.5q5 71 -63 90q-3 1 -10.5 3t-10.5 3t-9.5 3t-9.5 4t-8 5.5t-7.5 7t-6 8.5t-5 11t-2.5 13.5t-1 16.5z" />
<glyph unicode="-" d="M123 508.5q-1 -30.5 14.5 -53.5t26.5 -19q67 24 157.5 30t159.5 -1.5t136 -10.5t88 5q29 10 22 55q-4 29 -14 30q-2 0 -4 -1q-17 -15 -144.5 -6.5t-240.5 19t-170 -4.5q-30 -12 -31 -42.5z" />
<glyph unicode="." horiz-adv-x="403" d="M82 10q0 41 23.5 63.5t48.5 22.5q37 0 63.5 -28t26.5 -66q0 -34 -33.5 -53t-67.5 -19q-61 0 -61 80z" />
<glyph unicode="/" horiz-adv-x="1095" d="M133 -141q24 72 319 832t328 814q19 30 82 17q54 -12 67 -37q6 -11 -3 -21q-56 -62 -140.5 -223.5t-177 -381t-185 -505.5t-153.5 -559q-9 -41 -59 -26q-44 14 -69 50q-15 22 -9 40z" />
<glyph unicode="0" horiz-adv-x="1228" d="M236 473q0 389 198 660q-20 14 -31.5 39t0.5 42q49 72 154 72q17 0 27 -2q87 70 151 80q62 11 74 -35q8 -30 -7 -49q-6 -5 -11 -6q-35 0 -93 -25q128 -70 207.5 -240.5t79.5 -365.5q0 -155 -33.5 -285t-89 -214t-126.5 -130.5t-148 -46.5q-153 0 -252.5 141.5 t-99.5 364.5zM358 483q0 -193 79 -315.5t181 -122.5q40 0 79.5 23t76.5 72.5t65.5 119t46 171t17.5 220.5q0 195 -84 350.5t-205 194.5q-50 -41 -92.5 -99t-81 -143t-60.5 -206t-22 -265z" />
<glyph unicode="1" horiz-adv-x="733" d="M63 1040q-12 -7 1 -31q18 -36 57 -33q11 1 22 5q18 7 113.5 110.5t108.5 114.5q17 15 27.5 22t21 10.5t15.5 -5t5 -29.5q0 -25 -22 -135.5t-56 -272.5t-51 -257q-47 -258 -47 -539q0 -29 37 -41.5t73.5 -3t34.5 34.5q-16 219 19 467q10 70 52 318t52 362q5 57 -2 96 t-22.5 57t-37.5 23t-46 -2t-49 -23q-17 -11 -142 -118t-164 -130z" />
<glyph unicode="2" horiz-adv-x="1077" d="M137 1053q8 43 38.5 93t79.5 98.5t124.5 81t159.5 32.5q67 0 117 -26t75 -60.5t39.5 -82t17.5 -77t3 -59.5q0 -165 -68 -344t-244 -488q95 45 197 45q103 0 173.5 -33.5t96.5 -85.5q19 -38 -21 -95q-27 -39 -47 -40q-6 1 -8 6q-9 23 -23.5 45.5t-39 47t-62.5 40t-83 15.5 q-47 0 -95.5 -16.5t-77.5 -33t-67.5 -51t-46 -42.5t-31.5 -35q-16 -20 -41 -13t-43.5 33t-7.5 45q15 26 59 100t67.5 113.5t65 115.5t65.5 128.5t54.5 128.5t47 138t28.5 135t12 141q0 100 -34.5 160.5t-94.5 60.5q-59 0 -110 -36t-84 -92t-53.5 -111t-30.5 -107 q-2 -14 -36 5q-50 28 -67 74q-8 23 -4 46z" />
<glyph unicode="3" horiz-adv-x="1077" d="M111 1015q-1 19 6 38q9 25 48.5 72.5t100 101t146 92.5t168.5 39q68 0 117.5 -17.5t74 -41t39 -58t17.5 -57.5t3 -51q0 -209 -301 -529q10 2 31 2q72 0 137 -25.5t110.5 -81t45.5 -130.5q0 -91 -26 -166t-67.5 -123t-96 -80.5t-108 -46.5t-105.5 -14q-114 0 -192.5 28.5 t-111.5 65.5q-25 28 4 76q20 33 39 34q6 0 9 -4q12 -13 18 -20t29.5 -25t46.5 -28.5t62.5 -19.5t84.5 -9t92 19.5t87.5 55.5t66 94.5t25.5 129.5q0 82 -47.5 136t-116.5 54q-19 0 -35 -1.5t-30 -5.5t-23.5 -7t-21 -10t-16.5 -10t-16 -11t-14 -10q-18 -14 -41 7t-30.5 49.5 t2.5 43.5q42 38 62.5 57.5t66 66.5t72 80t63 84.5t56.5 96t35 99t15 106.5q0 58 -40 85.5t-89 27.5q-56 0 -109.5 -24.5t-93 -61t-76.5 -86t-60 -90.5t-42 -84q-6 -14 -31 6q-38 31 -40 81z" />
<glyph unicode="4" horiz-adv-x="960" d="M7 538.5q-3 27.5 16 65.5q4 10 50 102.5t87.5 182t85.5 215.5t59 223q7 10 37 13t61.5 -16t26.5 -52q-5 -28 -21.5 -78t-41.5 -110t-51.5 -121.5t-56 -125.5t-51 -110t-41 -86t-20.5 -43q-8 -17 -11 -29.5t0 -20t6.5 -12t14.5 -6t17.5 -1.5t23 0.5t23.5 0.5 q42 0 133.5 9.5t177.5 27.5q3 18 3 39q3 90 -0.5 193t-9 194t-5.5 97q-1 24 39.5 42.5t81.5 16t41 -30.5q0 -23 -10.5 -210.5t-12.5 -241.5q0 -12 -1 -33t-1 -31l21 8q10 4 24.5 -17t12 -51.5t-34.5 -49.5q-4 -2 -25 -11q-3 -134 -0.5 -254.5t5 -159t-0.5 -96.5 q-2 -25 -43.5 -33t-81.5 5t-38 39q18 182 32 479q-190 -21 -344 -17q-38 1 -67.5 5.5t-56.5 15t-38.5 28.5t-14.5 45.5z" />
<glyph unicode="5" horiz-adv-x="1058" d="M147 33q-25 28 4 76q20 33 39 34q6 0 9 -4q12 -13 18 -20t29.5 -25t46.5 -28.5t62.5 -19.5t84.5 -9t92 19.5t87.5 55.5t66 94.5t25.5 129.5q0 90 -47 160.5t-138 91.5q-19 5 -64 13q-52 9 -80.5 16t-74 27t-68 47t-36 75.5t-4.5 112.5q22 151 84.5 264.5t132.5 183.5 q4 4 8 4q34 11 131.5 16.5t192.5 -7t102 -46.5q4 -18 -3.5 -34.5t-17 -24.5t-12.5 -6q-93 63 -270 39q0 -5 -6 -11q-72 -69 -131.5 -168t-79.5 -210q-4 -36 -2.5 -63t15.5 -47.5t30.5 -34t40.5 -24.5t46.5 -18.5t48.5 -14.5q22 -6 32 -9q313 -78 313 -355q0 -75 -26 -139 t-68 -106.5t-95.5 -72t-107.5 -43t-106 -13.5q-114 0 -192.5 28.5t-111.5 65.5z" />
<glyph unicode="6" horiz-adv-x="972" d="M127 670q-22 -348 61 -525.5t240 -177.5q139 0 224 112.5t85 285.5q0 162 -74.5 253t-168.5 91q-84 0 -147.5 -70.5t-63.5 -151.5q0 -51 40 -65q25 -8 34 4q1 2 1 4q0 94 37 151.5t97 57.5q62 0 94 -74.5t32 -206.5q0 -91 -13.5 -163t-47 -120t-84.5 -48q-68 0 -120 93 t-76.5 225.5t-24.5 275.5q0 165 35 315.5t107.5 253t166.5 102.5q48 0 78.5 -39.5t40.5 -76.5q0 -16 29 -16q39 0 54 28q5 11 5 22q-8 50 -65 102t-144 52q-80 0 -151.5 -41.5t-131 -123.5t-99 -217.5t-50.5 -311.5z" />
<glyph unicode="7" horiz-adv-x="903" d="M43 1261q-7 34 16 68q19 28 52 33q68 14 204 1t246 -52q54 -19 91 -44.5t55.5 -56t27 -60.5t4.5 -66.5t-11.5 -66.5t-20.5 -67q-205 -548 -263 -948q-3 -20 -45 -31.5t-82 -3.5t-38 35q7 117 69 326t114 346.5t99 251.5q33 80 45 135.5t-2.5 100.5t-62.5 65t-113 34 t-170.5 14.5t-200.5 -28.5q-11 -3 -14 14z" />
<glyph unicode="8" horiz-adv-x="1048" d="M164 1130q0 79 30 141.5t80 99t107.5 55t118.5 18.5q131 0 224 -64t93 -131q0 -47 -55 -76q-36 -18 -47 -10q-2 2 -2 4q0 76 -57.5 130.5t-145.5 54.5q-92 0 -150.5 -67t-58.5 -181q0 -46 16.5 -94t56 -108t67 -96t88.5 -110q6 -7 9 -11t8 -10t9 -11q50 64 80.5 106.5 t65.5 100.5t54 113t23 110q1 16 32 16q44 0 64 -35q11 -17 11 -41q0 -18 -4 -38t-14.5 -44t-20 -44.5t-28.5 -51.5t-31.5 -50.5t-38 -56t-39 -55t-43 -59t-41.5 -57.5q91 -118 141.5 -218.5t50.5 -201.5q0 -63 -21.5 -110.5t-52.5 -74t-73.5 -42.5t-77 -20.5t-70.5 -4.5 q-40 0 -80 14t-75.5 41t-57.5 74t-22 106q0 105 50 204.5t142 219.5q-136 156 -183 222q-132 183 -132 343zM399 143q0 -72 43 -113.5t111 -41.5q64 0 109 51t45 115q0 77 -40 154t-114 171q-154 -224 -154 -336z" />
<glyph unicode="9" horiz-adv-x="1228" d="M72 780q0 -63 20 -110.5t47.5 -72t64 -39t61 -18t48.5 -3.5q22 0 47 7t47 16.5t50.5 28t47.5 32t50 39t45 38t45.5 40.5l40.5 36q26 21 33.5 18t7.5 -30q0 -15 -54.5 -373.5t-56.5 -388.5q-1 -17 34.5 -24t72 0t39.5 24q8 41 46.5 427.5t41.5 457.5q2 46 -19.5 62.5 t-49.5 8t-52 -31.5q-6 -5 -45.5 -47t-80 -81t-91 -83t-99 -70.5t-83.5 -26.5q-53 0 -82 31.5t-29 89.5q0 110 42.5 225t106 200.5t140 140.5t141.5 55q48 0 76.5 -30.5t28.5 -74.5q0 -11 21 -6q32 9 44 44q4 14 4 30q0 34 -44 70t-124 36q-79 0 -157.5 -32.5t-141 -86 t-116.5 -121.5t-90.5 -140t-57 -141.5t-20.5 -125.5z" />
<glyph unicode=":" horiz-adv-x="407" d="M111 39q0 41 23 63.5t48 22.5q37 0 63.5 -28t26.5 -66q0 -42 -30 -70t-70 -12q-31 13 -46 30.5t-15 59.5zM121 741q0 41 23.5 63.5t48.5 22.5q37 0 63.5 -28t26.5 -66q0 -35 -34.5 -58.5t-66.5 -23.5q-61 0 -61 90z" />
<glyph unicode=";" horiz-adv-x="493" d="M121 741q0 41 23.5 63.5t48.5 22.5q37 0 63.5 -28t26.5 -66q0 -35 -34.5 -58.5t-66.5 -23.5q-61 0 -61 90zM123 20q0 42 25.5 64t60.5 22q53 0 87 -48t34 -132q0 -70 -28 -147t-79 -115q-28 -20 -59 7q-17 16 -10 24q49 30 74 73.5t28 86.5q5 71 -63 90q-3 1 -10.5 3 t-10.5 3t-9.5 3t-9.5 4t-8 5.5t-7.5 7t-6 8.5t-5 11t-2.5 13.5t-1 16.5z" />
<glyph unicode="&#x3c;" horiz-adv-x="1134" d="M165 586q7 41 23 51q60 37 351 146t350 139q31 16 65 -24q23 -28 16 -41q-1 -2 -3 -3q-75 -30 -230.5 -91t-256.5 -101t-113 -48q-44 -29 -47 -41q-1 -7 6 -12q127 -89 341 -185.5t277 -90.5q12 1 13 -31q1 -47 -25 -61q-10 -5 -23 -3q-147 26 -663 306l-72 39 q-16 10 -9 51z" />
<glyph unicode="=" horiz-adv-x="1034" d="M122.5 375q-2.5 -16 6 -31t27.5 -22q33 -12 209.5 4t343.5 31t184 1q9 -7 15 15q11 37 -7 58q-5 7 -14 9q-27 9 -164 -4t-276 -21t-285 23q-6 1 -15 -8t-15.5 -24t-9 -31zM136 581q9 -22 30 -30q75 -20 217 -4.5t297 31.5t172 2q8 -6 15 15q12 36 -5 59q-6 7 -14 10 q-20 6 -107.5 1.5t-181.5 -13.5t-208 -2t-187 36q-9 4 -21 -20q-22 -47 -7 -85z" />
<glyph unicode="&#x3e;" horiz-adv-x="1134" d="M168 854q-13 5 6 34q24 38 55 38q9 0 17 -4q59 -30 349.5 -139t350.5 -146q16 -10 23.5 -51t-8.5 -51l-72 -39q-515 -280 -664 -306q-35 -6 -45 39q-8 37 4 53q3 3 6 3q64 -6 278 90.5t341 185.5q18 13 -26 43q-3 2 -11 7q-3 2 -4 3q-12 8 -113 48t-256.5 101t-230.5 91z " />
<glyph unicode="?" horiz-adv-x="940" d="M125 1217q7 34 33.5 71.5t69.5 72t110 57t145 22.5q135 0 214 -82.5t79 -222.5q0 -64 -18 -131.5t-47 -124t-64.5 -114.5t-70.5 -104t-66 -91.5t-49.5 -77.5t-21 -62t17.5 -45q5 -4 -7.5 -22.5t-34.5 -29t-55 2.5q-35 17 -42.5 62t18.5 91q25 43 70.5 99.5t81.5 104 t72 110.5t56.5 147t20.5 185q0 91 -50.5 156t-119.5 65q-51 0 -93 -23.5t-70.5 -63t-47 -84t-27.5 -93.5q-2 -13 -34 4q-49 27 -66 72q-9 25 -4 49zM324 10q0 41 23 63.5t48 22.5q37 0 63.5 -28t26.5 -66q0 -35 -33 -53.5t-67 -18.5q-61 0 -61 80z" />
<glyph unicode="@" horiz-adv-x="1853" d="M297 369q0 158 43.5 284t110.5 203t156 128.5t172 71t165 19.5q276 0 444 -165.5t168 -436.5q0 -194 -99.5 -328.5t-225.5 -134.5q-106 0 -163 66.5t-54 189.5q2 84 8 125q4 30 -2 29q-5 -1 -12 -19q-55 -144 -92 -206q-76 -124 -160 -125q-12 0 -27.5 2.5t-44 17 t-49.5 39.5t-37.5 76.5t-15.5 120.5q1 89 32 168.5t79 131.5t105.5 82.5t112.5 30.5q45 0 72 -14t27 -35q0 -23 -23 -36q-15 -9 -18 3q-3 11 -22.5 19t-35.5 8q-78 0 -142.5 -106t-68.5 -242q-3 -92 20.5 -144.5t51.5 -52.5q92 0 252 459q15 42 20 64q3 14 48 17 q53 4 59 -16q1 -4 0 -8q-10 -44 -29 -391q-4 -89 24.5 -137.5t84.5 -48.5q97 0 177.5 115t80.5 280q0 241 -144 388t-374 147q-57 0 -124.5 -16.5t-149 -61.5t-146 -112.5t-108.5 -182.5t-44 -258q0 -153 56 -279.5t165 -203t250 -76.5q3 0 4.5 -15t-7.5 -30t-31 -15 q-162 0 -286.5 84t-188.5 222t-64 305z" />
<glyph unicode="A" horiz-adv-x="1122" d="M84 8q137 371 162 441q-125 26 -125 90q0 19 11 34.5t22.5 21t13.5 1.5q21 -32 111 -59q159 444 249 737q-24 87 -55 164q-6 14 33.5 34.5t76.5 26t46 -9.5q64 -384 134 -689.5t234 -875.5q3 -11 3 -20q0 -28 -26 -44q-25 -15 -55 -15q-12 1 -24 3q-43 8 -47 35 q-23 177 -113 586q-141 -41 -246 -41q-47 0 -129 4q-88 -300 -122 -442q-6 -28 -65 -30h-7q-54 0 -76 23q-11 11 -6 25zM385 514q68 -10 135 -10q120 0 203 18q-64 278 -148 590q-84 -245 -190 -598z" />
<glyph unicode="B" horiz-adv-x="1253" d="M0 131q0 43 31 65q30 21 60 20h3q32 -1 31 -13q0 -64 23.5 -123t68.5 -107t118.5 -77t164.5 -29q187 0 302.5 124t115.5 318q0 155 -78 252q-69 86 -176 86q-14 0 -29 -2q-30 -12 -57 -12q-77 0 -85 51q-4 31 15 51q6 6 12 6q65 0 120 43.5t88 109t51 133.5t18 124 q0 128 -27.5 205.5t-71.5 77.5q-65 0 -128.5 -147t-101 -328.5t-42.5 -317.5h-2v-37q0 -173 16 -357q18 -204 19 -214q1 -25 -41 -33q-16 -3 -33 -4q-25 0 -50 8q-41 13 -40 39q9 222 9 390q0 96 -3 173q-5 144 -18.5 342t-25.5 353.5t-13 177.5q-4 15 38 27q31 9 65 10 q11 0 22 -1q45 -4 51 -28q8 -33 8 -410q44 198 117 319.5t155 121.5q88 0 151.5 -92.5t63.5 -239.5q0 -148 -53 -274.5t-133 -202.5q148 -9 234 -118.5t86 -285.5q0 -97 -39.5 -188.5t-110 -164.5t-178 -117t-232.5 -44q-208 0 -348.5 95.5t-140.5 244.5z" />
<glyph unicode="C" horiz-adv-x="976" d="M25 653q0 187 31 334.5t80 237.5t115.5 149.5t130 82t130.5 22.5q60 0 106 -16t69 -40t34 -46t12 -40v-10q0 -55 -43 -63q-27 -6 -41 8q-5 5 -2 10q3 8 5 22.5t-7.5 32.5t-24 33.5t-46 26t-72.5 10.5t-86 -23t-93.5 -79.5t-86 -138.5t-62 -213.5t-24.5 -290.5 q0 -148 24.5 -268.5t62.5 -195.5t87.5 -126t96 -71.5t91.5 -20.5q49 0 90 18t66 45.5t39.5 53t19.5 46.5q7 9 32.5 0.5t43 -32t6.5 -50.5q-24 -56 -99 -99.5t-208 -43.5q-45 0 -88.5 8.5t-92 31t-90 58t-80.5 93.5t-66 132.5t-43.5 180t-16.5 231.5z" />
<glyph unicode="D" horiz-adv-x="1294" d="M0 1262q1 18 12 39.5t34 45.5t69 40t106 16q65 0 123 -6q-6 59 -6 82q-4 15 38 27q31 9 65 10q11 0 22 -1q45 -4 51 -28q3 -16 6 -129q114 -38 206 -107.5t152.5 -156t103.5 -180.5t65.5 -194.5t32.5 -184t10 -162.5q0 -98 -23.5 -178t-60.5 -130.5t-84.5 -85t-94.5 -49 t-92 -14.5q-98 0 -248 27q-1 -5 -2 -14t-2 -13q-11 -59 -65 -64q-6 -1 -12 -1q-46 0 -90 33q-50 37 -50 83q0 29 11 47.5t32 26.5t38.5 10t43.5 2q6 244 6 399q0 93 -2 154q-4 103 -12 232t-19 284.5t-14 200.5q-52 8 -119 8q-41 0 -72.5 -10.5t-46 -26t-24 -33.5 t-7.5 -32.5t5 -22.5q7 -10 -14 -16q-33 -11 -56 13q-18 19 -16 59zM498 39q148 -33 241 -33q224 0 224 332q0 354 -109 599.5t-334 340.5q1 -98 1 -209q0 -184 -3 -403q-7 -469 -20 -627z" />
<glyph unicode="E" horiz-adv-x="1077" d="M62 1371q6 32 42 42q30 9 86 12q-4 50 -4 54q-4 15 38 27q31 9 65 10q11 0 22 -1q45 -4 51 -28q2 -7 5 -57q153 -3 296 -24t216 -58q19 -9 20.5 -27t-8 -31.5t-17.5 -11.5q-170 52 -389 52q-56 0 -116 -3q1 -99 1 -216q0 -195 -3 -439q64 -5 120 -5q77 0 140 9 q109 15 133 39q3 3 13 -5.5t17.5 -25.5t2.5 -35q-13 -51 -133 -66q-48 -6 -105 -6q-84 0 -188 13v-91q0 -67 1 -127q2 -100 4.5 -150.5t6 -107.5t4.5 -73q0 -9 2 -15.5t4 -11t6.5 -7.5t7 -4.5t9.5 -2t9.5 -0.5h11h11.5q123 0 224 26t227 83q3 1 7 -7q15 -29 8 -61 q-5 -16 -15 -23q-56 -34 -231 -62q-158 -26 -302 -26h-30q-23 0 -37 1.5t-29 6t-22 15.5t-6 29q9 225 9 416q0 109 -3 208q-5 172 -45 703q-30 -5 -115 -23q-6 -1 -17 26t-5 59z" />
<glyph unicode="F" horiz-adv-x="937" d="M-30.5 1376q1.5 18 20.5 27q46 22 92 37q0 9 -1 22.5t-1 16.5q-4 15 38 27q31 9 65 10q11 0 22 -1q45 -4 51 -28v-2q173 37 344 53q84 8 142 8q59 0 89 -8q36 -10 42 -42t-4.5 -59t-16.5 -26q-89 22 -209 22q-162 0 -383 -40q5 -142 5 -324t-5 -403v-15q52 -5 100 -5 q78 0 146 12q110 20 147 57q3 3 13 -5.5t17.5 -25.5t2.5 -35q-10 -45 -134 -61q-69 -9 -153 -10q-65 0 -139 6v-35q0 -132 6 -247q8 -130 18 -221t11 -110q1 -25 -41 -33q-16 -3 -32 -3q-26 0 -51 8q-41 13 -40 39q9 223 9 412q0 108 -3 204q-14 0 -20 2q-30 4 -38 24.5 t-1.5 38.5t10.5 17q33 -8 47 -10q-11 269 -47 686q-80 -20 -94 -23q-8 -2 -17 11.5t-7.5 31.5z" />
<glyph unicode="G" horiz-adv-x="991" d="M-20 530q0 149 21 278t55.5 222t82 167.5t99.5 122.5t108 80t106 45t97 13q60 0 106 -16t69 -40t34 -45.5t12 -39.5v-10q0 -55 -43 -63q-27 -6 -41 8q-5 5 -2 10q3 8 5 22.5t-7.5 32t-24 33t-46 26t-72.5 10.5q-42 0 -93.5 -26.5t-110.5 -91.5t-107 -158t-79.5 -242.5 t-31.5 -328.5q0 -126 21.5 -224.5t57.5 -156t77.5 -86.5t84.5 -29q60 0 122 43.5t110.5 109.5t84 131.5t54.5 121.5q7 20 37 17q39 -5 55 -43q10 -24 4 -58q-5 -29 -7.5 -111t-2.5 -184t1 -194.5t2 -168.5t1 -80q0 -19 -15.5 -36t-33.5 -16.5t-25 26.5q-9 36 -21.5 258.5 t-12.5 275.5q0 52 -6 55t-21 -16q-38 -48 -68 -80t-73.5 -67t-94.5 -52.5t-108 -17.5q-48 0 -96 17t-96.5 59.5t-85 106t-59.5 164.5t-23 226z" />
<glyph unicode="H" horiz-adv-x="1251" d="M4 561q-3 20 -3 36q0 26 9 38.5t37 12.5q16 0 39 -5q19 -4 48.5 -10t46 -9.5t39.5 -7t44 -4.5q-4 145 -13.5 335.5t-19.5 360t-10 171.5q-3 15 39 27q31 9 64 10q11 0 22 -1q45 -4 51 -28q2 -68 2 -136v-45q-1 -90 -7 -333.5t-7 -306.5v-48q117 22 217 108t159 199.5 t75 231.5v277q0 40 25 63t63 23q40 0 61 -14.5t21 -53.5q0 -10 -33 -280.5t-33 -423.5q0 -17 6 -220q6 -202 12 -378q5 -149 5 -181v-8q-1 -17 -32 -25.5t-62 -3t-31 22.5q0 553 -2 977q-71 -171 -187.5 -270t-265.5 -123q-1 -108 -1 -200l7 -411q0 -45 -49 -77 q-30 -20 -66 -20q-25 -1 -52 9q-67 24 -101 121q-26 74 -48.5 177.5t-34 176.5t-22.5 158t-12 88zM86 512q0 -1 39 -232t55 -280q19 -58 45 -58h1q19 1 23 33q1 3 1 7q0 2 3.5 63.5t6.5 122t5 162.5q1 68 1 136v66q-15 1 -38 2.5t-38.5 2t-34.5 1.5t-30.5 -0.5t-22 -4 t-14.5 -8t-2 -13.5z" />
<glyph unicode="I" horiz-adv-x="585" d="M123 1458q-2 24 40 42q37 15 76 15q6 -1 11 -1q45 -2 51 -27q5 -19 5 -181v-82q0 -123 -2 -252q-1 -74 0 -140q0 -89 1 -166q4 -202 11.5 -350.5t15 -237.5t8.5 -107q0 -25 -42 -33q-16 -3 -31 -3q-26 0 -51 8q-41 13 -40 39q9 225 9 416q0 109 -3 208q-4 146 -18.5 352 t-24.5 325.5t-16 174.5z" />
<glyph unicode="J" horiz-adv-x="813" d="M-180 66q0 61 60 79q40 12 60 -1q5 -3 5 -7q0 -20 6 -44.5t20 -53t35 -51.5t54.5 -38.5t74.5 -15.5q45 0 81.5 17t61 44t42.5 68t28 82t16 94.5t7.5 96.5t1.5 96q0 596 -21 916q-256 -39 -385 -109q-6 -3 -23 21q-20 30 -20 58q0 25 31 48q41 25 149.5 48.5t239.5 37.5v6 q-1 13 36 29.5t69 18t36 -22.5v-21q47 2 87 2q109 0 169 -14q20 -5 27 -22t1.5 -32.5t-13.5 -15.5q-137 0 -271 -14q11 -468 11 -881q0 -87 -6 -159.5t-20.5 -148t-42 -132.5t-67 -103t-99.5 -70t-136 -24q-138 0 -221.5 69t-83.5 149z" />
<glyph unicode="K" horiz-adv-x="1228" d="M102 1458q-2 24 40 42q37 15 77 15q6 -1 11 -1q45 -2 51 -27q5 -18 5 -153v-92q0 -95 -1 -199q0 -78 -0.5 -152.5t0.5 -145.5q7 23 63 60q311 216 473 608q5 12 34 -8q47 -30 55 -79q4 -26 -7 -52q-52 -123 -218.5 -297.5t-287.5 -243.5q-2 -1 -5.5 -3t-5 -2.5t-4 -2.5 t-3 -3.5t-1.5 -4t0 -5t2 -6.5t3.5 -9l5.5 -11q44 -82 99 -167t130.5 -179t151 -164.5t161.5 -112.5q72 -35 137 -35q12 0 24 1q14 1 12 -31q-2 -50 -38 -77q-24 -17 -54 -17q-82 0 -173.5 54.5t-172 140.5t-156 194t-131.5 213t-92 199q0 1 -1 3.5t-1 4.5v-47 q3 -199 12 -353t15.5 -233t6.5 -109q0 -25 -41 -33q-16 -3 -31 -3l-51 8q-41 13 -40 39q9 225 9 416q0 109 -3 208q-3 112 -13 262.5t-19.5 263.5t-18 214t-9.5 112z" />
<glyph unicode="L" horiz-adv-x="1019" d="M123 1458q-2 24 40 42q37 15 76 15q6 -1 11 -1q45 -2 51 -27q5 -19 5 -181v-82q0 -123 -2 -252q-1 -74 0 -140q0 -89 1 -166q3 -160 7 -277.5t6 -155.5t8 -108t6 -72q4 -50 10 -61.5t20 -11.5q118 0 270 38t283 103q6 3 23 -21q16 -25 20 -53q0 -3 1 -5q0 -25 -31 -48 q-79 -48 -297 -73q-140 -16 -254 -16q-64 0 -119 5q-52 4 -68 19t-14 53q9 225 9 416q0 109 -3 208q-4 146 -18.5 352t-24.5 325.5t-16 174.5z" />
<glyph unicode="M" horiz-adv-x="1636" d="M22 18q-3 8 1 11q57 51 119 185.5t128.5 351.5t115 394.5t116.5 446.5q5 20 36.5 28t62 2t32.5 -20q7 -51 40.5 -295t63.5 -461.5t35 -244.5q9 -46 17 -47q7 -1 15 20l5 14q344 1011 344 1086q0 21 45 25q12 1 24 1l66 -8q45 -11 45 -28q0 -320 32 -578t140 -901 q2 -13 2 -24q0 -55 -57 -71q-19 -5 -36 -5q-24 0 -45 10q-14 6 -13 14q4 42 4 96q0 93 -12 221q-19 202 -53.5 406.5t-60 339t-40.5 199.5q-4 17 -6.5 24.5t-4.5 11t-4.5 -3.5t-4 -12t-5.5 -22q-2 -10 -342 -1000q-6 -18 -44 -28q-22 -6 -43 -5q-16 0 -32 3q-38 8 -42 36 q-5 35 -54.5 441t-52.5 432q-2 18 -6 59q-11 104 -18 104q-4 1 -9 -22q-118 -546 -197.5 -839.5t-140.5 -356.5q-39 -40 -81 -40q-22 0 -45 11q-32 16 -40 39z" />
<glyph unicode="N" horiz-adv-x="1228" d="M43 1460v2q-3 10 16 26.5t44.5 28.5t49 17t29.5 -8q1 -3 4 -9.5t4 -9.5q28 -7 31 -24q2 -6 2 -43q290 -594 586 -1121q-14 208 -14 406q0 76 -3 234.5t-3 238.5t5 173t17 138q16 56 91 56h3q54 -1 78 -22q8 -6 6 -11q-30 -99 -48 -213.5t-22.5 -214.5t-5.5 -206v-51 q0 -75 2 -136q3 -185 18 -387t15 -252q11 -18 -20.5 -41t-65.5 -28.5t-47 9.5q-87 189 -270 548t-326 614q-15 -440 -16 -512q-1 -85 -1 -162q0 -102 2 -190q4 -154 9 -234q4 -65 4 -97v-12q-1 -25 -43 -32q-14 -2 -28 -2q-28 0 -54 9q-40 14 -39 40q25 306 25 583v41 q-1 145 -9 340t-17 352t-9 162z" />
<glyph unicode="O" horiz-adv-x="1071" d="M18 614q0 185 26 337t70 254.5t104 172.5t126 101.5t137 31.5q58 0 103.5 -26.5t71 -68.5t38.5 -84.5t15 -82.5v-18q-1 -67 -19 -127q-22 -68 -63 -96q-25 -17 -48 -17q-25 0 -47 20t-19 36q1 3 3 4q94 62 94 194q0 25 -7.5 55t-22.5 61t-43 52t-64 21 q-68 0 -125.5 -75.5t-93.5 -195t-56 -259.5t-20 -277q0 -177 35.5 -321t100 -228t145.5 -84q71 0 132.5 61.5t101 159t61.5 212t22 224.5q0 66 -7 121t-13.5 86t-22.5 64t-21 41t-22 32q-14 21 1 47t38 34.5t37 -3.5q2 -2 12.5 -14.5t17.5 -23.5t18.5 -32.5t19.5 -51.5 t16 -70.5t12 -98.5t4 -127q0 -52 -8 -116.5t-25.5 -138.5t-42 -146t-60 -138t-77 -116.5t-96.5 -80.5t-115 -30q-48 0 -88 6.5t-85 26t-80 52t-68 88t-55 130t-35 182t-13 240.5z" />
<glyph unicode="P" horiz-adv-x="1089" d="M-84 643q0 43 31 65q30 21 60 20h3q32 -1 31 -13q0 -68 26 -132t74 -110q-1 22 -2 66.5t-2 66.5q-5 144 -18.5 342t-25.5 353.5t-13 177.5q-4 15 38 27q31 9 65 10q11 0 22 -1q45 -4 51 -28q7 -37 7 -281q0 -98 -1 -229q43 117 117 226.5t161.5 181t159.5 71.5 q103 0 169.5 -96t66.5 -268q0 -190 -49 -344t-130 -249t-182 -145.5t-210 -50.5q-56 0 -97 8q4 -79 11 -170t11.5 -149t4.5 -82q1 -26 -41 -34q-16 -3 -33 -3q-25 0 -50 8q-41 13 -40 39q7 122 10 428q-102 44 -163.5 121t-61.5 174zM260 641q-1 -34 -1 -69q0 -83 5 -177 q53 -16 111 -16q72 0 149.5 54t142.5 145t107.5 227t42.5 285q0 132 -30 207t-89 75q-85 0 -188 -129t-173 -302t-75 -300h-2z" />
<glyph unicode="Q" horiz-adv-x="1071" d="M18 614q0 186 26.5 337t72.5 254.5t110.5 173t138.5 101t158 31.5q112 0 188 -57t76 -113q0 -40 -24 -56t-48 -12t-24 13q0 51 -43.5 99.5t-113.5 48.5q-73 0 -133.5 -50t-101 -131.5t-69 -188t-41 -217t-12.5 -220.5q0 -177 35.5 -321t100 -228t145.5 -84q70 0 131 61 q-101 152 -119 234q-5 20 8.5 33.5t27.5 14t19 -4.5q43 -101 113 -213q65 104 101 273.5t36 361.5q0 164 -37.5 258t-109.5 147q-9 7 11 24q22 17 45 17q14 0 28 -6l8 -4q145 -91 145 -432q0 -181 -46.5 -380.5t-131.5 -328.5q162 -225 352 -319q6 -3 -8.5 -30t-38.5 -42 q-11 -7 -24 -7q-16 0 -37 11q-46 31 -130 123.5t-163 200.5q-90 -97 -197 -97q-48 0 -88 6.5t-85 26t-80 52t-68 88t-55 130t-35 182t-13 240.5z" />
<glyph unicode="R" horiz-adv-x="1185" d="M80 1479q-4 15 38 27q31 9 65 10q11 0 22 -1q45 -4 51 -28q7 -37 7 -281q0 -98 -1 -229q43 117 117 226.5t161.5 181t159.5 71.5q103 0 169.5 -96t66.5 -268q0 -109 -37 -209t-91 -169.5t-118.5 -124t-117.5 -83.5t-89 -37q19 -44 62.5 -110t109.5 -145t139 -145 q72 -66 158 -108q73 -36 139 -36q11 0 21 1q14 1 12 -31q-2 -50 -38 -77q-23 -17 -54 -17q-81 0 -171 49t-165 123.5t-143 162.5t-113 166.5t-67 135.5q-5 15 -6 23.5t2.5 21t20 22.5t46.5 17q39 10 89 45.5t101 91.5t94 123t70 149t27 159q0 132 -30 207t-89 75 q-85 0 -188.5 -129t-174 -302t-75.5 -300q0 -19 -1 -39q-1 -181 17 -420q18 -265 19 -272q1 -26 -41 -34q-16 -3 -33 -3q-25 0 -50 8q-41 13 -40 39q10 248 10 448q0 129 -4 238q-5 144 -18.5 342t-25.5 353.5t-13 177.5z" />
<glyph unicode="S" horiz-adv-x="1062" d="M-20 205q0 -44 35.5 -100t96 -108.5t155.5 -88t200 -35.5q66 0 131 23.5t119 66.5t87.5 113t33.5 155q0 75 -39 167.5t-97 177.5t-126.5 182t-126.5 181.5t-97 176t-39 164.5q0 22 3.5 44.5t11.5 47t25 40t40 15.5q48 0 92.5 -35t74.5 -86.5t49.5 -106.5t23.5 -99 q1 -12 30 -14h4l54 24q29 26 29 82q0 84 -56.5 160t-146.5 121t-185 45q-92 0 -141 -60.5t-49 -173.5q0 -94 28 -183.5t73 -162.5t99 -143.5t108 -139t99 -137t73 -149.5t28 -164q0 -104 -58.5 -179t-156.5 -75q-39 0 -82 11.5t-90 38.5t-86.5 66.5t-71.5 101t-47 136.5 q-6 6 -30 1t-51 -35t-27 -66z" />
<glyph unicode="T" horiz-adv-x="835" d="M-87 1393q7 30 13 28q83 -11 172 -10q140 0 294 25q254 42 425 120q5 2 12 -12q16 -33 -1 -56q-3 -4 -7 -7q-54 -37 -161.5 -76t-235.5 -68q4 -98 4 -250.5t-4 -359.5q-1 -34 -1 -70q1 -177 17 -406q20 -276 19 -280q1 -25 -41 -33q-16 -3 -32 -3q-26 0 -51 8 q-41 13 -40 39q10 248 10 448q0 129 -4 238q-3 87 -10.5 188.5t-13 169.5t-14.5 160.5t-11 120.5q-104 -15 -189 -15q-44 0 -83 4q-45 4 -59.5 35.5t-7.5 61.5z" />
<glyph unicode="U" horiz-adv-x="1103" d="M102 807q0 245 2 424.5t2 251.5q0 13 38 23q29 8 58 9q8 0 16 -1q37 -3 36 -23q0 -6 -7.5 -137.5t-9 -190t-5.5 -205.5q-3 -118 -3 -256v-70q1 -179 4 -409q1 -90 19 -120.5t51 -30.5q53 0 124.5 169.5t136 424.5t108.5 524q13 84 29.5 112.5t48.5 28.5q35 0 54 -3 t32 -12t15.5 -24.5t4.5 -39.5t0 -60q-1 -16 -2 -35q0 -22 2 -49q12 -375 50.5 -739t74.5 -437q6 -12 -24 -24q-23 -9 -44 -9q-24 0 -47 12q-31 17 -41 58q-7 30 -14.5 83t-14 119.5t-13 141.5t-11.5 155.5t-10 154t-8.5 144.5t-6 119.5t-4.5 86.5t-2 39q-1 18 -5.5 23 t-10 -2.5t-8.5 -22.5q-38 -191 -80 -357t-97 -329t-119 -258t-128 -95q-75 0 -130.5 66.5t-56.5 179.5q-4 345 -4 590z" />
<glyph unicode="V" horiz-adv-x="1040" d="M2 1110q-9 24 23.5 52t66.5 32.5t47 -18.5q7 -29 81 -309t143 -543t77 -301q18 -85 33 -86q11 -1 26 36q1 1 1 2q50 120 93.5 258t74 269.5t55 264t38 247.5t20.5 214q6 87 6 152v18q-1 71 -9 109q-7 17 28 31q22 9 42 9q22 0 41 -11q29 -16 29 -55q0 -183 -69.5 -535 t-161 -667t-152.5 -418q-21 -34 -57 -53q-29 -16 -54 -16q-5 0 -11 1q-30 4 -38 29q-1 3 -72.5 266t-159.5 569t-141 453z" />
<glyph unicode="W" horiz-adv-x="1349" d="M-27 1346q21 -122 40 -275.5t31.5 -284t26 -267t28 -241.5t32.5 -189q19 -85 45 -129q25 -43 57 -42h3q154 9 325 852q8 43 19 41q16 -3 22 -74q3 -34 9 -91.5t19.5 -165.5t33 -207.5t44 -195t58.5 -153t70 -57.5q83 0 164.5 198.5t133.5 460.5t78 518q17 163 16 271 q0 61 -5 104q-6 48 -45 48q-8 0 -18 -2q-39 -8 -62 -34q-8 -10 -6 -16q24 -65 28 -195q1 -27 0 -54q0 -107 -10 -226q-14 -150 -40 -309.5t-58.5 -288t-71 -211t-72.5 -82.5q-27 0 -61 246t-61 520.5t-31 292.5q-5 22 -53 32q-25 6 -51 6q-23 0 -45 -4q-47 -10 -48 -36 q-6 -193 -47.5 -420t-93 -376.5t-86.5 -149.5q-37 0 -74.5 299.5t-56.5 574.5t-19 322q0 26 -61 29q-10 1 -20 1q-49 0 -76 -18q-12 -11 -11 -22z" />
<glyph unicode="X" horiz-adv-x="1099" d="M57 -150q-3 13 4 17q86 31 195.5 194t218.5 402q-233 449 -346 854q-4 14 -4 25q-1 32 31 43q22 8 47 8q23 0 47 -7q51 -14 55 -32q71 -304 254 -699q96 231 159.5 438t63.5 289q4 5 28 6.5t52.5 -21.5t28.5 -62q0 -51 -83 -286t-194 -482q109 -226 221.5 -413.5 t200.5 -285.5q8 -9 -10 -26.5t-44.5 -23t-57.5 16.5q-82 71 -184.5 216t-209.5 337q-76 -155 -146.5 -269.5t-144 -190.5t-130.5 -76q-42 0 -52 28z" />
<glyph unicode="Y" horiz-adv-x="892" d="M2 1380q0 13 38 24q29 9 58 9q8 0 16 -1q37 -3 36 -23q-4 -87 -6 -165v-86v-48q1 -55 3 -188t3 -249q1 -94 20 -140t49 -46q75 0 174.5 202.5t167.5 561.5q17 84 34.5 112.5t49.5 28.5h45t32 -3.5t24.5 -4.5t14 -12.5t8.5 -18.5t0.5 -30t-1.5 -39t-6 -54 q-6 -50 -44.5 -253.5t-72.5 -449.5t-39 -468q-1 -22 -1 -43q0 -127 26 -217q2 -17 -25 -36.5t-66 -20.5h-2q-38 0 -65 34q-25 30 -25 155q0 53 5 124q6 88 84.5 562.5t78.5 498.5q0 16 -3 17q-3 2 -9 -19q-30 -109 -55 -191.5t-55.5 -165.5t-61 -140.5t-65 -104t-74.5 -69 t-84 -22.5q-75 0 -130 66.5t-56 179.5q-3 255 -21 733z" />
<glyph unicode="Z" horiz-adv-x="1009" d="M-57 -8q0 44 34 77t97 33q52 0 110 -18q162 195 366.5 581t272.5 658q-145 -57 -322 -90q-124 -23 -228 -23q-44 0 -85 4q-45 4 -59 35.5t-7 61.5t13 28q83 -21 178 -21t174 12t175 39.5t157 50t144 55.5q5 2 12 -11q16 -34 -1 -58q-3 -4 -7 -7q-28 -134 -133 -386 t-258 -532t-287 -438q77 -35 223 -120t256.5 -136t187.5 -51q56 0 87 21t61 75q5 9 24 -11q25 -27 25 -56q0 -11 -3 -22q-4 -15 -15 -28q-62 -80 -201 -80q-80 0 -160.5 25.5t-152 68.5t-134 87t-132.5 92.5t-122 73.5q-104 -107 -180 -107q-54 0 -82 34.5t-28 82.5zM26 4 q-2 -12 18 -18q8 -2 19 -2q23 0 60 34q-35 5 -45 5q-48 0 -52 -19z" />
<glyph unicode="[" horiz-adv-x="655" d="M157.5 -311.5q0.5 23.5 6.5 41.5q50 1290 57 1765q-6 -2 -12 -2q-15 -2 -17.5 27.5t8.5 58.5t29 27q224 -23 287 -23q11 0 15.5 -20.5t-3.5 -41t-26 -20.5q-11 0 -71 -1t-99 -1q-45 -673 -45 -1127q1 -350 24 -630q177 -14 205 -14q11 0 15.5 -20.5t-3.5 -41t-26 -20.5 q-231 0 -324 -13q-10 -1 -15.5 15.5t-5 40z" />
<glyph unicode="\" horiz-adv-x="1228" d="M137 1546q-19 21 23 43q47 25 92 16q22 -4 31 -18q33 -54 328 -814t319 -832q10 -31 -33 -66q-43 -34 -78 -26q-21 5 -26 28q-61 273 -153.5 559t-185 505.5t-177 381t-140.5 223.5z" />
<glyph unicode="]" horiz-adv-x="684" d="M164.5 -292.5q4.5 20.5 15.5 20.5q30 0 207 14q78 656 41 1757q-39 0 -99 1t-71 1q-18 0 -25.5 20.5t-2.5 41t16 20.5q53 0 289 23q15 0 18 -43q8 -4 8 -11q-32 -1182 -29 -1806q25 -22 20.5 -69.5t-36.5 -43.5q-93 13 -323 13q-18 0 -25.5 20.5t-3 41z" />
<glyph unicode="_" horiz-adv-x="1228" d="M95.5 -169q-1.5 -36 14 -64.5t27.5 -24.5q86 34 244.5 45.5t297.5 5t264 -9t144 3.5q29 10 23 55q-4 29 -14 30q-2 0 -4 -1q-16 -15 -249.5 -7t-438.5 19t-277 -4q-30 -12 -31.5 -48z" />
<glyph unicode="`" horiz-adv-x="647" d="M127 1367q2 -2 4 -3q17 -12 155.5 -161t149.5 -167q5 -13 35.5 -12t46 18t-5.5 58q-24 35 -157.5 162.5t-170.5 150.5q-22 12 -48 -12q-22 -21 -9 -34z" />
<glyph unicode="a" horiz-adv-x="952" d="M-37 283v19q-1 96 27 184q30 96 81.5 159.5t116.5 100t131 36.5q39 0 68 -17.5t29 -41.5q0 -26 -24 -42q-19 -13 -25 3q-3 14 -15.5 23.5t-27.5 9.5q-62 0 -112.5 -60t-78 -156.5t-27.5 -205.5q0 -116 19.5 -177t50.5 -61q61 0 142 160.5t145 392.5q7 24 15.5 80.5 t8.5 71.5q0 17 49 23q14 2 26 2q36 0 49 -16q4 -7 3 -15q-6 -30 -25.5 -259.5t-19.5 -289.5q0 -107 17.5 -169.5t46.5 -62.5q45 0 120 101t148 254t113 295q10 35 30 9q21 -27 21 -64q0 -8 -2 -15q-20 -62 -50.5 -137t-76.5 -167.5t-94.5 -166t-107 -124t-111.5 -50.5 q-160 0 -160 301q0 101 6 149q4 38 -3 37q-6 0 -15 -24q-3 -9 -20.5 -56t-28.5 -73t-32 -73.5t-41.5 -76.5t-47.5 -60t-58 -46t-65 -15q-14 0 -30.5 3t-47.5 20.5t-54 47.5t-42 92.5t-21 146.5z" />
<glyph unicode="b" horiz-adv-x="710" d="M-25 1386q0 74 25 116t63 42q37 0 59.5 -25.5t22.5 -66.5q0 -10 -32.5 -280.5t-32.5 -423.5q0 -40 12 -404q42 218 120 356t165 138q88 0 151.5 -92.5t63.5 -239.5q0 -114 -33.5 -219.5t-84 -177t-109.5 -114t-111 -42.5q-77 0 -84 51q-5 31 15 51q6 6 12 6 q65 0 120 43.5t87.5 109t50.5 133.5t18 124q0 129 -27 206t-71 77q-49 0 -99.5 -87t-86 -213t-59.5 -259t-28 -232v-2q-1 -17 -32 -25.5t-62 -3t-31 22.5z" />
<glyph unicode="c" horiz-adv-x="624" d="M-47 254q-1 18 -1 35q0 61 11 127q14 84 45.5 161t90 128t134.5 55h12q41 0 73 -12q36 -14 55 -38.5t27.5 -46t9.5 -40.5v-10q0 -55 -42 -64q-28 -6 -42 9q-5 4 -2 9q9 9 6.5 30.5t-10 43t-28.5 37t-50 14.5q-47 -2 -84 -73q-38 -71 -54 -169q-13 -78 -13 -154 q0 -18 1 -36q6 -135 49.5 -210t96.5 -75q58 0 129 68.5t132 170.5t110.5 211.5t76.5 199.5q10 34 30 6q20 -29 20 -62q0 -9 -1 -14q-20 -61 -53 -137.5t-83.5 -168t-106 -166t-123.5 -124.5t-131 -51q-31 0 -61 5.5t-71.5 26.5t-72 56t-54 101.5t-26.5 156.5z" />
<glyph unicode="d" horiz-adv-x="1120" d="M-39 233q0 151 46 282.5t124.5 209.5t167.5 78q62 0 97.5 -37t35.5 -66q0 -32 -27 -43q-19 -5 -22 7q0 55 -80 55q-27 0 -61.5 -31t-68.5 -87.5t-57.5 -152.5t-23.5 -210q0 -93 20.5 -146t47.5 -53q74 0 176 198t217 566q8 169 25 386.5t28 283.5q27 155 107 155 q73 0 73 -116q0 -34 -6 -78q-20 -142 -50 -294.5t-45 -261t-19 -255.5q-1 -43 -1 -83q0 -228 29 -378q34 -176 103 -176q45 0 121 98t150.5 249t113.5 292q10 35 30 9q21 -27 21 -64q0 -8 -2 -15q-25 -80 -68 -179t-102.5 -209t-132 -183.5t-137.5 -73.5q-52 0 -93.5 29.5 t-68 81.5t-45 114.5t-27 138.5t-11.5 143q-2 40 -2 81q0 27 1 55q-216 -592 -387 -592q-18 0 -37.5 3.5t-50 20t-53 43.5t-39.5 80.5t-17 124.5z" />
<glyph unicode="e" horiz-adv-x="634" d="M-39 340q18 212 114 347.5t216 135.5q77 0 116 -44.5t39 -110.5q0 -74 -28 -145.5t-80 -135.5t-108.5 -116.5t-129.5 -106.5q21 -86 68 -128t90 -42q77 0 169 110t161 250.5t108 270.5q8 30 29 5q22 -28 22 -62l-2 -13q-20 -60 -52.5 -135t-82.5 -164.5t-104.5 -161.5 t-122.5 -121t-131 -49q-33 0 -69.5 9.5t-81 38.5t-77.5 72.5t-52 120.5q-13 54 -13 119q0 27 2 56zM88 250q233 180 254 397q1 23 0 48t-13 44t-34 19q-43 0 -88 -65t-77 -164t-40 -197q-2 -31 -2 -82z" />
<glyph unicode="f" horiz-adv-x="450" d="M-344 -186q0 47 34 68q31 17 60 17h9q34 -3 32 -14q-14 -64 -14 -119q0 -41 7 -78q18 -86 60 -139t88 -53q55 0 81 91.5t26 240.5q0 10 3 226q2 90 2 152q0 90 -3 126q-1 37 -4 113t-4 116q-246 14 -246 109q0 19 11 34.5t22.5 21t13.5 1.5q13 -22 66.5 -49t128.5 -45 q-3 90 -8 208t-8 190t-3 102q0 141 47 219t133 78q56 0 103.5 -34.5t76 -84t49 -106t28.5 -97.5t8 -61q0 -27 -21 -38t-42 -9t-21 8q0 29 -11.5 84.5t-31 116t-50.5 105t-65 44.5q-74 0 -74 -225q0 -6 -1 -104q-1 -65 -1 -133q0 -34 1 -69q0 -104 3 -209q14 -2 45 -2 q93 0 209 27t215 72q15 7 22 -17q9 -28 -7 -39l-4 -2q-118 -50 -253 -75t-225 -25q0 -30 3.5 -88.5t3.5 -71.5q24 -442 24 -559q0 -207 -59 -311.5t-183 -104.5q-116 0 -196 112.5t-80 279.5z" />
<glyph unicode="g" horiz-adv-x="823" d="M-326 -561q0 61 60 80q40 12 60 -1q5 -3 5 -7q0 -51 76.5 -112t175.5 -61q187 0 298.5 199.5t111.5 534.5q0 163 -6 340q0 52 -9 48q-4 -2 -10 -16q-2 -4 -14 -33t-18.5 -44.5t-22.5 -49.5t-28 -55.5t-31.5 -53t-36.5 -52.5t-40.5 -45t-46 -37.5t-49.5 -23t-55 -9.5 q-63 0 -97 66t-34 182q0 117 39.5 246t100 230.5t138 167.5t148.5 66q39 0 67.5 -17.5t28.5 -41.5q0 -26 -24 -42q-19 -13 -25 3q-4 15 -16.5 24t-26.5 9q-70 0 -141.5 -117.5t-113.5 -268t-42 -259.5q0 -93 9 -126.5t34 -33.5q36 0 110 125t133.5 282t59.5 236q0 38 48 57 q22 9 41 9q20 0 36 -10q20 -11 19 -35q-11 -335 -11 -762q0 -64 -7.5 -134t-25.5 -150t-45.5 -153.5t-70.5 -142t-96.5 -119t-127.5 -80.5t-161 -30q-165 0 -266 68.5t-101 148.5z" />
<glyph unicode="h" horiz-adv-x="950" d="M-20 1229q0 129 26.5 200.5t73.5 71.5q46 0 66 -43t20 -139q0 -71 -14 -144t-31 -125.5t-29 -133.5q-10 -65 -11 -135q0 -17 1 -33q2 -39 16 -553q106 278 203.5 427.5t177.5 149.5q85 0 122.5 -105t37.5 -335q0 -352 43 -352q34 0 100 106.5t130 256t100 275.5 q10 34 30 6q21 -28 21 -61q0 -10 -2 -16q-47 -139 -95.5 -251.5t-100 -201.5t-105 -137.5t-103.5 -48.5q-77 0 -114 75.5t-37 243.5q0 23 1.5 95.5t1.5 124t-2.5 112t-12.5 93t-27 32.5q-39 0 -124 -165.5t-150 -327t-87 -230.5h-2q-1 -18 -31.5 -27t-60.5 -3t-30 24z" />
<glyph unicode="i" horiz-adv-x="522" d="M18 211q0 205 50 637q1 17 51 23q14 2 26 2q35 0 47 -16q4 -6 3 -13q-8 -65 -29 -220t-31 -250t-10 -167q0 -232 76 -232q46 0 124 100.5t154 252.5t115 290q10 34 30 6q21 -28 21 -61q0 -10 -2 -16q-27 -79 -72 -177.5t-106.5 -206.5t-135.5 -180.5t-139 -72.5 q-83 0 -127.5 79t-44.5 222zM92 1317q0 41 23.5 63.5t48.5 22.5q37 0 63.5 -28t26.5 -66q0 -36 -35 -70.5t-65 -34.5q-27 0 -44.5 33t-17.5 80z" />
<glyph unicode="j" horiz-adv-x="446" d="M-631 -520q0 61 60 79q40 12 60 -1q5 -3 5 -7q0 -55 77.5 -128.5t174.5 -73.5q163 0 251.5 204t88.5 580q0 375 -29 637q-1 13 36.5 29.5t69.5 18t36 -22.5v-15q0 -57 5 -276q5 -258 5 -318q0 -457 -119.5 -690t-353.5 -233q-165 0 -266 68.5t-101 148.5zM41 1243 q0 41 23.5 63.5t48.5 22.5q37 0 63.5 -28t26.5 -66q0 -42 -33 -80q-24 -28 -50 -28q-9 0 -18 3q-27 9 -44 39t-17 74z" />
<glyph unicode="k" horiz-adv-x="952" d="M-28 173v63q0 96 3 250q4 212 15 448q8 168 17.5 271.5t26.5 173t40.5 97t60.5 27.5q51 1 66 -43q8 -22 7.5 -58t-7.5 -85q-15 -96 -38 -223.5t-38 -224t-27 -205.5q-8 -84 -12 -170q-2 -60 -3 -103q1 -19 1 -35q2 -52 4 -98t2 -49v-4q1 1 11.5 30t23 62.5t33 85t42 101 t49.5 106.5t55.5 106t60 95.5t63 79.5t63.5 53t64 20q37 0 63.5 -11t38.5 -28t16.5 -32t4.5 -29q0 -69 -42 -155.5t-97.5 -155.5t-96.5 -113t-53 -53q-11 -11 12 -43q104 -150 170.5 -222.5t116.5 -72.5q30 0 92.5 96t127 233t106.5 260q10 26 30 5q22 -23 22 -58 q0 -7 -3 -18q-25 -73 -70.5 -172.5t-101.5 -200.5t-117 -170.5t-106 -69.5q-90 0 -182.5 88t-149.5 203q-22 43 -33 93.5t-12 52.5q-9 17 6 42t35 25q6 0 20 -2t17 -2q13 0 61.5 65t94.5 155t46 143t-20 53q-57 0 -135.5 -122.5t-141 -276.5t-107 -278.5t-46.5 -143.5 q-1 -11 -16 -20.5t-35.5 -13t-41 -3t-35.5 11t-16 29.5q-3 40 -5 140z" />
<glyph unicode="l" horiz-adv-x="522" d="M2 674q20 426 52 616q49 292 141 297h6q31 -1 47 -29q18 -32 20 -77q1 -11 1 -23q0 -74 -27 -204q-31 -151 -69.5 -328.5t-45.5 -290.5q-3 -55 -4 -108q1 -83 9 -165q12 -134 43.5 -220.5t72.5 -86.5q36 0 100 80t131 216t105 274q10 35 30 9q21 -27 21 -64q0 -8 -2 -15 q-24 -75 -65 -168t-95 -188.5t-117.5 -159.5t-117.5 -64q-127 -1 -190 173q-50 137 -50 384q0 67 4 142z" />
<glyph unicode="m" horiz-adv-x="1198" d="M20 197q1 55 6 165t8 230.5t3 255.5q0 12 37 20q21 4 41 5q17 0 33 -3q36 -6 34 -26q-6 -109 -24 -299t-21 -303q-2 -47 5 -48.5t20 44.5q25 86 43.5 143t40 119.5t40 101t39.5 71t42.5 47.5t44.5 15q40 0 68 -19.5t45 -51.5t26.5 -85t12.5 -108t3 -133q0 -45 14 11 q2 10 5 24q20 86 40.5 149t47.5 114.5t61 78t74 26.5q22 0 39.5 -5.5t37 -21.5t31.5 -44q13 -28 23 -73q10 -41 9 -98v-11q-1 -64 -7 -152q-6 -63 -6 -117q0 -115 28 -189q40 -110 138 -110q10 0 2 -22q-12 -37 -51 -50q-14 -4 -29 -4q-58 0 -99.5 27t-63 74t-33.5 109 q-11 57 -11 122v10q1 70 4 146q7 89 7 150q0 36 -2 64q-6 72 -15.5 91.5t-24.5 19.5q-27 0 -66 -81t-75 -222t-49 -286q-2 -24 -38 -36q-19 -6 -38 -6l-32 4q-36 10 -37 36q-3 68 -5 169t-4 164t-6 127t-12 94.5t-21 30.5t-34 -40.5t-46.5 -116.5t-43.5 -133t-43.5 -144 t-28.5 -96q-48 -154 -111 -154q-49 0 -64 45q-12 38 -12 141v44z" />
<glyph unicode="n" horiz-adv-x="987" d="M18 197q1 21 9 214.5t8 374.5q-1 12 35 20q20 4 40 5l32 -3q36 -6 34 -26q-5 -87 -13 -197.5t-12 -184t-4 -158.5q0 -54 12 -53q7 0 13 20q9 28 29 81t61.5 146t84 169.5t96.5 134t100 57.5q40 0 65.5 -21t36 -59t13.5 -84q1 -17 1 -36q0 -32 -3 -68q-5 -58 -10.5 -110 t-11 -111t-5.5 -99q0 -114 17.5 -165.5t55.5 -51.5q123 0 347 626q10 26 30 5q22 -23 22 -58q0 -7 -3 -18q-215 -637 -414 -637q-56 0 -93 24t-56 72t-26 103.5t-7 134.5q0 49 5.5 115.5t12 120.5t11.5 102q4 40 4 67v9q-1 28 -11 28q-74 0 -303 -565q-51 -103 -68 -126.5 t-47 -27.5q-58 1 -74 45q-14 38 -14 144v41z" />
<glyph unicode="o" horiz-adv-x="679" d="M-47 289q0 172 40 294t87 179q12 13 45.5 3t50.5 -32q0 21 19 31q48 24 100 24q26 0 54 -11t58.5 -38.5t54 -68t39 -105.5t15.5 -145q0 -110 -37.5 -224.5t-107 -196t-150.5 -81.5q-116 0 -192 101t-76 270zM102 293q0 -134 32.5 -215.5t86.5 -81.5q48 0 96 62t78.5 159 t30.5 193q0 82 -12.5 144t-32 93.5t-38 46.5t-34.5 15q-40 0 -67 -41q-11 -14 -28 -3t-28 35l-4 -8q-27 -44 -53.5 -146t-26.5 -253z" />
<glyph unicode="p" horiz-adv-x="983" d="M-29 -891q10 79 34.5 365.5t29.5 453.5q5 159 5 434v94q-1 344 -1 345q-3 15 33 27q27 10 56 10q10 0 19 -1q39 -4 43 -28q2 -19 2 -74q0 -137 -14 -495q136 600 350 600q53 0 95 -29.5t66.5 -73.5t41 -100t22.5 -103t7 -90q115 109 232.5 192t207.5 116q24 8 28 -17 q4 -28 -17 -46q-3 -3 -7 -5q-244 -132 -448 -346q-14 -205 -83 -343t-161 -138q-41 0 -64.5 25t-23.5 69q0 116 182 334q4 40 4 51q0 15 1 57t1 73.5t-1.5 76.5t-7.5 77t-16.5 62.5t-29.5 46.5t-45 16q-37 0 -83.5 -62.5t-93.5 -179t-88 -265.5t-70.5 -340t-37.5 -383 q-1 -73 -1 -176.5t-0.5 -160t-2.5 -79.5q-2 -28 -20 -42.5t-42.5 -13t-48 9.5t-39.5 24t-14 32zM530 -53q12 0 45 153q-23 -42 -38 -82q-15 -39 -15 -57q0 -13 8 -14z" />
<glyph unicode="q" horiz-adv-x="770" d="M-37 121q0 -85 49.5 -141t114.5 -56q76 0 175 103.5t132 191.5q8 23 14 4q4 -14 1 -37q0 -270 -11 -442q-2 -36 -27 -262.5t-26 -257.5q-1 -28 37 -44q31 -14 64 -14h12q38 3 39 21q1 19 1 43q0 39 -3 92q-5 83 -5 182q0 76 15 263q44 552 61 667q5 37 -21 48.5t-56.5 1 t-36.5 -26.5q-7 -19 -41.5 -83.5t-84.5 -148.5t-107.5 -147.5t-96.5 -63.5q-33 0 -49.5 25.5t-16.5 87.5q0 109 42.5 228t102 206.5t122.5 145t104 57.5q32 0 51 -36q12 -24 12 -45q0 -11 -4 -21q-1 -4 6 -6q23 -9 45 5q17 11 17 35t-5.5 44.5t-20 41.5t-44 33t-71.5 12 q-72 0 -158 -60t-159.5 -155t-123 -227.5t-49.5 -263.5z" />
<glyph unicode="r" horiz-adv-x="808" d="M51 680q12 45 24.5 79t31.5 72t45 59t57 21q60 0 60 -58q0 -23 -9 -54q-11 -36 -46.5 -88.5t-37.5 -57.5q-5 -11 2 -15t30.5 -4.5t33.5 -2.5q5 -1 39 -3.5t61 -6.5t58 -12t47 -24t12 -38q-8 -28 -20.5 -74t-33 -154t-20.5 -176q0 -71 17.5 -119.5t46.5 -48.5 q45 0 130 100t169 255.5t122 294.5q4 34 24 13q22 -24 27 -63q1 -12 -1 -20q-23 -73 -74 -177.5t-117.5 -211.5t-146 -181.5t-144.5 -74.5q-80 0 -130 61.5t-50 159.5q0 59 8 123t17.5 105t18.5 74.5t9 35.5q0 9 1 17.5t-8 16.5t-30 11q-19 2 -58.5 4.5t-64.5 7t-47 15.5 q-59 30 -59 94q0 20 6 45z" />
<glyph unicode="s" horiz-adv-x="665" d="M8 125q0 35 43 54q35 16 47 3l2 -6q0 -44 60 -95.5t135 -51.5q123 0 123 84q0 31 -40.5 76.5t-98 94t-114.5 99t-97.5 105.5t-40.5 100q0 33 17 66.5t48.5 62.5t63.5 54t77 49t73.5 38.5t67 32t44.5 20.5q12 2 22 -21t8 -50.5t-22 -36.5q-6 -3 -45.5 -17.5t-76 -31 t-77 -39.5t-65.5 -51.5t-25 -57.5q0 -30 29 -67.5t72 -72.5t93.5 -78t93.5 -83.5t72 -89.5t29 -96q0 -76 -68 -114t-163 -38q-127 0 -207 53t-80 105z" />
<glyph unicode="t" horiz-adv-x="503" d="M-246 932q0 19 11 34.5t22.5 21t13.5 1.5q15 -24 79 -48.5t155 -35.5q4 59 10 121.5t13 132t10 105.5q0 28 35 34q11 2 23 3q23 1 46 -9q34 -14 31 -35l-43 -360q184 0 276 45q15 7 22 -17q8 -26 -8 -36l-4 -2q-177 -58 -294 -66q-32 -312 -32 -567q0 -98 5 -188 q1 -43 14.5 -74t26.5 -31q44 0 172.5 214.5t230.5 449.5q12 27 31 2q20 -28 15 -59q-2 -8 -5 -13q-147 -329 -255.5 -501.5t-190.5 -172.5q-153 0 -156 234v54q0 313 21 654q-275 14 -275 109z" />
<glyph unicode="u" horiz-adv-x="993" d="M31 319q0 1 2 141t2 273q-1 13 35 21q20 4 40 4l32 -3q36 -6 34 -26q-2 -49 -6 -115t-6.5 -112t-5 -102.5t-2.5 -95.5q0 -13 -1 -26q0 -28 1 -56q1 -42 5 -69.5t11 -50.5t18.5 -34t26.5 -11q108 0 266 533q7 24 16 90t9 82q0 17 49 23q14 2 26 2q36 0 49 -16q4 -7 3 -15 q-4 -24 -14.5 -252.5t-10.5 -296.5q0 -107 17.5 -169.5t46.5 -62.5q45 0 120.5 101t148.5 254t112 295q4 34 24 13q22 -24 26 -63q1 -12 -1 -20q-25 -80 -68 -179t-102.5 -209t-132 -183.5t-137.5 -73.5q-160 0 -160 301q0 101 6 149q4 38 -3 37q-6 0 -15 -24 q-3 -9 -20.5 -56t-28.5 -73t-32 -73.5t-41.5 -76.5t-47.5 -60t-58 -46t-65 -15q-28 0 -54.5 14.5t-53.5 49.5t-43.5 107.5t-16.5 174.5z" />
<glyph unicode="v" horiz-adv-x="788" d="M-10 760q-4 11 26 27q38 19 69 19q11 0 21 -2q24 -5 27 -26q12 -93 79.5 -435.5t86.5 -342.5q8 0 22.5 35t31.5 94.5t31 111.5t29.5 112.5t18.5 70.5q49 171 80.5 248.5t67.5 107.5q15 12 34 12q22 0 49 -17q23 -18 21 -27q-30 -13 -75 -103.5t-79 -214.5 q-148 -553 -237 -553q-29 0 -63 59t-67 159t-61.5 199.5t-55 212.5t-38 165t-18.5 88z" />
<glyph unicode="w" horiz-adv-x="997" d="M-2 870q0 19 32 26q14 3 29 3q17 -1 35 -5q32 -8 31 -26q0 -41 2 -141.5t6.5 -255.5t16.5 -266t28 -111q13 0 32.5 47t40.5 124t38.5 146.5t35 145t21.5 90.5q7 31 36 37t56.5 -7t34.5 -32q1 -4 27 -92t53 -172.5t63.5 -159t63.5 -74.5q32 0 58 120q24 111 24 241v20 q-1 103 -20.5 197t-39.5 123q-9 13 14 28q33 19 58 -1q13 -10 19 -29q42 -135 45 -309v-36q0 -109 -16 -208q-18 -115 -54 -186.5t-82 -71.5q-51 0 -96.5 43t-74.5 100t-52.5 124.5t-32.5 105.5t-12 55q-5 31 -12 28q-6 -2 -13 -30v-2q-15 -68 -36 -140.5t-50.5 -154.5 t-66.5 -134.5t-72 -52.5q-30 0 -55.5 34t-42 95t-30 131.5t-21 157t-12 156.5t-6.5 146.5t-2.5 110t-0.5 62.5z" />
<glyph unicode="x" horiz-adv-x="841" d="M-31 -104q-4 14 4 16q18 0 45.5 26.5t90.5 110.5q79 105 165 279q-85 117 -161.5 250t-96.5 200q-2 6 -2 12q0 26 42 33q16 3 31 3q33 0 63 -14q22 -10 24 -24q6 -32 51 -138.5t103 -209.5q71 157 133 324q8 10 35 10t53.5 -12t19.5 -27q-4 -7 -34 -72.5t-71 -150 t-81 -162.5q2 -2 12.5 -18t16.5 -23q67 -90 156 -176.5t139 -126.5q26 -20 1 -51q-20 -23 -38 -19q-5 1 -8 5q-60 39 -159 129t-171 182q-209 -385 -312 -385q-41 0 -51 29z" />
<glyph unicode="y" horiz-adv-x="897" d="M-229 -561q0 61 60 80q40 12 60 -1q4 -4 5 -7q0 -55 63.5 -114t167.5 -59q189 0 304.5 216t115.5 579q0 15 0.5 77.5t0.5 111t-1 114t-4 113.5q-2 40 -17 16l-8 -18q-15 -38 -43 -108q-38 -94 -56 -138t-47 -111t-47 -97t-42.5 -63.5t-47 -46t-47.5 -12.5 q-73 0 -122.5 71.5t-49.5 188.5q0 56 8 147.5t21 229t21 240.5q1 13 39 20q21 5 42 5q16 0 33 -3q36 -6 33 -26q-3 -22 -14.5 -99t-15 -103t-12.5 -88.5t-12 -94.5t-8 -79.5t-6.5 -83.5t-1.5 -69q0 -190 56 -190q39 0 113.5 175.5t148.5 432.5q25 86 42.5 113.5t47.5 27.5 q23 0 39 -1t28.5 -5.5t20 -8.5t12.5 -15t6.5 -20.5t2 -29.5t-0.5 -37t-1.5 -48t-0.5 -58q0 -18 -2 -167t-2 -240q0 -108 -11 -211.5t-34.5 -211.5t-66 -198t-99.5 -161t-140.5 -111.5t-184.5 -40.5q-151 0 -248.5 69t-97.5 148z" />
<glyph unicode="z" horiz-adv-x="921" d="M56 602q-3 -21 -3 -36q0 -24 9 -29q2 -2 6 0q93 50 212.5 91t221.5 42h15q63 0 63 -16l-2 -7q-3 -7 -208 -324.5t-239 -367.5q-19 -28 -13.5 -44t26.5 -17t44 2q570 101 621 118q26 9 -5 50q-31 40 -63 50q-10 3 -16 1q-23 -8 -199.5 -54.5t-226.5 -58.5q-52 -12 -52 -1 q0 4 9 13q10 10 209.5 320t212.5 334q14 23 13.5 47t-21.5 30q-77 20 -156 19q-38 0 -78 -4q-75 -9 -140.5 -25t-125.5 -36t-80 -25q-25 -7 -34 -72z" />
<glyph unicode="{" horiz-adv-x="630" d="M163 610.5q3 28.5 19 28.5q25 0 59.5 40.5t34.5 65.5q0 131 -19 261t-38.5 230.5t-19.5 158.5t19.5 100t47.5 62t60 29.5t56.5 9t37.5 -6.5q36 -16 23 -65q-8 -32 -22 -36q-3 0 -5 1q-46 26 -86.5 -1t-40.5 -79q0 -95 50 -293t50 -305q0 -41 -21.5 -103.5t-21.5 -84.5 q0 -16 10 -29.5t22.5 -24.5t24.5 -40t15 -72q3 -41 -17.5 -121.5t-47.5 -162.5t-49.5 -195t-22.5 -209q0 -62 35 -84.5t73 -10.5q12 3 17 -16q10 -35 -14 -63q-21 -25 -62 -25q-129 0 -129 190q0 126 18.5 265.5t37.5 241t19 134.5q0 60 -31 92.5t-57 32.5q-11 0 -19.5 28 t-5.5 56.5z" />
<glyph unicode="|" horiz-adv-x="487" d="M164.5 679q-2.5 710 7.5 806q6 33 62 45q55 12 81 -7q12 -8 9 -22q-31 -171 -46 -343t-18.5 -302t8 -320.5t21.5 -301.5t33 -343q4 -38 -42 -44q-46 -7 -84 19q-23 16 -24 36q-5 67 -7.5 777z" />
<glyph unicode="}" horiz-adv-x="673" d="M208 -380q-9 32 4 50q5 6 11 4q40 -12 75.5 10.5t35.5 84.5q0 121 -22 267.5t-41 258t-15 162.5q3 43 15 72t24.5 40t22.5 24.5t10 29.5q0 22 -21.5 84.5t-21.5 103.5q0 107 47 305t47 293q0 54 -27.5 79.5t-72.5 0.5q-11 -6 -23 21q-18 41 2 67q6 8 16 12q13 6 34.5 6.5 t49 -9t50.5 -29.5t39 -62t16 -100q0 -64 -33 -259.5t-33 -326.5q0 -66 33 -118t62 -52q16 0 18.5 -28.5t-6 -56.5t-19.5 -28q-26 0 -57 -32.5t-31 -92.5q0 -21 7.5 -246.5t7.5 -394.5q0 -190 -129 -190q-61 0 -75 50z" />
<glyph unicode="~" horiz-adv-x="1218" d="M164 451q0 -19 14 -29.5t26 -9.5t15 4q9 52 48 82t71 30q33 0 72 -20t80.5 -49t89 -58t113 -49t136.5 -20q91 0 158.5 43t67.5 108q0 35 -34 45q-22 7 -26 -4v-2q5 -41 -39 -87t-102 -46q-46 0 -99 20.5t-101.5 49.5t-97.5 58.5t-104 50t-104 20.5q-62 0 -123 -41 t-61 -96z" />
<glyph unicode="&#xa1;" horiz-adv-x="493" d="M164 762q0 42 30 70t70 12q32 -13 47 -30.5t15 -59.5q0 -41 -23.5 -63.5t-48.5 -22.5q-37 0 -63.5 28t-26.5 66zM172 -430q13 51 32.5 437.5t10.5 486.5q-1 15 22 13q35 -2 52 -33q6 -13 8 -28q14 -152 15.5 -369.5t-3.5 -360.5t-10 -216q-2 -30 -45 -20q-45 11 -71 46 q-16 23 -11 44z" />
<glyph unicode="&#xa2;" horiz-adv-x="624" d="M76 725q-8 176 62.5 307t197.5 154l-6 145q-1 13 20 18t43 0t23 -18q1 -9 -0.5 -31.5t-4 -55.5t-3.5 -56q68 -8 100.5 -51.5t34.5 -83.5q4 -64 -43 -74q-27 -6 -41 8q-5 5 -2 10q8 9 5.5 30.5t-9.5 43t-28 37t-50 14.5q-64 -3 -116.5 -118.5t-43.5 -272.5 q6 -111 41.5 -177.5t83.5 -66.5q49 0 102.5 30.5t71.5 86.5q1 4 13.5 -8.5t16 -30t-13.5 -43.5q-70 -82 -155 -98q0 -31 4.5 -90t3.5 -70q-1 -13 -23 -18t-43 0t-20 18l6 158q-39 4 -72.5 18.5t-69.5 46t-58.5 92.5t-26.5 146z" />
<glyph unicode="&#xa3;" horiz-adv-x="1157" d="M164 702q0 19 11 34.5t22.5 21.5t13.5 2q25 -41 133 -70q-55 178 -67 256q-7 49 -7 92q0 137 58.5 217t183.5 80q124 0 230 -99.5t106 -225.5q0 -55 -29 -81.5t-58 -24.5t-30 14q-4 46 -20 99.5t-42 106t-67.5 87t-89.5 34.5q-30 0 -51.5 -22t-31 -58t-13.5 -68.5 t-4 -66.5q0 -32 8 -79.5t16.5 -84t25 -102.5t23.5 -96h17q146 0 241 45q16 7 22 -17q5 -28 -11 -39q-102 -55 -250 -65q16 -82 16 -141q0 -64 -16 -149.5t-51 -160.5q10 2 30 2q43 0 84 -17.5t68 -38.5t65 -38.5t76 -17.5q41 0 85 59t44 129q0 9 22 10.5t44 -9.5t22 -34 q0 -41 -26 -93t-77.5 -93t-109.5 -41q-57 0 -103.5 14t-71.5 31t-57 31t-63 14q-43 0 -69.5 -10t-63.5 -39q-12 -11 -39 -7t-49.5 20.5t-11.5 31.5q137 162 137 406q0 63 -20 145q-205 19 -205 106z" />
<glyph unicode="&#xa5;" horiz-adv-x="1019" d="M167 1251q-10 24 1 55q14 35 57 35q46 0 87.5 -33t74 -91.5t59.5 -127t49 -154t36.5 -155.5t27.5 -147h2q26 82 43 121q39 92 98 306.5t46 289.5q-1 8 26 16t54.5 -6.5t27.5 -61.5q0 -57 -53.5 -230t-95.5 -282q-4 -12 -16 -41.5t-21.5 -55.5t-16.5 -52q25 1 50.5 2.5 t39.5 2.5t15 1q16 0 21 -19t2 -37.5t-7 -17.5q-24 9 -139 2q-2 -10 -7 -36.5t-7 -42.5l137 8q16 0 21 -19t2 -37.5t-7 -17.5q-24 7 -160 0q-6 -62 -6 -135q0 -27 6.5 -135.5t6.5 -139.5q0 -22 -31.5 -30.5t-63.5 -1.5t-32 22q0 1 5 68t5 196q-3 69 -12 148 q-113 -10 -130 -10q-26 0 -32.5 25t0 50t12.5 23q37 -14 141 -17q-2 11 -5 35t-5 35l-111 -8q-26 0 -32.5 25t0 50t12.5 23q31 -13 119 -16q-22 133 -51 247.5t-65.5 208t-81.5 137.5t-91 21q-2 -1 -5 4z" />
<glyph unicode="&#xa6;" horiz-adv-x="468" d="M164.5 399.5q3.5 102.5 9.5 137.5q6 37 65 39q45 1 58 -14q3 -4 2 -7q-31 -154 -33.5 -299t29.5 -389q2 -15 -21.5 -24t-49.5 -1t-31 35q-20 115 -26 267.5t-2.5 255zM166.5 1324.5q2.5 101.5 7.5 137.5q5 26 38.5 33.5t64 -0.5t28.5 -20q-24 -133 -32.5 -217t-4.5 -198 t27 -267q2 -15 -21.5 -24t-49.5 -1t-31 35q-18 115 -23.5 267.5t-3 254z" />
<glyph unicode="&#xa7;" horiz-adv-x="929" d="M164 131q0 35 43 54q35 16 47 3q2 -2 2 -6q0 -44 60 -95.5t135 -51.5q122 0 122 84q0 37 -54 120t-119 165.5t-119 175t-54 147.5q0 83 55 132.5t144 62.5q-77 69 -118.5 122.5t-41.5 102.5q0 46 32.5 94t81.5 86t104 69.5t101 50.5t72 23q7 1 14 -7.5t11.5 -23 t5.5 -29.5t-4.5 -28.5t-17.5 -19.5q-6 -3 -45.5 -17.5t-76 -31t-77 -39.5t-65.5 -51.5t-25 -57.5q0 -30 29 -67.5t72 -72.5t93.5 -78t93.5 -83.5t72 -89.5t29 -96q0 -76 -68 -114t-163 -38q-43 0 -80 6q6 -8 30 -39.5t32.5 -42.5t30 -40.5t31 -43.5t27 -41t25.5 -43l20 -40 t17.5 -41.5t9.5 -37.5t4 -38q0 -76 -68 -114t-163 -38q-127 0 -207 53t-80 105zM338 741q2 -2 2 -6q0 -44 60 -95.5t135 -51.5q122 0 122 84q0 44 -96 133q-107 55 -165 36.5t-58 -96.5v-4z" />
<glyph unicode="&#xa8;" horiz-adv-x="667" d="M123 1268q0 41 23.5 63.5t48.5 22.5q37 0 63.5 -28t26.5 -66q0 -36 -35.5 -70.5t-65.5 -34.5q-27 0 -44 33t-17 80zM383 1262q0 41 23.5 63.5t48.5 22.5q37 0 63.5 -28.5t26.5 -66.5q0 -36 -35.5 -70t-65.5 -34q-27 0 -44 33t-17 80z" />
<glyph unicode="&#xa9;" horiz-adv-x="1585" d="M164 401q0 112 25 206t67.5 161t102.5 119.5t126 85.5t142.5 54t147.5 29.5t145 8.5q57 0 98.5 -16.5t73 -39.5t45.5 -28q284 -108 284 -584q0 -125 -56.5 -231t-148.5 -175t-206.5 -107t-233.5 -38q-62 0 -119 6t-119.5 23t-115 43.5t-101.5 70t-83 100t-54 136.5 t-20 176zM274 403q0 -89 18.5 -162.5t48.5 -124t73 -89t87 -60.5t96 -36t95 -18.5t88 -4.5q120 0 226.5 41t178 107t113 149.5t41.5 169.5q0 410 -151 477q-11 7 -16 2t-4.5 -12.5t-8 -20t-26.5 -20.5q-33 -19 -50.5 -7t-31.5 78q-12 56 -37.5 82.5t-89.5 26.5 q-33 0 -74.5 -4.5t-106.5 -19.5t-126 -39t-125 -69t-111 -103t-77 -147t-30 -196zM575 393q0 71 12.5 134t39 117t74 87t110.5 35q41 1 71 -11t44 -32t20.5 -37t7.5 -33q1 -56 -38 -63q-24 -4 -33 8q-2 4 0 8q4 13 4 37t-18.5 47t-49.5 21q-62 -3 -97 -93.5t-32 -220.5 q3 -104 40 -161.5t95 -57.5q40 0 85.5 27t80.5 74q10 12 24 -6q20 -27 3 -59l-12 -15q-76 -76 -203 -76q-26 0 -51 4.5t-58.5 21t-58 44t-42 79.5t-18.5 121z" />
<glyph unicode="&#xab;" horiz-adv-x="1263" d="M82.5 450q6.5 44 26.5 44q23 0 53 11t45 23q49 38 221.5 150.5t230.5 140.5q34 10 68 -22q28 -25 17 -40q-3 -3 -7 -5q-51 -23 -113 -58t-117.5 -71.5t-100.5 -67.5t-80.5 -56.5t-38.5 -27.5q-9 -6 -13.5 -9.5t-12 -8.5t-10.5 -9t-6 -9t-2.5 -9t3.5 -8q31 -35 216 -184.5 t240 -155.5q13 -1 6 -34q-9 -45 -36 -52q-11 -3 -23 2q-80 34 -302.5 199.5t-254.5 197.5q-16 15 -9.5 59zM543 431.5q4 44.5 28 47.5q51 6 76 27q18 15 169 115t190 124q46 14 79 -35q22 -31 15 -45l-4 -3q-98 -25 -353 -203q-24 -18 -33.5 -34.5t3.5 -23.5 q33 -15 178 -124.5t172 -165.5q20 -36 -27 -61q-34 -19 -55 -11q-5 2 -6 6q-8 31 -188 166.5t-230 165.5q-18 10 -14 54.5z" />
<glyph unicode="&#xad;" d="M123 508.5q-1 -30.5 14.5 -53.5t26.5 -19q67 24 157.5 30t159.5 -1.5t136 -10.5t88 5q29 10 22 55q-4 29 -14 30q-2 0 -4 -1q-17 -15 -144.5 -6.5t-240.5 19t-170 -4.5q-30 -12 -31 -42.5z" />
<glyph unicode="&#xae;" horiz-adv-x="1232" d="M164 979q0 233 148.5 364.5t408.5 131.5q33 0 64.5 -9t49.5 -19.5t33 -20.5t17 -11q211 -73 180 -438q-15 -190 -130 -304t-310 -114q-221 0 -341 109t-120 311zM246 979q0 -167 95.5 -252.5t283.5 -85.5q161 0 251.5 90.5t106.5 245.5q10 98 -4.5 188.5t-44.5 138 t-62 33.5q-25 -12 -44.5 -5t-29.5 20.5t-30.5 27t-46.5 13.5q-226 0 -350.5 -108t-124.5 -306zM455 1214q-1 6 7 11t20 8t25 3.5t22.5 -3t11.5 -10.5q4 -16 4 -95q22 54 61 95t72 41q41 0 68.5 -29.5t27.5 -89.5q0 -67 -47.5 -117t-93.5 -70q25 -47 73.5 -94t90.5 -43 q16 1 17 -20q0 -26 -23 -37q-8 -4 -17 -4q-58 0 -120.5 69t-82.5 123q-8 32 27 41q30 7 66 54t36 98q0 31 -6.5 50t-15.5 19q-33 0 -77.5 -64t-57.5 -151q0 -52 5 -121.5t5 -74.5q0 -7 -20.5 -9t-41 1.5t-20.5 11.5v199q-3 133 -16 208z" />
<glyph unicode="&#xaf;" horiz-adv-x="911" d="M110.5 1133q-6.5 25 0 50t12.5 23q19 -8 74.5 -12t124 -4.5t147 1t141 3.5t108 4t46.5 2q16 0 21 -19t2 -37.5t-7 -17.5q-13 6 -116.5 4t-212 -7t-207 -10t-101.5 -5q-26 0 -32.5 25z" />
<glyph unicode="&#xb0;" horiz-adv-x="755" d="M164 1223q0 79 23.5 121t72.5 69q5 2 17 9.5t20 11.5t23.5 8t33.5 4q23 0 48 -18l26 -17q75 0 119.5 -56t44.5 -147q0 -92 -65.5 -162.5t-159.5 -70.5q-49 0 -87 16.5t-59 41.5t-34.5 60t-18 65.5t-4.5 64.5zM248 1184q0 -43 35.5 -87.5t91.5 -41.5q49 2 96 42.5 t47 110.5q0 38 -6 63t-20.5 38t-21.5 16t-26 8q-4 1 -6 2q-3 1 -5 -2t-4.5 -7.5t-8.5 -10t-14 -8.5q-32 -13 -62 -13t-63 -26.5t-33 -83.5z" />
<glyph unicode="&#xb1;" d="M102 527q1 30 31 42q37 15 234 0q3 80 -9 148q-2 11 22.5 24.5t54.5 10t40 -34.5q12 -37 -6 -156q197 -15 219 2q8 6 15 -14q13 -37 -5 -60q-7 -7 -14 -10q-13 -5 -38.5 -5.5t-49 1t-67 5t-70.5 5.5q-2 -10 -5 -29l-4.5 -28.5t-4 -25.5t-3.5 -25t-2 -22t-1.5 -20.5t0 -16 t2 -14t3.5 -9.5q5 -8 -13 -14q-35 -11 -58 6q-10 7 -13 18q-3 9 -4.5 22.5t-2 24.5t0.5 31.5t2 31t3 37.5t3 37q-133 0 -219 -34q-11 -4 -26.5 19t-14.5 53zM106 192q7 42 24 53q4 2 7 1q73 -29 168 -39t165.5 -4.5t139 6.5t88.5 -6q29 -10 22 -55q-4 -29 -14 -30q-2 0 -4 1 q-17 14 -140 3.5t-237.5 -21.5t-185.5 10q-44 18 -33 81z" />
<glyph unicode="&#xb4;" horiz-adv-x="694" d="M130.5 993q17.5 -21 45.5 -17.5t37 11.5q9 17 171 191t181 186q17 11 -3 33q-21 24 -44 18q-3 0 -6 -2q-39 -23 -195.5 -175t-179.5 -187q-24 -37 -6.5 -58z" />
<glyph unicode="&#xb6;" horiz-adv-x="1093" d="M131 1047q0 121 27.5 221.5t70.5 165t97.5 109.5t105.5 64t96 19q56 0 128 -27t115 -51.5t110 -66.5q25 0 39 -7.5t8 -21.5q-34 -80 -64 -224t-51 -343.5t-21 -466.5t27 -545q4 -38 -41 -43q-46 -5 -84 22q-24 17 -24 37q0 64 40 698.5t60 801.5q-29 50 -89.5 64.5 t-88.5 -21.5q-43 -169 -74 -436t-41 -608.5t23 -676.5q4 -38 -41 -43q-46 -5 -85 23q-23 18 -24 37q0 115 45 882q-10 4 -32.5 11t-35.5 11t-34.5 14t-35.5 20.5t-32.5 28.5t-30.5 39t-25 52t-20.5 68t-12.5 86t-5 107z" />
<glyph unicode="&#xb7;" horiz-adv-x="499" d="M133 477q0 41 23.5 63.5t48.5 22.5q37 0 63.5 -28t26.5 -66q0 -35 -33 -53.5t-67 -18.5q-62 0 -62 80z" />
<glyph unicode="&#xb8;" horiz-adv-x="763" d="M180 -436q-6 21 20 39q16 11 19 4q11 -31 44.5 -47.5t74.5 -16.5q13 0 29 2t40.5 10t43.5 21t33 38.5t14 59.5q0 27 -16 48t-45 34t-52.5 20t-57 14t-40.5 9q-29 8 -34 19.5t3 62.5q18 86 55 152q7 13 22.5 15t27 -4.5t10.5 -14.5q-2 -7 -15 -46t-18 -57 q-6 -13 -3.5 -23.5t19.5 -17.5q10 -4 38 -13.5t51.5 -17.5t53 -24.5t50 -36t35 -50.5t14.5 -69q0 -88 -72 -136t-168 -48q-76 0 -123 24.5t-53 49.5z" />
<glyph unicode="&#xbb;" horiz-adv-x="1251" d="M170 662q-13 4 2 31q20 39 58 44q14 2 28 -2q54 -33 198.5 -124.5t161.5 -104.5q25 -21 76 -27q24 -3 28.5 -47.5t-13.5 -54.5q-33 -20 -109 -71.5t-181 -134.5t-128 -126q-8 -6 -33 -0.5t-46 29.5t-11 51q20 50 107.5 118.5t155 108t89.5 49.5q20 9 -8 39l-23 19 q-1 1 -19.5 14t-33.5 23.5t-42.5 29t-50.5 33t-53 32.5t-55 31t-51.5 24t-46.5 16zM528 752q-13 5 5 32q26 37 61 37q6 0 12 -2q75 -37 289.5 -168.5t261.5 -156.5q15 -9 12 -51.5t-20 -51.5q-23 -12 -49 -39q-99 -102 -252.5 -213t-231.5 -145q-34 -15 -53 31q-14 34 -5 50 q2 3 5 3q38 4 150.5 87.5t203.5 161t103 91.5q9 11 -2.5 23t-38.5 30l-53 39q-52 39 -107 77.5t-138 87t-153 77.5z" />
<glyph unicode="&#xbf;" horiz-adv-x="901" d="M84 -303q0 69 24 143t60 135t78.5 124t80 110t64.5 93.5t31.5 73.5t-19.5 50q-5 4 7.5 22.5t34.5 29t55 -2.5q35 -17 42.5 -62t-18.5 -91q-28 -50 -88.5 -129.5t-102 -138.5t-76 -155.5t-34.5 -201.5q0 -91 50.5 -156t119.5 -65q51 0 93 23.5t70.5 63t47 84t27.5 93.5 q2 13 34 -4q49 -27 66 -72q9 -25 4 -49q-7 -34 -33.5 -71.5t-69.5 -72t-110 -57t-145 -22.5q-135 0 -214 82.5t-79 222.5zM375 809q0 35 33 53.5t67 18.5q62 0 62 -80q0 -41 -23.5 -63.5t-48.5 -22.5q-37 0 -63.5 28t-26.5 66z" />
<glyph unicode="&#xc0;" horiz-adv-x="1122" d="M84 8q137 371 162 441q-125 26 -125 90q0 19 11 34.5t22.5 21t13.5 1.5q21 -32 111 -59q159 444 249 737q-24 87 -55 164q-6 14 33.5 34.5t76.5 26t46 -9.5q64 -384 134 -689.5t234 -875.5q12 -43 -23.5 -64t-78.5 -12.5t-47 35.5q-23 177 -113 586q-141 -41 -246 -41 q-47 0 -129 4q-88 -300 -122 -442q-6 -28 -65 -29.5t-83 22.5q-11 11 -6 25zM385 514q68 -10 135 -10q120 0 203 18q-64 278 -148 590q-84 -245 -190 -598zM385 2028q-18 11 1 33q22 24 46 18l6 -2q37 -23 170.5 -151t157.5 -163q23 -37 5 -58t-45.5 -17t-35.5 12 q-11 18 -149.5 167t-155.5 161z" />
<glyph unicode="&#xc1;" horiz-adv-x="1122" d="M84 8q137 371 162 441q-125 26 -125 90q0 19 11 34.5t22.5 21t13.5 1.5q21 -32 111 -59q159 444 249 737q-24 87 -55 164q-6 14 33.5 34.5t76.5 26t46 -9.5q64 -384 134 -689.5t234 -875.5q12 -43 -23.5 -64t-78.5 -12.5t-47 35.5q-23 177 -113 586q-141 -41 -246 -41 q-47 0 -129 4q-88 -300 -122 -442q-6 -28 -65 -29.5t-83 22.5q-11 11 -6 25zM360 1656q-15 17 7 58q23 35 179.5 188t194.5 175q21 12 47 -13q23 -21 10 -34q-1 -1 -3 -2q-19 -12 -181.5 -186t-171.5 -191q-7 -13 -37 -12.5t-45 17.5zM385 514q68 -10 135 -10q120 0 203 18 q-64 278 -148 590q-84 -245 -190 -598z" />
<glyph unicode="&#xc2;" horiz-adv-x="1122" d="M84 8q137 371 162 441q-125 26 -125 90q0 19 11 34.5t22.5 21t13.5 1.5q21 -32 111 -59q159 444 249 737q-24 87 -55 164q-6 14 33.5 34.5t76.5 26t46 -9.5q64 -384 134 -689.5t234 -875.5q12 -43 -23.5 -64t-78.5 -12.5t-47 35.5q-23 177 -113 586q-141 -41 -246 -41 q-47 0 -129 4q-88 -300 -122 -442q-6 -28 -65 -29.5t-83 22.5q-11 11 -6 25zM256 1778q24 9 91.5 60.5t130.5 104t67 54.5q14 10 13.5 29.5t16.5 29.5q15 9 38 -11t53 -60t64 -83.5t80 -87t91 -65.5q9 -4 -13 -20q-30 -23 -57 -17q-38 8 -106 82t-96 115q-10 15 -18 15 t-31 -17q-8 -6 -59.5 -59t-103 -96.5t-75.5 -43.5q-57 0 -84 40q-13 23 -2 30zM385 514q68 -10 135 -10q120 0 203 18q-64 278 -148 590q-84 -245 -190 -598z" />
<glyph unicode="&#xc3;" horiz-adv-x="1122" d="M84 8q137 371 162 441q-125 26 -125 90q0 19 11 34.5t22.5 21t13.5 1.5q21 -32 111 -59q159 444 249 737q-24 87 -55 164q-6 14 33.5 34.5t76.5 26t46 -9.5q64 -384 134 -689.5t234 -875.5q12 -43 -23.5 -64t-78.5 -12.5t-47 35.5q-23 177 -113 586q-141 -41 -246 -41 q-47 0 -129 4q-88 -300 -122 -442q-6 -28 -65 -29.5t-83 22.5q-11 11 -6 25zM268 1746q0 3 2 5q20 26 52.5 87t60.5 96.5t61 35.5q31 0 98.5 -48.5t131 -97t84.5 -48.5q16 0 29 11.5t19.5 32.5t7 47t-10 58t-31.5 62q-4 6 7 18.5t27 18t34 -4.5q20 -13 33.5 -59t13.5 -94 q0 -26 -7.5 -56t-22 -60t-41 -49.5t-60.5 -19.5q-32 0 -75.5 31.5t-78 69t-70.5 69t-55 31.5q-26 0 -43 -29.5t-29.5 -69t-21.5 -50.5q-32 -35 -84 -13q-29 12 -31 26zM385 514q68 -10 135 -10q120 0 203 18q-64 278 -148 590q-84 -245 -190 -598z" />
<glyph unicode="&#xc4;" horiz-adv-x="1122" d="M84 8q137 371 162 441q-125 26 -125 90q0 19 11 34.5t22.5 21t13.5 1.5q21 -32 111 -59q159 444 249 737q-24 87 -55 164q-6 14 33.5 34.5t76.5 26t46 -9.5q64 -384 134 -689.5t234 -875.5q12 -43 -23.5 -64t-78.5 -12.5t-47 35.5q-23 177 -113 586q-141 -41 -246 -41 q-47 0 -129 4q-88 -300 -122 -442q-6 -28 -65 -29.5t-83 22.5q-11 11 -6 25zM367 1931q0 41 23 63.5t48 22.5q37 0 63.5 -28t26.5 -66q0 -36 -35 -70t-65 -34q-27 0 -44 32.5t-17 79.5zM385 514q68 -10 135 -10q120 0 203 18q-64 278 -148 590q-84 -245 -190 -598zM627 1925 q0 41 23 63.5t48 22.5q37 0 63.5 -28t26.5 -66q0 -36 -35 -70.5t-65 -34.5q-27 0 -44 33t-17 80z" />
<glyph unicode="&#xc5;" horiz-adv-x="1122" d="M84 8q137 371 162 441q-125 26 -125 90q0 19 11 34.5t22.5 21t13.5 1.5q21 -32 111 -59q159 444 249 737q-24 87 -55 164q-6 14 33.5 34.5t76.5 26t46 -9.5q64 -384 134 -689.5t234 -875.5q12 -43 -23.5 -64t-78.5 -12.5t-47 35.5q-23 177 -113 586q-141 -41 -246 -41 q-47 0 -129 4q-88 -300 -122 -442q-6 -28 -65 -29.5t-83 22.5q-11 11 -6 25zM365 1870q0 80 23.5 122.5t72.5 67.5q21 7 49 3.5t45 -11.5q15 -7 21.5 -8.5t31.5 -1.5q79 0 132 -50t53 -137q0 -92 -66 -162.5t-160 -70.5q-49 0 -87 16.5t-59.5 41.5t-34.5 59.5t-17.5 66 t-3.5 64.5zM385 514q68 -10 135 -10q120 0 203 18q-64 278 -148 590q-84 -245 -190 -598zM477 1831q0 -29 6.5 -55t30 -49.5t61.5 -24.5q49 2 96.5 42.5t47.5 110.5q0 41 -7 67t-22.5 38t-24 15.5t-26.5 6.5q-3 1 -7 -10.5t-11.5 -25.5t-18.5 -17q-14 -6 -31 3.5t-26 9.5 q-19 0 -43.5 -39t-24.5 -72z" />
<glyph unicode="&#xc6;" horiz-adv-x="1564" d="M84 8q136 286 211 459q-170 48 -170 113q0 19 11 34.5t22.5 21t13.5 1.5q10 -15 53 -41t103 -51q189 437 303 753l-60 -12q-6 -1 -16.5 26t-4.5 59t42 42q24 5 82 12q0 2 1 6.5t1 6.5q0 10 -1 24t-1 17q-3 15 38.5 27.5t86.5 8.5t51 -28q0 -2 4 -57q153 -3 296 -24 t216 -58q19 -9 20.5 -27t-7.5 -31.5t-17 -11.5q-214 66 -506 49q3 -269 -2 -661q0 -30 -1 -83t-1 -77q166 43 330 166q12 9 25 -18q18 -39 -2 -67q-4 -7 -11 -12q-115 -82 -340 -126q0 -81 2 -153t4.5 -110.5t5.5 -84.5t4 -60q0 -10 2 -17t6.5 -11.5t6.5 -7.5t10.5 -4 t10.5 -1h13h13q123 0 223.5 25.5t226.5 83.5q3 1 7 -7q15 -29 8 -61q-4 -17 -15 -23q-56 -34 -231 -62.5t-332 -25.5q-23 0 -37 1.5t-29 6t-22 15.5t-6 29q12 231 10 450q-70 -4 -100 -4q-130 0 -238 18q-130 -355 -159 -456q-8 -29 -70 -30q-58 0 -80 23q-11 11 -4 25z M422 512q114 -31 221 -31q32 0 90 4q0 80 -2 121q-7 214 -37 602q-135 -317 -272 -696z" />
<glyph unicode="&#xc7;" horiz-adv-x="976" d="M25 653q0 187 31 334.5t80 237.5t115.5 149.5t130 82t130.5 22.5q60 0 106 -16t69 -40t34 -46t12 -40q4 -64 -43 -73q-27 -6 -41 8q-5 5 -2 10q3 8 5 22.5t-7.5 32.5t-24 33.5t-46 26t-72.5 10.5t-86 -23t-93.5 -79.5t-86 -138.5t-62 -213.5t-24.5 -290.5 q0 -148 24.5 -268.5t62.5 -195.5t87.5 -126t96 -71.5t91.5 -20.5q49 0 90 18t66 45.5t39.5 53t19.5 46.5q7 9 32.5 0.5t43 -32t6.5 -50.5q-21 -51 -86.5 -92.5t-179.5 -48.5q-21 -60 -25 -76q-6 -13 -3 -23.5t20 -17.5q8 -4 46 -16t65.5 -24.5t60.5 -34.5t51 -56.5t18 -79.5 q0 -88 -71.5 -136t-167.5 -48q-76 0 -123.5 24.5t-53.5 49.5q-6 21 20 39q15 10 19 4q11 -31 44.5 -47.5t74.5 -16.5q13 0 29 2t40.5 10t43.5 21t33 38.5t14 59.5q0 27 -16 48t-45 34t-52.5 20t-57 14t-40.5 9q-29 8 -34 19.5t3 62.5q8 46 39 119q-64 4 -122 24.5t-120 72.5 t-106.5 130.5t-73 209.5t-28.5 298z" />
<glyph unicode="&#xc8;" horiz-adv-x="1077" d="M62 1371q6 32 42 42q30 9 86 12q-4 50 -4 54q-3 15 38.5 27.5t86.5 8.5t51 -28q2 -7 5 -57q153 -3 296 -24t216 -58q19 -9 20.5 -27t-8 -31.5t-17.5 -11.5q-214 66 -505 49q3 -265 -2 -655q151 -11 260 4t133 39q3 3 13 -5.5t17.5 -25.5t2.5 -35q-13 -51 -132.5 -66 t-293.5 7q-1 -117 0.5 -217.5t4.5 -151t6.5 -107.5t4.5 -73q0 -9 2 -15.5t4 -11t6.5 -7.5t7 -4.5t9.5 -2t9.5 -0.5h11h11.5q123 0 224 26t227 83q3 1 7 -7q15 -29 8 -61q-5 -16 -15 -23q-56 -34 -231 -62.5t-332 -25.5q-23 0 -37 1.5t-29 6t-22 15.5t-6 29q14 353 6 624 q-5 172 -45 703q-30 -5 -115 -23q-6 -1 -17 26t-5 59zM303 2019q-18 11 1 33q22 24 46 18l6 -2q37 -23 170.5 -150.5t157.5 -162.5q23 -37 5 -58t-45.5 -17t-35.5 12q-11 18 -149.5 166.5t-155.5 160.5z" />
<glyph unicode="&#xc9;" horiz-adv-x="1077" d="M62 1371q6 32 42 42q30 9 86 12q-4 50 -4 54q-3 15 38.5 27.5t86.5 8.5t51 -28q2 -7 5 -57q153 -3 296 -24t216 -58q19 -9 20.5 -27t-8 -31.5t-17.5 -11.5q-214 66 -505 49q3 -265 -2 -655q151 -11 260 4t133 39q3 3 13 -5.5t17.5 -25.5t2.5 -35q-13 -51 -132.5 -66 t-293.5 7q-1 -117 0.5 -217.5t4.5 -151t6.5 -107.5t4.5 -73q0 -9 2 -15.5t4 -11t6.5 -7.5t7 -4.5t9.5 -2t9.5 -0.5h11h11.5q123 0 224 26t227 83q3 1 7 -7q15 -29 8 -61q-5 -16 -15 -23q-56 -34 -231 -62.5t-332 -25.5q-23 0 -37 1.5t-29 6t-22 15.5t-6 29q14 353 6 624 q-5 172 -45 703q-30 -5 -115 -23q-6 -1 -17 26t-5 59zM278 1648q-15 17 7 58q23 35 179 187t195 175q21 12 47 -12q23 -22 10 -35q-1 -1 -3 -2q-19 -12 -181.5 -186t-171.5 -191q-7 -13 -37 -12t-45 18z" />
<glyph unicode="&#xca;" horiz-adv-x="1077" d="M62 1371q6 32 42 42q30 9 86 12q-4 50 -4 54q-3 15 38.5 27.5t86.5 8.5t51 -28q2 -7 5 -57q153 -3 296 -24t216 -58q19 -9 20.5 -27t-8 -31.5t-17.5 -11.5q-214 66 -505 49q3 -265 -2 -655q151 -11 260 4t133 39q3 3 13 -5.5t17.5 -25.5t2.5 -35q-13 -51 -132.5 -66 t-293.5 7q-1 -117 0.5 -217.5t4.5 -151t6.5 -107.5t4.5 -73q0 -9 2 -15.5t4 -11t6.5 -7.5t7 -4.5t9.5 -2t9.5 -0.5h11h11.5q123 0 224 26t227 83q3 1 7 -7q15 -29 8 -61q-5 -16 -15 -23q-56 -34 -231 -62.5t-332 -25.5q-23 0 -37 1.5t-29 6t-22 15.5t-6 29q14 353 6 624 q-5 172 -45 703q-30 -5 -115 -23q-6 -1 -17 26t-5 59zM174 1769q24 9 91.5 60.5t130.5 104.5t67 55q14 10 14 29.5t17 29.5q15 9 38 -11t53 -60t63.5 -83.5t79.5 -87t91 -65.5q9 -5 -13 -21q-30 -22 -56 -16q-38 8 -106.5 82.5t-96.5 114.5q-10 15 -18 14.5t-31 -17.5 q-8 -6 -59.5 -58.5t-103 -96t-75.5 -43.5q-57 0 -84 39q-13 23 -2 30z" />
<glyph unicode="&#xcb;" horiz-adv-x="1077" d="M62 1371q6 32 42 42q30 9 86 12q-4 50 -4 54q-3 15 38.5 27.5t86.5 8.5t51 -28q2 -7 5 -57q153 -3 296 -24t216 -58q19 -9 20.5 -27t-8 -31.5t-17.5 -11.5q-214 66 -505 49q3 -265 -2 -655q151 -11 260 4t133 39q3 3 13 -5.5t17.5 -25.5t2.5 -35q-13 -51 -132.5 -66 t-293.5 7q-1 -117 0.5 -217.5t4.5 -151t6.5 -107.5t4.5 -73q0 -9 2 -15.5t4 -11t6.5 -7.5t7 -4.5t9.5 -2t9.5 -0.5h11h11.5q123 0 224 26t227 83q3 1 7 -7q15 -29 8 -61q-5 -16 -15 -23q-56 -34 -231 -62.5t-332 -25.5q-23 0 -37 1.5t-29 6t-22 15.5t-6 29q14 353 6 624 q-5 172 -45 703q-30 -5 -115 -23q-6 -1 -17 26t-5 59zM285 1923q0 41 23 63.5t48 22.5q37 0 63.5 -28t26.5 -66q0 -36 -35 -70.5t-65 -34.5q-27 0 -44 33t-17 80zM545 1917q0 41 23 63.5t48 22.5q37 0 64 -28t27 -66q0 -36 -35.5 -70.5t-65.5 -34.5q-27 0 -44 33t-17 80z " />
<glyph unicode="&#xcc;" horiz-adv-x="585" d="M6 2094q2 -2 4 -3q17 -12 155.5 -161t149.5 -167q5 -13 35.5 -12t46 18t-5.5 58q-24 35 -157.5 162.5t-170.5 150.5q-22 12 -48 -12q-22 -21 -9 -34zM123 1458q-2 24 40 41.5t87 15t51 -27.5q4 -20 4.5 -181.5t-1 -333.5t0.5 -306q4 -202 11.5 -350.5t15 -237.5t8.5 -107 q0 -25 -41.5 -33t-82.5 5t-40 39q14 353 6 624q-4 146 -18.5 352t-24.5 325.5t-16 174.5z" />
<glyph unicode="&#xcd;" horiz-adv-x="585" d="M-14.5 1720q17.5 -21 45.5 -17.5t37 11.5q9 17 171 191t181 186q17 11 -3 33q-21 24 -44 18q-3 0 -6 -2q-39 -23 -195.5 -175t-179.5 -187q-24 -37 -6.5 -58zM123 1458q-2 24 40 41.5t87 15t51 -27.5q4 -20 4.5 -181.5t-1 -333.5t0.5 -306q4 -202 11.5 -350.5t15 -237.5 t8.5 -107q0 -25 -41.5 -33t-82.5 5t-40 39q14 353 6 624q-4 146 -18.5 352t-24.5 325.5t-16 174.5z" />
<glyph unicode="&#xce;" horiz-adv-x="585" d="M-119 1815q22 -38 75 -43h11q24 0 75.5 43.5t103 96t59.5 58.5q23 17 31 17t18 -15q27 -39 96 -113.5t107 -82.5q30 -7 61 19q15 13 8 17q-45 22 -91 65.5t-79.5 87.5t-63.5 83.5t-53 60t-38 11.5q-17 -10 -17 -30t-14 -30q-4 -2 -67 -54.5t-130.5 -104t-91.5 -60.5 q-13 -4 0 -26zM123 1458q-2 24 40 41.5t87 15t51 -27.5q4 -20 4.5 -181.5t-1 -333.5t0.5 -306q4 -202 11.5 -350.5t15 -237.5t8.5 -107q0 -25 -41.5 -33t-82.5 5t-40 39q14 353 6 624q-4 146 -18.5 352t-24.5 325.5t-16 174.5z" />
<glyph unicode="&#xcf;" horiz-adv-x="585" d="M-8 1995q0 41 23 63.5t48 22.5q37 0 64 -28t27 -66q0 -36 -35.5 -70.5t-65.5 -34.5q-27 0 -44 33t-17 80zM123 1458q-2 24 40 41.5t87 15t51 -27.5q4 -20 4.5 -181.5t-1 -333.5t0.5 -306q4 -202 11.5 -350.5t15 -237.5t8.5 -107q0 -25 -41.5 -33t-82.5 5t-40 39 q14 353 6 624q-4 146 -18.5 352t-24.5 325.5t-16 174.5zM252 1989q0 41 23.5 63.5t48.5 22.5q37 0 63.5 -28.5t26.5 -66.5q0 -36 -35.5 -70t-65.5 -34q-27 0 -44 33t-17 80z" />
<glyph unicode="&#xd0;" horiz-adv-x="1294" d="M0 1262q1 18 12 39.5t34 45.5t69 40t106 16q65 0 123 -6q-6 59 -6 82q-3 15 38.5 27.5t86.5 8.5t51 -28q3 -16 6 -129q114 -38 206 -107.5t152.5 -156t103.5 -180.5t65.5 -194.5t32.5 -184t10 -162.5q0 -98 -23.5 -178t-60.5 -130.5t-84.5 -85t-94.5 -49t-92 -14.5 q-98 0 -248 27q-1 -5 -2 -14t-2 -13q-11 -59 -64.5 -64t-103 32t-49.5 83q0 29 11 47.5t32 26.5t38.5 10t43.5 2q10 390 4 553q0 20 -4 74q-30 -2 -68.5 -5.5t-58 -5t-22.5 -1.5q-26 0 -32.5 25t-0.5 50t12 23q39 -16 168 -16q-5 90 -12.5 195.5t-15.5 219.5t-11 158 q-52 8 -119 8q-41 0 -72.5 -10.5t-46 -26t-24 -33.5t-7.5 -32.5t5 -22.5q7 -10 -14 -16q-33 -11 -56 13q-18 19 -16 59zM498 39q148 -33 241 -33q224 0 224 332q0 354 -109 599.5t-334 340.5q3 -266 0 -526l137 8q16 0 21 -19t2.5 -37.5t-6.5 -17.5q-17 6 -156 2v-22 q-7 -469 -20 -627z" />
<glyph unicode="&#xd1;" horiz-adv-x="1228" d="M43 1460v2q-3 10 16 26.5t44.5 28.5t49 17t29.5 -8q1 -3 4 -9.5t4 -9.5q28 -7 31 -24q2 -6 2 -43q290 -594 586 -1121q-14 208 -14 406q0 76 -3 234.5t-3 238.5t5 173t17 138q16 57 94 56q54 -1 78 -22q8 -6 6 -11q-30 -99 -48 -213.5t-22.5 -214.5t-5.5 -206t2 -187 q3 -185 18 -387t15 -252q11 -18 -20.5 -41t-65.5 -28.5t-47 9.5q-87 189 -270 548t-326 614q-15 -440 -16 -512q-3 -198 1 -352.5t9 -233t4 -109.5q-1 -25 -43 -32t-82.5 7t-38.5 40q27 329 25 624q-1 145 -9 340t-17 352t-9 162zM202 1737q-1 4 1 6q20 26 52.5 87 t60.5 96.5t61 35.5q31 0 98.5 -49t130.5 -97.5t84 -48.5q27 0 43.5 30t11 80.5t-39.5 100.5q-4 6 6.5 19t26.5 18.5t34 -4.5q20 -13 33.5 -59t13.5 -94q0 -26 -7.5 -56t-22 -60t-41 -49.5t-60.5 -19.5q-32 0 -75.5 31.5t-77.5 69t-70 69t-55 31.5q-26 0 -43.5 -30t-30 -69.5 t-21.5 -50.5q-32 -35 -83 -13q-28 12 -30 26z" />
<glyph unicode="&#xd2;" horiz-adv-x="1071" d="M18 614q0 185 26 337t70 254.5t104 172.5t126 101.5t137 31.5q58 0 103.5 -26.5t71 -68.5t38.5 -84.5t15 -82.5q3 -76 -18.5 -144.5t-63.5 -96.5q-53 -36 -95 3q-22 20 -19 36q1 3 3 4q94 62 94 194q0 25 -7.5 55t-22.5 61t-43 52t-64 21q-68 0 -125.5 -75.5t-93.5 -195 t-56 -259.5t-20 -277q0 -177 35.5 -321t100 -228t145.5 -84q71 0 132.5 61.5t101 159t61.5 212t22 224.5q0 66 -7 121t-13.5 86t-22.5 64t-21 41t-22 32q-14 21 1 47t38 34.5t37 -3.5q2 -2 12.5 -14.5t17.5 -23.5t18.5 -32.5t19.5 -51.5t16 -70.5t12 -98.5t4 -127 q0 -52 -8 -116.5t-25.5 -138.5t-42 -146t-60 -138t-77 -116.5t-96.5 -80.5t-115 -30q-48 0 -88 6.5t-85 26t-80 52t-68 88t-55 130t-35 182t-13 240.5zM340 2022q2 -2 4 -3q17 -12 155.5 -160.5t149.5 -166.5q5 -13 35.5 -12.5t46 17.5t-5.5 58q-24 35 -157.5 162.5 t-170.5 150.5q-22 12 -48 -12q-22 -21 -9 -34z" />
<glyph unicode="&#xd3;" horiz-adv-x="1071" d="M18 614q0 185 26 337t70 254.5t104 172.5t126 101.5t137 31.5q58 0 103.5 -26.5t71 -68.5t38.5 -84.5t15 -82.5q3 -76 -18.5 -144.5t-63.5 -96.5q-53 -36 -95 3q-22 20 -19 36q1 3 3 4q94 62 94 194q0 25 -7.5 55t-22.5 61t-43 52t-64 21q-68 0 -125.5 -75.5t-93.5 -195 t-56 -259.5t-20 -277q0 -177 35.5 -321t100 -228t145.5 -84q71 0 132.5 61.5t101 159t61.5 212t22 224.5q0 66 -7 121t-13.5 86t-22.5 64t-21 41t-22 32q-14 21 1 47t38 34.5t37 -3.5q2 -2 12.5 -14.5t17.5 -23.5t18.5 -32.5t19.5 -51.5t16 -70.5t12 -98.5t4 -127 q0 -52 -8 -116.5t-25.5 -138.5t-42 -146t-60 -138t-77 -116.5t-96.5 -80.5t-115 -30q-48 0 -88 6.5t-85 26t-80 52t-68 88t-55 130t-35 182t-13 240.5zM319 1648q17 -21 45.5 -17.5t36.5 11.5q9 17 171.5 191t181.5 186q17 11 -4 34q-23 25 -46 17l-4 -2q-39 -23 -195 -175 t-179 -187q-24 -37 -7 -58z" />
<glyph unicode="&#xd4;" horiz-adv-x="1071" d="M18 614q0 185 26 337t70 254.5t104 172.5t126 101.5t137 31.5q58 0 103.5 -26.5t71 -68.5t38.5 -84.5t15 -82.5q3 -76 -18.5 -144.5t-63.5 -96.5q-53 -36 -95 3q-22 20 -19 36q1 3 3 4q94 62 94 194q0 25 -7.5 55t-22.5 61t-43 52t-64 21q-68 0 -125.5 -75.5t-93.5 -195 t-56 -259.5t-20 -277q0 -177 35.5 -321t100 -228t145.5 -84q71 0 132.5 61.5t101 159t61.5 212t22 224.5q0 66 -7 121t-13.5 86t-22.5 64t-21 41t-22 32q-14 21 1 47t38 34.5t37 -3.5q2 -2 12.5 -14.5t17.5 -23.5t18.5 -32.5t19.5 -51.5t16 -70.5t12 -98.5t4 -127 q0 -52 -8 -116.5t-25.5 -138.5t-42 -146t-60 -138t-77 -116.5t-96.5 -80.5t-115 -30q-48 0 -88 6.5t-85 26t-80 52t-68 88t-55 130t-35 182t-13 240.5zM215 1743q22 -38 75 -43h11q24 0 75.5 43.5t103 96t59.5 58.5q23 17 31 17.5t18 -14.5q28 -40 96.5 -114.5t106.5 -82.5 q30 -7 61 20q16 13 8 17q-45 22 -91 65.5t-79.5 87t-63.5 83.5t-53 60t-38 11q-17 -10 -17 -29.5t-14 -29.5q-4 -2 -67 -55t-130.5 -104.5t-91.5 -60.5q-13 -4 0 -26z" />
<glyph unicode="&#xd5;" horiz-adv-x="1071" d="M18 614q0 185 26 337t70 254.5t104 172.5t126 101.5t137 31.5q58 0 103.5 -26.5t71 -68.5t38.5 -84.5t15 -82.5q3 -76 -18.5 -144.5t-63.5 -96.5q-53 -36 -95 3q-22 20 -19 36q1 3 3 4q94 62 94 194q0 25 -7.5 55t-22.5 61t-43 52t-64 21q-68 0 -125.5 -75.5t-93.5 -195 t-56 -259.5t-20 -277q0 -177 35.5 -321t100 -228t145.5 -84q71 0 132.5 61.5t101 159t61.5 212t22 224.5q0 66 -7 121t-13.5 86t-22.5 64t-21 41t-22 32q-14 21 1 47t38 34.5t37 -3.5q2 -2 12.5 -14.5t17.5 -23.5t18.5 -32.5t19.5 -51.5t16 -70.5t12 -98.5t4 -127 q0 -52 -8 -116.5t-25.5 -138.5t-42 -146t-60 -138t-77 -116.5t-96.5 -80.5t-115 -30q-48 0 -88 6.5t-85 26t-80 52t-68 88t-55 130t-35 182t-13 240.5zM229 1743q-9 -10 17 -26q42 -25 79 -6q10 5 17 13q9 11 21.5 50.5t29.5 69.5t43 30q19 0 55 -31.5t70.5 -69t78 -69 t75.5 -31.5q34 0 60.5 19.5t41 49.5t22 60t7.5 56q0 48 -13.5 94t-33.5 59q-18 10 -34 4.5t-27 -18.5t-7 -19q21 -30 31.5 -62t10 -58t-7 -47t-19.5 -32.5t-29 -11.5q-21 0 -84.5 48.5t-131 97.5t-98.5 49q-33 0 -61 -35.5t-60.5 -96.5t-52.5 -87z" />
<glyph unicode="&#xd6;" horiz-adv-x="1071" d="M18 614q0 185 26 337t70 254.5t104 172.5t126 101.5t137 31.5q58 0 103.5 -26.5t71 -68.5t38.5 -84.5t15 -82.5q3 -76 -18.5 -144.5t-63.5 -96.5q-53 -36 -95 3q-22 20 -19 36q1 3 3 4q94 62 94 194q0 25 -7.5 55t-22.5 61t-43 52t-64 21q-68 0 -125.5 -75.5t-93.5 -195 t-56 -259.5t-20 -277q0 -177 35.5 -321t100 -228t145.5 -84q71 0 132.5 61.5t101 159t61.5 212t22 224.5q0 66 -7 121t-13.5 86t-22.5 64t-21 41t-22 32q-14 21 1 47t38 34.5t37 -3.5q2 -2 12.5 -14.5t17.5 -23.5t18.5 -32.5t19.5 -51.5t16 -70.5t12 -98.5t4 -127 q0 -52 -8 -116.5t-25.5 -138.5t-42 -146t-60 -138t-77 -116.5t-96.5 -80.5t-115 -30q-48 0 -88 6.5t-85 26t-80 52t-68 88t-55 130t-35 182t-13 240.5zM326 1923q0 41 23 63.5t48 22.5q37 0 63.5 -28t26.5 -66q0 -36 -35 -70.5t-65 -34.5q-27 0 -44 33t-17 80zM586 1917 q0 41 23 63.5t48 22.5q37 0 64 -28t27 -66q0 -36 -35.5 -70.5t-65.5 -34.5q-27 0 -44 33t-17 80z" />
<glyph unicode="&#xd7;" d="M192.5 671q2.5 26 25 47t52.5 9q39 -16 162 -162q16 21 43.5 59t41.5 56.5t31.5 38t29.5 26.5q26 16 56 -17q20 -23 12 -32l-3 -2q-15 -2 -48.5 -43t-89.5 -119q-4 -6 -6.5 -9.5t-6.5 -9t-7 -9.5q145 -172 172 -174q13 -1 -1 -26q-19 -33 -46 -35q-7 0 -14 3 q-13 6 -32 23.5t-34 34.5t-45.5 53t-46.5 55q-111 -155 -147 -172q-29 -15 -53.5 4.5t-28.5 44.5t2 33q79 47 170 152q-98 98 -184 137q-7 8 -4.5 34z" />
<glyph unicode="&#xd8;" horiz-adv-x="1071" d="M18 614q0 185 26 337t70 254.5t104 172.5t126 101.5t137 31.5q58 0 103.5 -26.5t71 -68.5t38.5 -84.5t15 -82.5q3 -76 -18.5 -144.5t-63.5 -96.5q-53 -36 -95 3q-22 20 -19 36q1 3 3 4q94 62 94 194q0 25 -7.5 55t-22.5 61t-43 52t-64 21q-68 0 -125.5 -75.5t-93.5 -195 t-56 -259.5t-20 -277q0 -251 72 -432q36 65 123.5 216.5t168 296.5t150.5 283l-2 4q-16 23 1.5 49t43.5 35l39 80q6 14 33 5q35 -12 37 -46q1 -21 -13 -45l-28 -49q63 -102 63 -369q0 -52 -8 -116.5t-25.5 -138.5t-42 -146t-60 -138t-77 -116.5t-96.5 -80.5t-115 -30 q-136 0 -225 62l-37 -78q-7 -13 -32 -6q-34 10 -33 46q0 14 6 30l33 71q-136 170 -136 600zM293 106q70 -112 166 -112q71 0 132.5 61.5t101 159t61.5 212t22 224.5q0 163 -39 262q-150 -250 -246 -425t-198 -382z" />
<glyph unicode="&#xd9;" horiz-adv-x="1103" d="M102 807q0 245 2 424.5t2 251.5q0 13 37.5 23.5t74.5 7.5t36 -23q0 -6 -7.5 -137.5t-9 -190t-5.5 -205.5t-3 -326t4 -409q1 -90 19 -120.5t51 -30.5q53 0 124.5 169.5t136 424.5t108.5 524q13 84 29.5 112.5t48.5 28.5q35 0 54 -3t32 -12t15.5 -24.5t4.5 -40t-0.5 -60 t0.5 -83.5q12 -375 50.5 -739t74.5 -437q6 -12 -24 -24q-49 -20 -91 3q-31 17 -41 58q-7 30 -14.5 83t-14 119.5t-13 141.5t-11.5 155.5t-10 154t-8.5 144.5t-6 119.5t-4.5 86.5t-2 39q-1 18 -5.5 23t-10 -2.5t-8.5 -22.5q-38 -191 -80 -357t-97 -329t-119 -258t-128 -95 q-75 0 -130.5 66.5t-56.5 179.5q-4 345 -4 590zM295 1893q2 -2 4 -3q17 -12 155.5 -160.5t149.5 -166.5q5 -13 35.5 -12.5t46 17.5t-5.5 58q-24 35 -157.5 162.5t-170.5 150.5q-22 12 -48 -12q-22 -21 -9 -34z" />
<glyph unicode="&#xda;" horiz-adv-x="1103" d="M102 807q0 245 2 424.5t2 251.5q0 13 37.5 23.5t74.5 7.5t36 -23q0 -6 -7.5 -137.5t-9 -190t-5.5 -205.5t-3 -326t4 -409q1 -90 19 -120.5t51 -30.5q53 0 124.5 169.5t136 424.5t108.5 524q13 84 29.5 112.5t48.5 28.5q35 0 54 -3t32 -12t15.5 -24.5t4.5 -40t-0.5 -60 t0.5 -83.5q12 -375 50.5 -739t74.5 -437q6 -12 -24 -24q-49 -20 -91 3q-31 17 -41 58q-7 30 -14.5 83t-14 119.5t-13 141.5t-11.5 155.5t-10 154t-8.5 144.5t-6 119.5t-4.5 86.5t-2 39q-1 18 -5.5 23t-10 -2.5t-8.5 -22.5q-38 -191 -80 -357t-97 -329t-119 -258t-128 -95 q-75 0 -130.5 66.5t-56.5 179.5q-4 345 -4 590zM274 1519q17 -21 45.5 -17.5t36.5 11.5q9 17 171.5 191t181.5 186q17 11 -4 34q-23 25 -46 17l-4 -2q-39 -23 -195 -175t-179 -187q-24 -37 -7 -58z" />
<glyph unicode="&#xdb;" horiz-adv-x="1103" d="M102 807q0 245 2 424.5t2 251.5q0 13 37.5 23.5t74.5 7.5t36 -23q0 -6 -7.5 -137.5t-9 -190t-5.5 -205.5t-3 -326t4 -409q1 -90 19 -120.5t51 -30.5q53 0 124.5 169.5t136 424.5t108.5 524q13 84 29.5 112.5t48.5 28.5q35 0 54 -3t32 -12t15.5 -24.5t4.5 -40t-0.5 -60 t0.5 -83.5q12 -375 50.5 -739t74.5 -437q6 -12 -24 -24q-49 -20 -91 3q-31 17 -41 58q-7 30 -14.5 83t-14 119.5t-13 141.5t-11.5 155.5t-10 154t-8.5 144.5t-6 119.5t-4.5 86.5t-2 39q-1 18 -5.5 23t-10 -2.5t-8.5 -22.5q-38 -191 -80 -357t-97 -329t-119 -258t-128 -95 q-75 0 -130.5 66.5t-56.5 179.5q-4 345 -4 590zM170 1614q22 -38 75 -43h11q24 0 75.5 43.5t103 96t59.5 58.5q23 17 31 17.5t18 -14.5q28 -41 96 -115t106 -82q30 -7 62 20q15 13 8 17q-45 22 -91 65.5t-80 87t-64 83.5t-53 60t-38 11q-17 -10 -16.5 -29.5t-13.5 -29.5 q-4 -2 -67 -55t-130.5 -104.5t-91.5 -60.5q-13 -4 0 -26z" />
<glyph unicode="&#xdc;" horiz-adv-x="1103" d="M102 807q0 245 2 424.5t2 251.5q0 13 37.5 23.5t74.5 7.5t36 -23q0 -6 -7.5 -137.5t-9 -190t-5.5 -205.5t-3 -326t4 -409q1 -90 19 -120.5t51 -30.5q53 0 124.5 169.5t136 424.5t108.5 524q13 84 29.5 112.5t48.5 28.5q35 0 54 -3t32 -12t15.5 -24.5t4.5 -40t-0.5 -60 t0.5 -83.5q12 -375 50.5 -739t74.5 -437q6 -12 -24 -24q-49 -20 -91 3q-31 17 -41 58q-7 30 -14.5 83t-14 119.5t-13 141.5t-11.5 155.5t-10 154t-8.5 144.5t-6 119.5t-4.5 86.5t-2 39q-1 18 -5.5 23t-10 -2.5t-8.5 -22.5q-38 -191 -80 -357t-97 -329t-119 -258t-128 -95 q-75 0 -130.5 66.5t-56.5 179.5q-4 345 -4 590zM281 1794q0 41 23 63.5t48 22.5q37 0 63.5 -28t26.5 -66q0 -36 -35 -70.5t-65 -34.5q-27 0 -44 33t-17 80zM541 1788q0 41 23 63.5t48 22.5q37 0 63.5 -28t26.5 -66q0 -36 -35 -70.5t-65 -34.5q-27 0 -44 33t-17 80z" />
<glyph unicode="&#xdd;" horiz-adv-x="892" d="M2 1380q0 13 37.5 24t74.5 8t36 -23q-4 -87 -5.5 -165t-0.5 -133.5t3 -188.5t3 -249q1 -94 20 -140t49 -46q75 0 174.5 202.5t167.5 561.5q17 84 34.5 112.5t49.5 28.5h45t32 -3.5t24.5 -4.5t14 -12.5t8.5 -18.5t0.5 -30t-1.5 -39t-6 -54q-6 -50 -44.5 -253.5 t-72.5 -449.5t-39 -468q-5 -155 25 -260q2 -17 -25 -36.5t-66.5 -20t-66.5 33.5q-35 43 -20 279q6 88 84.5 562.5t78.5 498.5q0 16 -3 17q-3 2 -9 -19q-30 -109 -55 -191.5t-55.5 -165.5t-61 -140.5t-65 -104t-74.5 -69t-84 -22.5q-75 0 -130 66.5t-56 179.5q-3 255 -21 733 zM159.5 1550q17.5 -21 45.5 -17.5t37 11.5q9 17 171 191t181 186q17 11 -3 33q-21 24 -44 18q-3 0 -6 -2q-39 -23 -195.5 -175t-179.5 -187q-24 -37 -6.5 -58z" />
<glyph unicode="&#xde;" horiz-adv-x="1089" d="M-84 643q0 43 31 64.5t62.5 20.5t31.5 -13q0 -68 26 -132t74 -110q-1 22 -2 66.5t-2 66.5q-5 144 -18.5 361.5t-25.5 395.5t-13 198q-3 15 38.5 27.5t86.5 8.5t51 -28q11 -51 6 -758q43 121 117 235.5t161.5 190.5t159.5 76q104 0 170 -100t66 -285q0 -123 -32 -227 t-87 -176.5t-128 -123t-155 -74.5t-169 -24q-56 0 -97 8q4 -79 11 -170t11.5 -149t4.5 -82q0 -25 -41.5 -33.5t-82.5 4.5t-40 39q7 122 10 428q-102 44 -163.5 121t-61.5 174zM260 555q0 -54 4 -160q53 -16 111 -16q71 0 149 42.5t143 113.5t107.5 175t42.5 216 q0 303 -119 303q-65 0 -142.5 -69.5t-140 -171t-106 -220.5t-47.5 -213h-2z" />
<glyph unicode="&#xdf;" horiz-adv-x="821" d="M4 70q3 132 19 300.5t47.5 351.5t72.5 334.5t100 250t124 98.5t106 -61.5t49.5 -159.5t-3 -209.5t-49 -222.5t-91.5 -187q-5 -9 5.5 -15.5t44 -16t40.5 -11.5q80 -26 134 -96t54 -184q0 -141 -69 -225.5t-178 -84.5q-104 0 -160.5 37t-67.5 86q-4 22 15.5 40.5t38.5 21 t24 -1.5q9 -53 50 -91t96 -38q61 0 99 64.5t38 193.5q0 52 -14 93t-36.5 64.5t-48.5 36t-51.5 10.5t-44.5 -16q-13 -10 -45.5 8.5t-49 48.5t4.5 66q57 77 95.5 174t51.5 184.5t10 163t-25 120t-56 44.5q-55 0 -111.5 -214t-89.5 -486t-33 -465q0 -294 24 -537.5t64 -308.5 q5 -9 -12.5 -23t-43.5 -17.5t-56 17.5q-54 41 -66.5 258t-5.5 605z" />
<glyph unicode="&#xe0;" horiz-adv-x="952" d="M-37 283q-3 108 27.5 203.5t81.5 159t116 100t131 36.5q39 0 68 -17.5t29 -41.5q0 -26 -24 -42q-19 -13 -25 3q-3 14 -15.5 23.5t-27.5 9.5q-62 0 -112.5 -60t-78 -156.5t-27.5 -205.5q0 -116 19.5 -177t50.5 -61q61 0 142 160.5t145 392.5q7 24 15.5 80.5t8.5 71.5 q0 17 49 23q58 7 75 -14q4 -7 3 -15q-6 -30 -25.5 -259.5t-19.5 -289.5q0 -107 17.5 -169.5t46.5 -62.5q45 0 120 101t148 254t113 295q10 35 30 9q21 -27 21 -64q0 -8 -2 -15q-20 -62 -50.5 -137t-76.5 -167.5t-94.5 -166t-107 -124t-111.5 -50.5q-160 0 -160 301 q0 101 6 149q4 38 -3 37q-6 0 -15 -24q-3 -9 -20.5 -56t-28.5 -73t-32 -73.5t-41.5 -76.5t-47.5 -60t-58 -46t-65 -15q-14 0 -30.5 3t-47.5 20.5t-54 47.5t-42 92.5t-21 146.5zM174 1371q2 -2 4 -3q17 -12 155.5 -161t149.5 -167q5 -13 35.5 -12t46 18t-5.5 58 q-24 35 -157.5 162.5t-170.5 150.5q-22 12 -48 -12q-22 -21 -9 -34z" />
<glyph unicode="&#xe1;" horiz-adv-x="952" d="M-37 283q-3 108 27.5 203.5t81.5 159t116 100t131 36.5q39 0 68 -17.5t29 -41.5q0 -26 -24 -42q-19 -13 -25 3q-3 14 -15.5 23.5t-27.5 9.5q-62 0 -112.5 -60t-78 -156.5t-27.5 -205.5q0 -116 19.5 -177t50.5 -61q61 0 142 160.5t145 392.5q7 24 15.5 80.5t8.5 71.5 q0 17 49 23q58 7 75 -14q4 -7 3 -15q-6 -30 -25.5 -259.5t-19.5 -289.5q0 -107 17.5 -169.5t46.5 -62.5q45 0 120 101t148 254t113 295q10 35 30 9q21 -27 21 -64q0 -8 -2 -15q-20 -62 -50.5 -137t-76.5 -167.5t-94.5 -166t-107 -124t-111.5 -50.5q-160 0 -160 301 q0 101 6 149q4 38 -3 37q-6 0 -15 -24q-3 -9 -20.5 -56t-28.5 -73t-32 -73.5t-41.5 -76.5t-47.5 -60t-58 -46t-65 -15q-14 0 -30.5 3t-47.5 20.5t-54 47.5t-42 92.5t-21 146.5zM153.5 997q17.5 -21 45.5 -17.5t37 11.5q9 17 171 191t181 186q17 11 -3 33q-21 24 -44 18 q-3 0 -6 -2q-39 -23 -195.5 -175t-179.5 -187q-24 -37 -6.5 -58z" />
<glyph unicode="&#xe2;" horiz-adv-x="952" d="M-37 283q-3 108 27.5 203.5t81.5 159t116 100t131 36.5q39 0 68 -17.5t29 -41.5q0 -26 -24 -42q-19 -13 -25 3q-3 14 -15.5 23.5t-27.5 9.5q-62 0 -112.5 -60t-78 -156.5t-27.5 -205.5q0 -116 19.5 -177t50.5 -61q61 0 142 160.5t145 392.5q7 24 15.5 80.5t8.5 71.5 q0 17 49 23q58 7 75 -14q4 -7 3 -15q-6 -30 -25.5 -259.5t-19.5 -289.5q0 -107 17.5 -169.5t46.5 -62.5q45 0 120 101t148 254t113 295q10 35 30 9q21 -27 21 -64q0 -8 -2 -15q-20 -62 -50.5 -137t-76.5 -167.5t-94.5 -166t-107 -124t-111.5 -50.5q-160 0 -160 301 q0 101 6 149q4 38 -3 37q-6 0 -15 -24q-3 -9 -20.5 -56t-28.5 -73t-32 -73.5t-41.5 -76.5t-47.5 -60t-58 -46t-65 -15q-14 0 -30.5 3t-47.5 20.5t-54 47.5t-42 92.5t-21 146.5zM49 1092q22 -38 75 -43h11q24 0 75.5 43.5t103 96t59.5 58.5q23 17 31 17t18 -15 q27 -39 96 -113.5t107 -82.5q30 -7 61 20q16 13 8 17q-45 22 -91 65.5t-79.5 87t-63.5 83.5t-53 60t-38 11q-17 -10 -17 -30t-14 -30q-4 -2 -67 -54.5t-130.5 -104t-91.5 -60.5q-13 -4 0 -26z" />
<glyph unicode="&#xe3;" horiz-adv-x="952" d="M-37 283q-3 108 27.5 203.5t81.5 159t116 100t131 36.5q39 0 68 -17.5t29 -41.5q0 -26 -24 -42q-19 -13 -25 3q-3 14 -15.5 23.5t-27.5 9.5q-62 0 -112.5 -60t-78 -156.5t-27.5 -205.5q0 -116 19.5 -177t50.5 -61q61 0 142 160.5t145 392.5q7 24 15.5 80.5t8.5 71.5 q0 17 49 23q58 7 75 -14q4 -7 3 -15q-6 -30 -25.5 -259.5t-19.5 -289.5q0 -107 17.5 -169.5t46.5 -62.5q45 0 120 101t148 254t113 295q10 35 30 9q21 -27 21 -64q0 -8 -2 -15q-20 -62 -50.5 -137t-76.5 -167.5t-94.5 -166t-107 -124t-111.5 -50.5q-160 0 -160 301 q0 101 6 149q4 38 -3 37q-6 0 -15 -24q-3 -9 -20.5 -56t-28.5 -73t-32 -73.5t-41.5 -76.5t-47.5 -60t-58 -46t-65 -15q-14 0 -30.5 3t-47.5 20.5t-54 47.5t-42 92.5t-21 146.5zM63 1092q-9 -10 17 -26q42 -25 79 -6q9 5 17 13q9 11 21.5 50.5t29.5 69.5t43 30q19 0 55 -31.5 t70.5 -69t78 -69t75.5 -31.5q34 0 60.5 19.5t41 49t22 59.5t7.5 56q0 49 -13.5 95t-33.5 59q-18 10 -34 4.5t-27 -18.5t-7 -19q21 -30 31.5 -62t10 -58t-7 -47t-19.5 -32.5t-29 -11.5q-17 0 -60.5 30.5t-88 67t-92 67t-72.5 30.5q-33 0 -61.5 -35t-61 -96.5t-52.5 -87.5z " />
<glyph unicode="&#xe4;" horiz-adv-x="952" d="M-37 283q-3 108 27.5 203.5t81.5 159t116 100t131 36.5q39 0 68 -17.5t29 -41.5q0 -26 -24 -42q-19 -13 -25 3q-3 14 -15.5 23.5t-27.5 9.5q-62 0 -112.5 -60t-78 -156.5t-27.5 -205.5q0 -116 19.5 -177t50.5 -61q61 0 142 160.5t145 392.5q7 24 15.5 80.5t8.5 71.5 q0 17 49 23q58 7 75 -14q4 -7 3 -15q-6 -30 -25.5 -259.5t-19.5 -289.5q0 -107 17.5 -169.5t46.5 -62.5q45 0 120 101t148 254t113 295q10 35 30 9q21 -27 21 -64q0 -8 -2 -15q-20 -62 -50.5 -137t-76.5 -167.5t-94.5 -166t-107 -124t-111.5 -50.5q-160 0 -160 301 q0 101 6 149q4 38 -3 37q-6 0 -15 -24q-3 -9 -20.5 -56t-28.5 -73t-32 -73.5t-41.5 -76.5t-47.5 -60t-58 -46t-65 -15q-14 0 -30.5 3t-47.5 20.5t-54 47.5t-42 92.5t-21 146.5zM160 1272q0 41 23 63.5t48 22.5q37 0 64 -28t27 -66q0 -36 -35.5 -70.5t-65.5 -34.5 q-27 0 -44 33t-17 80zM420 1266q0 41 23.5 63.5t48.5 22.5q37 0 63.5 -28.5t26.5 -66.5q0 -36 -35.5 -70t-65.5 -34q-27 0 -44 33t-17 80z" />
<glyph unicode="&#xe5;" horiz-adv-x="952" d="M-37 283q-3 108 27.5 203.5t81.5 159t116 100t131 36.5q39 0 68 -17.5t29 -41.5q0 -26 -24 -42q-19 -13 -25 3q-3 14 -15.5 23.5t-27.5 9.5q-62 0 -112.5 -60t-78 -156.5t-27.5 -205.5q0 -116 19.5 -177t50.5 -61q61 0 142 160.5t145 392.5q7 24 15.5 80.5t8.5 71.5 q0 17 49 23q58 7 75 -14q4 -7 3 -15q-6 -30 -25.5 -259.5t-19.5 -289.5q0 -107 17.5 -169.5t46.5 -62.5q45 0 120 101t148 254t113 295q10 35 30 9q21 -27 21 -64q0 -8 -2 -15q-20 -62 -50.5 -137t-76.5 -167.5t-94.5 -166t-107 -124t-111.5 -50.5q-160 0 -160 301 q0 101 6 149q4 38 -3 37q-6 0 -15 -24q-3 -9 -20.5 -56t-28.5 -73t-32 -73.5t-41.5 -76.5t-47.5 -60t-58 -46t-65 -15q-14 0 -30.5 3t-47.5 20.5t-54 47.5t-42 92.5t-21 146.5zM158 1210q0 81 23.5 123.5t72.5 67.5q21 7 49 3.5t45 -11.5q16 -8 22.5 -9.5t30.5 -1.5 q79 0 132 -49.5t53 -136.5q0 -92 -66 -162.5t-160 -70.5q-49 0 -87 16.5t-59.5 41.5t-34.5 59t-17.5 65.5t-3.5 64.5zM270 1171q0 -29 7 -55t30.5 -49.5t61.5 -24.5q49 2 96 43t47 111q0 41 -7 67t-22.5 38t-24 15.5t-26.5 6.5q-3 1 -7 -10.5t-11.5 -25.5t-18.5 -17 q-14 -6 -31 3t-26 9q-19 0 -43.5 -39t-24.5 -72z" />
<glyph unicode="&#xe6;" horiz-adv-x="1136" d="M-37 283q-3 108 27.5 203.5t81.5 159t116 100t131 36.5q39 0 68 -17.5t29 -41.5q0 -26 -24 -42q-19 -13 -25 3q-3 14 -15.5 23.5t-27.5 9.5q-62 0 -112.5 -60t-78 -156.5t-27.5 -205.5q0 -116 19.5 -177t50.5 -61q60 0 138 157.5t149 395.5q7 24 15.5 80.5t8.5 71.5 q0 17 49 23q58 7 75 -14q4 -7 3 -15q0 -1 -4 -25q86 92 183 92q77 0 116 -44.5t39 -110.5q0 -112 -104 -214t-250 -108q-2 -4 -2 -14q-6 -92 9.5 -161.5t44.5 -106t58 -53.5t56 -17q77 0 169 110t161 250.5t108 270.5q8 30 29 5q22 -28 22 -62l-2 -13q-20 -60 -52.5 -135 t-82.5 -164.5t-104.5 -161.5t-122.5 -121t-131 -49q-33 0 -69.5 9.5t-81 38.5t-77.5 72.5t-52 120.5t-11 175l6 55q-5 11 -15 -15q-2 -3 -3 -7q-3 -9 -20.5 -56t-28.5 -73t-32 -73.5t-41.5 -76.5t-47.5 -60t-58 -46t-65 -15q-9 0 -19 1.5t-29.5 8t-37 18t-37.5 35t-34.5 55 t-25 81.5t-12.5 111zM602 406q99 20 163.5 87t78.5 154q7 39 -4 75t-43 36q-57 0 -114 -107t-81 -245z" />
<glyph unicode="&#xe7;" horiz-adv-x="624" d="M-47 254q-4 79 10 162.5t45.5 160.5t90 128t134.5 55q49 2 85.5 -12.5t55 -38.5t27 -45.5t9.5 -40.5q4 -64 -42 -74q-28 -6 -42 9q-5 4 -2 9q9 9 6.5 30.5t-10 43t-28.5 37t-50 14.5q-47 -2 -84 -73t-53.5 -168.5t-12.5 -190.5q6 -135 49.5 -210t96.5 -75q58 0 129 68.5 t132 170.5t110.5 211.5t76.5 199.5q10 34 30 6q21 -30 20 -65q0 -6 -1 -11q-18 -56 -48 -127t-76 -156.5t-96.5 -158t-112.5 -128.5t-121 -71q-25 -72 -27 -80q-6 -13 -3.5 -23.5t19.5 -17.5q10 -4 38 -13.5t51.5 -17.5t53 -24.5t50 -36t35 -50.5t14.5 -69q0 -88 -72 -136 t-168 -48q-76 0 -123 24.5t-53 49.5q-6 21 20 39q16 11 19 4q11 -31 44.5 -47.5t74.5 -16.5q13 0 29 2t40.5 10t43.5 21t33 38.5t14 59.5q0 27 -16 48t-45 34t-52.5 20t-57 14t-40.5 9q-29 8 -34 19.5t3 62.5q8 46 39 119q-32 3 -61 11t-65.5 31.5t-63 59.5t-46 99 t-22.5 145z" />
<glyph unicode="&#xe8;" horiz-adv-x="634" d="M-39 340q18 212 114 347.5t216 135.5q77 0 116 -44.5t39 -110.5q0 -74 -28 -145.5t-80 -135.5t-108.5 -116.5t-129.5 -106.5q21 -86 68 -128t90 -42q77 0 169 110t161 250.5t108 270.5q8 30 29 5q22 -28 22 -62l-2 -13q-20 -60 -52.5 -135t-82.5 -164.5t-104.5 -161.5 t-122.5 -121t-131 -49q-33 0 -69.5 9.5t-81 38.5t-77.5 72.5t-52 120.5t-11 175zM88 250q233 180 254 397q1 23 0 48t-13 44t-34 19q-43 0 -88 -65t-77 -164t-40 -197q-2 -31 -2 -82zM98 1409q-19 11 2 34q23 24 47 17q3 -1 5 -2q37 -23 170 -150.5t157 -162.5q23 -37 5 -58 t-45.5 -17.5t-35.5 11.5q-11 18 -149.5 167t-155.5 161z" />
<glyph unicode="&#xe9;" horiz-adv-x="634" d="M-39 340q18 212 114 347.5t216 135.5q77 0 116 -44.5t39 -110.5q0 -74 -28 -145.5t-80 -135.5t-108.5 -116.5t-129.5 -106.5q21 -86 68 -128t90 -42q77 0 169 110t161 250.5t108 270.5q8 30 29 5q22 -28 22 -62l-2 -13q-20 -60 -52.5 -135t-82.5 -164.5t-104.5 -161.5 t-122.5 -121t-131 -49q-33 0 -69.5 9.5t-81 38.5t-77.5 72.5t-52 120.5t-11 175zM73.5 1038q-15.5 17 6.5 58q23 35 179.5 187t195.5 175q21 12 46 -12q22 -21 10 -34q-1 -2 -3 -3q-19 -12 -181 -186t-171 -191q-7 -13 -37 -12t-45.5 18zM88 250q233 180 254 397q1 23 0 48 t-13 44t-34 19q-43 0 -88 -65t-77 -164t-40 -197q-2 -31 -2 -82z" />
<glyph unicode="&#xea;" horiz-adv-x="634" d="M-39 340q18 212 114 347.5t216 135.5q77 0 116 -44.5t39 -110.5q0 -74 -28 -145.5t-80 -135.5t-108.5 -116.5t-129.5 -106.5q21 -86 68 -128t90 -42q77 0 169 110t161 250.5t108 270.5q8 30 29 5q22 -28 22 -62l-2 -13q-20 -60 -52.5 -135t-82.5 -164.5t-104.5 -161.5 t-122.5 -121t-131 -49q-33 0 -69.5 9.5t-81 38.5t-77.5 72.5t-52 120.5t-11 175zM-31 1159q24 9 91.5 60.5t130.5 104t67 54.5q14 10 14 30t17 30q15 9 38 -11.5t53 -60t63.5 -83.5t79.5 -87.5t91 -65.5q9 -5 -13 -20q-30 -22 -56 -16q-38 8 -107 82.5t-96 113.5 q-10 15 -18 15t-31 -17q-8 -6 -59.5 -58.5t-103 -96t-75.5 -43.5q-57 0 -84 39q-13 23 -2 30zM88 250q233 180 254 397q1 23 0 48t-13 44t-34 19q-43 0 -88 -65t-77 -164t-40 -197q-2 -31 -2 -82z" />
<glyph unicode="&#xeb;" horiz-adv-x="634" d="M-39 340q18 212 114 347.5t216 135.5q77 0 116 -44.5t39 -110.5q0 -74 -28 -145.5t-80 -135.5t-108.5 -116.5t-129.5 -106.5q21 -86 68 -128t90 -42q77 0 169 110t161 250.5t108 270.5q8 30 29 5q22 -28 22 -62l-2 -13q-20 -60 -52.5 -135t-82.5 -164.5t-104.5 -161.5 t-122.5 -121t-131 -49q-33 0 -69.5 9.5t-81 38.5t-77.5 72.5t-52 120.5t-11 175zM80 1313q0 41 23.5 63.5t48.5 22.5q37 0 63.5 -28t26.5 -66q0 -36 -35.5 -70.5t-65.5 -34.5q-27 0 -44 33t-17 80zM88 250q233 180 254 397q1 23 0 48t-13 44t-34 19q-43 0 -88 -65t-77 -164 t-40 -197q-2 -31 -2 -82zM340 1307q0 41 23.5 63.5t48.5 22.5q37 0 63.5 -28.5t26.5 -66.5q0 -36 -35.5 -70t-65.5 -34q-27 0 -44 33t-17 80z" />
<glyph unicode="&#xec;" horiz-adv-x="522" d="M-49 1441q2 -2 4 -3q17 -12 155.5 -161t149.5 -167q5 -13 35.5 -12t46 18t-5.5 58q-24 35 -157.5 162.5t-170.5 150.5q-22 12 -48 -12q-22 -21 -9 -34zM18 211q0 205 50 637q1 17 51 23q58 7 73 -14q4 -6 3 -13q-8 -65 -29 -220t-31 -250t-10 -167q0 -232 76 -232 q46 0 124 100.5t154 252.5t115 290q10 34 30 6q22 -29 21 -64q0 -7 -2 -13q-27 -79 -72 -177.5t-106.5 -206.5t-135.5 -180.5t-139 -72.5q-83 0 -127.5 79t-44.5 222z" />
<glyph unicode="&#xed;" horiz-adv-x="522" d="M-70 1066q17 -21 45.5 -17t36.5 12q9 17 171.5 191t181.5 186q17 11 -4 34q-23 25 -46 17l-4 -2q-38 -22 -194.5 -175t-179.5 -188q-24 -37 -7 -58zM18 211q0 205 50 637q1 17 51 23q58 7 73 -14q4 -6 3 -13q-8 -65 -29 -220t-31 -250t-10 -167q0 -232 76 -232 q46 0 124 100.5t154 252.5t115 290q10 34 30 6q22 -29 21 -64q0 -7 -2 -13q-27 -79 -72 -177.5t-106.5 -206.5t-135.5 -180.5t-139 -72.5q-83 0 -127.5 79t-44.5 222z" />
<glyph unicode="&#xee;" horiz-adv-x="522" d="M-174 1161q22 -38 75 -43h11q24 0 75.5 43.5t103 96.5t59.5 59q23 17 31 17t18 -15q28 -41 96 -115t106 -82q30 -7 62 20q15 13 8 17q-45 22 -91 65.5t-80 87t-64 83.5t-53 60t-38 11q-17 -10 -16.5 -29.5t-13.5 -29.5q-4 -2 -67 -54.5t-130.5 -104t-91.5 -60.5 q-13 -4 0 -27zM18 211q0 205 50 637q1 17 51 23q58 7 73 -14q4 -6 3 -13q-8 -65 -29 -220t-31 -250t-10 -167q0 -232 76 -232q46 0 124 100.5t154 252.5t115 290q10 34 30 6q22 -29 21 -64q0 -7 -2 -13q-27 -79 -72 -177.5t-106.5 -206.5t-135.5 -180.5t-139 -72.5 q-83 0 -127.5 79t-44.5 222z" />
<glyph unicode="&#xef;" horiz-adv-x="522" d="M-63 1341q0 41 23 63.5t48 22.5q37 0 63.5 -28t26.5 -66q0 -36 -35 -70t-65 -34q-27 0 -44 32.5t-17 79.5zM18 211q0 205 50 637q1 17 51 23q58 7 73 -14q4 -6 3 -13q-8 -65 -29 -220t-31 -250t-10 -167q0 -232 76 -232q46 0 124 100.5t154 252.5t115 290q10 34 30 6 q22 -29 21 -64q0 -7 -2 -13q-27 -79 -72 -177.5t-106.5 -206.5t-135.5 -180.5t-139 -72.5q-83 0 -127.5 79t-44.5 222zM197 1335q0 41 23 63.5t48 22.5q37 0 63.5 -28t26.5 -66q0 -36 -35 -70t-65 -34q-27 0 -44 32.5t-17 79.5z" />
<glyph unicode="&#xf0;" horiz-adv-x="735" d="M-35 256q-7 131 32.5 256t114 205t162.5 84q62 3 100 -31t40 -63q3 -34 -25 -46q-19 -7 -22 5q-6 54 -82 51q-26 -1 -59.5 -33t-65 -87t-50.5 -143.5t-14 -187.5q5 -100 41 -168t90 -65q76 5 132.5 97t81 226.5t16.5 274.5q-13 217 -107 366l-166 -90q-23 -10 -40.5 11 t-19 44.5t0.5 26.5q49 0 184 64q-109 125 -266 125q-10 0 -13 30.5t16.5 59t64.5 24.5q161 -14 284 -198q29 15 62 32t50 25.5l19 9.5q15 6 27 -9t17 -33t1 -19q-28 -3 -143 -64q98 -188 107 -401q6 -127 -11.5 -246.5t-54.5 -215t-99.5 -155t-140.5 -63.5q-28 -1 -58.5 5.5 t-66.5 26.5t-64.5 52.5t-49.5 88.5t-25 128z" />
<glyph unicode="&#xf1;" horiz-adv-x="987" d="M16 1087q-9 -10 17 -25q42 -26 79 -6q9 5 17 13q9 11 21.5 50.5t29.5 69.5t43 30q19 0 55 -31.5t70.5 -69t78 -69t75.5 -31.5q34 0 60.5 19.5t41 49t22 59.5t7.5 56q0 49 -13.5 95t-33.5 59q-18 10 -34 4.5t-27 -18.5t-7 -19q21 -30 31.5 -62t10 -58t-7 -47t-19.5 -32.5 t-29 -11.5q-17 0 -61 30.5t-88 67t-92 67t-73 30.5q-33 0 -61 -35.5t-60 -97t-53 -87.5zM18 197q1 21 9 214.5t8 374.5q0 13 35.5 20.5t71 1.5t34.5 -26q-5 -87 -13 -197.5t-12 -184t-4 -158.5q0 -54 12 -53q7 0 13 20q9 28 29 81t61.5 146t84 169.5t96.5 134t100 57.5 q40 0 65.5 -21t36 -59t13.5 -84t-2 -104t-10.5 -110t-11 -111t-5.5 -99q0 -114 17.5 -165.5t55.5 -51.5q123 0 347 626q10 26 30 5q23 -24 22 -61q-1 -8 -3 -15q-215 -637 -414 -637q-56 0 -93 24t-56 72t-26 103.5t-7 134.5q0 49 5.5 115.5t12 120.5t11.5 102.5t4 76 t-11 27.5q-74 0 -303 -565q-51 -103 -68 -126.5t-47 -27.5q-58 0 -74.5 44.5t-13.5 185.5z" />
<glyph unicode="&#xf2;" horiz-adv-x="679" d="M-47 289q0 172 40 294t87 179q12 13 45.5 3t50.5 -32q0 21 19 31q48 24 100 24q26 0 54 -11t58.5 -38.5t54 -68t39 -105.5t15.5 -145q0 -110 -37.5 -224.5t-107 -196t-150.5 -81.5q-116 0 -192 101t-76 270zM23 1360q-18 11 1 33q22 24 46 18l6 -2q37 -23 170 -150.5 t157 -162.5q23 -37 5.5 -58t-45 -17.5t-35.5 11.5q-11 18 -149.5 167t-155.5 161zM102 293q0 -134 32.5 -215.5t86.5 -81.5q48 0 96 62t78.5 159t30.5 193q0 82 -12.5 144t-32 93.5t-38 46.5t-34.5 15q-40 0 -67 -41q-11 -14 -28 -3t-28 35l-4 -8q-27 -44 -53.5 -146 t-26.5 -253z" />
<glyph unicode="&#xf3;" horiz-adv-x="679" d="M-47 289q0 172 40 294t87 179q12 13 45.5 3t50.5 -32q0 21 19 31q48 24 100 24q26 0 54 -11t58.5 -38.5t54 -68t39 -105.5t15.5 -145q0 -110 -37.5 -224.5t-107 -196t-150.5 -81.5q-116 0 -192 101t-76 270zM-2.5 989q-15.5 17 6.5 58q23 35 179.5 187t195.5 175 q21 12 46 -12q22 -21 10 -34q-1 -2 -3 -3q-19 -12 -181 -186t-171 -191q-7 -13 -37 -12t-45.5 18zM102 293q0 -134 32.5 -215.5t86.5 -81.5q48 0 96 62t78.5 159t30.5 193q0 82 -12.5 144t-32 93.5t-38 46.5t-34.5 15q-40 0 -67 -41q-11 -14 -28 -3t-28 35l-4 -8 q-27 -44 -53.5 -146t-26.5 -253z" />
<glyph unicode="&#xf4;" horiz-adv-x="679" d="M-106 1110q24 9 91 60.5t130 104t67 54.5q14 10 14 30t17 30q15 9 38 -11.5t53 -60t64 -83.5t80 -87.5t91 -65.5q9 -4 -13 -20q-30 -23 -57 -17q-38 8 -106.5 82.5t-96.5 114.5q-10 15 -18 15t-31 -17q-8 -6 -59.5 -59t-102.5 -96.5t-75 -43.5q-57 0 -84 40q-13 23 -2 30 zM-47 289q0 172 40 294t87 179q12 13 45.5 3t50.5 -32q0 21 19 31q48 24 100 24q26 0 54 -11t58.5 -38.5t54 -68t39 -105.5t15.5 -145q0 -110 -37.5 -224.5t-107 -196t-150.5 -81.5q-116 0 -192 101t-76 270zM102 293q0 -134 32.5 -215.5t86.5 -81.5q48 0 96 62t78.5 159 t30.5 193q0 82 -12.5 144t-32 93.5t-38 46.5t-34.5 15q-40 0 -67 -41q-11 -14 -28 -3t-28 35l-4 -8q-27 -44 -53.5 -146t-26.5 -253z" />
<glyph unicode="&#xf5;" horiz-adv-x="679" d="M-94 1078q0 3 2 5q21 26 53 87.5t60 97t61 35.5q25 0 72.5 -30.5t92 -67t88 -67t60.5 -30.5q27 0 43.5 30t11 80.5t-39.5 100.5q-4 6 6.5 19t26.5 18.5t34 -4.5q20 -13 33.5 -59t13.5 -95q0 -26 -7.5 -56t-22 -59.5t-41 -49t-60.5 -19.5q-27 0 -60 20.5t-63 50t-58.5 59 t-54.5 50t-42 20.5q-26 0 -43 -29.5t-30 -69t-22 -50.5q-32 -35 -83 -13q-29 12 -31 26zM-47 289q0 172 40 294t87 179q12 13 45.5 3t50.5 -32q0 21 19 31q48 24 100 24q26 0 54 -11t58.5 -38.5t54 -68t39 -105.5t15.5 -145q0 -110 -37.5 -224.5t-107 -196t-150.5 -81.5 q-116 0 -192 101t-76 270zM102 293q0 -134 32.5 -215.5t86.5 -81.5q48 0 96 62t78.5 159t30.5 193q0 82 -12.5 144t-32 93.5t-38 46.5t-34.5 15q-40 0 -67 -41q-11 -14 -28 -3t-28 35l-4 -8q-27 -44 -53.5 -146t-26.5 -253z" />
<glyph unicode="&#xf6;" horiz-adv-x="679" d="M-47 289q0 172 40 294t87 179q12 13 45.5 3t50.5 -32q0 21 19 31q48 24 100 24q26 0 54 -11t58.5 -38.5t54 -68t39 -105.5t15.5 -145q0 -110 -37.5 -224.5t-107 -196t-150.5 -81.5q-116 0 -192 101t-76 270zM4 1264q0 41 23.5 63.5t48.5 22.5q37 0 63.5 -28.5t26.5 -66.5 q0 -36 -35 -70t-65 -34q-27 0 -44.5 33t-17.5 80zM102 293q0 -134 32.5 -215.5t86.5 -81.5q48 0 96 62t78.5 159t30.5 193q0 82 -12.5 144t-32 93.5t-38 46.5t-34.5 15q-40 0 -67 -41q-11 -14 -28 -3t-28 35l-4 -8q-27 -44 -53.5 -146t-26.5 -253zM264 1257q0 41 23.5 63.5 t48.5 22.5q37 0 63.5 -28t26.5 -66q0 -36 -35 -70t-65 -34q-27 0 -44.5 32.5t-17.5 79.5z" />
<glyph unicode="&#xf7;" horiz-adv-x="890" d="M123 506.5q-1 -30.5 14.5 -53.5t26.5 -19q67 25 157 31t159.5 -1t136.5 -10t88 5q30 12 22 57q-5 28 -15 28q-2 0 -3 -1q-17 -15 -144.5 -7t-240.5 18t-170 -5q-30 -12 -31 -42.5zM350 307q0 41 23.5 63.5t48.5 22.5q37 0 63.5 -28t26.5 -66q0 -35 -33 -53.5t-67 -18.5 q-62 0 -62 80zM350 702q0 41 23.5 63.5t48.5 22.5q37 0 63.5 -28t26.5 -66q0 -34 -32.5 -52.5t-67.5 -18.5q-62 0 -62 79z" />
<glyph unicode="&#xf8;" horiz-adv-x="679" d="M-84 -273q-1 15 6 33q40 94 121 240q-90 108 -90 289q0 172 40 294t87 179q12 13 45.5 3t50.5 -32q0 21 19 31q48 24 100 24q34 0 72.5 -20.5t70.5 -62.5q65 123 137 272q6 14 33 5q35 -12 38 -46q1 -21 -13 -45q-18 -31 -73 -122t-81 -136q37 -88 37 -213 q0 -110 -37.5 -224.5t-107 -196t-150.5 -81.5q-61 0 -115 31q-49 -98 -124 -258q-6 -13 -31 -6q-33 8 -35 42zM102 293q0 -85 17 -162q194 338 274 490q-19 46 -41.5 67t-42.5 21q-40 0 -67 -41q-11 -14 -28 -3t-28 35l-4 -8q-27 -44 -53.5 -146t-26.5 -253zM154 41 q28 -45 67 -45q48 0 96 62t78.5 159t30.5 193q0 72 -8 116q-149 -258 -264 -485z" />
<glyph unicode="&#xf9;" horiz-adv-x="993" d="M31 319q0 1 2 141t2 273q0 13 35.5 20.5t71 1.5t34.5 -26q-2 -49 -6 -115t-6.5 -112t-5 -102.5t-3 -95.5t0.5 -81.5t5 -70t11 -50.5t18.5 -34t26.5 -11q108 0 266 533q7 24 16 90t9 82q0 17 49 23q58 7 75 -14q4 -7 3 -15q-4 -24 -14.5 -252.5t-10.5 -296.5 q0 -107 17.5 -169.5t46.5 -62.5q45 0 120.5 101t148.5 254t112 295q4 34 24 13q22 -24 26 -63q1 -12 -1 -20q-25 -80 -68 -179t-102.5 -209t-132 -183.5t-137.5 -73.5q-160 0 -160 301q0 101 6 149q4 38 -3 37q-6 0 -15 -24q-3 -9 -20.5 -56t-28.5 -73t-32 -73.5 t-41.5 -76.5t-47.5 -60t-58 -46t-65 -15q-28 0 -54.5 14.5t-53.5 49.5t-43.5 107.5t-16.5 174.5zM136 1366q1 -1 3 -2q17 -12 155.5 -161t149.5 -167q5 -13 35.5 -12t46 18t-5.5 58q-24 35 -157 162.5t-170 150.5q-23 12 -49 -13q-22 -21 -8 -34z" />
<glyph unicode="&#xfa;" horiz-adv-x="993" d="M31 319q0 1 2 141t2 273q0 13 35.5 20.5t71 1.5t34.5 -26q-2 -49 -6 -115t-6.5 -112t-5 -102.5t-3 -95.5t0.5 -81.5t5 -70t11 -50.5t18.5 -34t26.5 -11q108 0 266 533q7 24 16 90t9 82q0 17 49 23q58 7 75 -14q4 -7 3 -15q-4 -24 -14.5 -252.5t-10.5 -296.5 q0 -107 17.5 -169.5t46.5 -62.5q45 0 120.5 101t148.5 254t112 295q4 34 24 13q22 -24 26 -63q1 -12 -1 -20q-25 -80 -68 -179t-102.5 -209t-132 -183.5t-137.5 -73.5q-160 0 -160 301q0 101 6 149q4 38 -3 37q-6 0 -15 -24q-3 -9 -20.5 -56t-28.5 -73t-32 -73.5 t-41.5 -76.5t-47.5 -60t-58 -46t-65 -15q-28 0 -54.5 14.5t-53.5 49.5t-43.5 107.5t-16.5 174.5zM114.5 993q17.5 -21 45.5 -17.5t37 11.5q9 17 171 191t181 186q17 11 -3 33q-21 24 -44 18q-3 0 -6 -2q-39 -23 -195.5 -175t-179.5 -187q-24 -37 -6.5 -58z" />
<glyph unicode="&#xfb;" horiz-adv-x="993" d="M10 1087q22 -38 75 -43h11q24 0 75.5 43.5t103 96.5t59.5 59q23 17 31 17t18 -15q27 -39 96 -113.5t107 -82.5q30 -7 61 19q15 13 8 17q-45 22 -91 65.5t-79.5 87.5t-63.5 83.5t-53 60t-38 11.5q-17 -10 -17 -30t-14 -30q-4 -2 -67 -54.5t-130.5 -104t-91.5 -60.5 q-13 -4 0 -27zM31 319q0 1 2 141t2 273q0 13 35.5 20.5t71 1.5t34.5 -26q-2 -49 -6 -115t-6.5 -112t-5 -102.5t-3 -95.5t0.5 -81.5t5 -70t11 -50.5t18.5 -34t26.5 -11q108 0 266 533q7 24 16 90t9 82q0 17 49 23q58 7 75 -14q4 -7 3 -15q-4 -24 -14.5 -252.5t-10.5 -296.5 q0 -107 17.5 -169.5t46.5 -62.5q45 0 120.5 101t148.5 254t112 295q4 34 24 13q22 -24 26 -63q1 -12 -1 -20q-25 -80 -68 -179t-102.5 -209t-132 -183.5t-137.5 -73.5q-160 0 -160 301q0 101 6 149q4 38 -3 37q-6 0 -15 -24q-3 -9 -20.5 -56t-28.5 -73t-32 -73.5 t-41.5 -76.5t-47.5 -60t-58 -46t-65 -15q-28 0 -54.5 14.5t-53.5 49.5t-43.5 107.5t-16.5 174.5z" />
<glyph unicode="&#xfc;" horiz-adv-x="993" d="M31 319q0 1 2 141t2 273q0 13 35.5 20.5t71 1.5t34.5 -26q-2 -49 -6 -115t-6.5 -112t-5 -102.5t-3 -95.5t0.5 -81.5t5 -70t11 -50.5t18.5 -34t26.5 -11q108 0 266 533q7 24 16 90t9 82q0 17 49 23q58 7 75 -14q4 -7 3 -15q-4 -24 -14.5 -252.5t-10.5 -296.5 q0 -107 17.5 -169.5t46.5 -62.5q45 0 120.5 101t148.5 254t112 295q4 34 24 13q22 -24 26 -63q1 -12 -1 -20q-25 -80 -68 -179t-102.5 -209t-132 -183.5t-137.5 -73.5q-160 0 -160 301q0 101 6 149q4 38 -3 37q-6 0 -15 -24q-3 -9 -20.5 -56t-28.5 -73t-32 -73.5 t-41.5 -76.5t-47.5 -60t-58 -46t-65 -15q-28 0 -54.5 14.5t-53.5 49.5t-43.5 107.5t-16.5 174.5zM121 1268q0 41 23.5 63.5t48.5 22.5q37 0 63.5 -28t26.5 -66q0 -36 -35.5 -70.5t-65.5 -34.5q-27 0 -44 33t-17 80zM381 1262q0 41 23.5 63.5t48.5 22.5q37 0 63.5 -28.5 t26.5 -66.5q0 -36 -35.5 -70t-65.5 -34q-27 0 -44 33t-17 80z" />
<glyph unicode="&#xfd;" horiz-adv-x="897" d="M-229 -561q0 61 60 80q40 12 60 -1q4 -4 5 -7q0 -55 63.5 -114t167.5 -59q189 0 304.5 216t115.5 579q0 15 0.5 77.5t0.5 111t-1 114t-4 113.5q-2 40 -17 16l-8 -18q-15 -38 -43 -108q-38 -94 -56 -138t-47 -111t-47 -97t-42.5 -63.5t-47 -46t-47.5 -12.5 q-73 0 -122.5 71.5t-49.5 188.5q0 56 8 147.5t21 229t21 240.5q1 13 39 20.5t74.5 1.5t33.5 -26q-3 -22 -14.5 -99t-15 -103t-12.5 -88.5t-12 -94.5t-8 -79.5t-6.5 -83.5t-1.5 -69q0 -190 56 -190q39 0 113.5 175.5t148.5 432.5q25 86 42.5 113.5t47.5 27.5q23 0 39 -1 t28.5 -5.5t20 -8.5t12.5 -15t6.5 -20.5t2 -29.5t-0.5 -37t-1.5 -48t-0.5 -58q0 -18 -2 -167t-2 -240q0 -108 -11 -211.5t-34.5 -211.5t-66 -198t-99.5 -161t-140.5 -111.5t-184.5 -40.5q-151 0 -248.5 69t-97.5 148zM196.5 993q17.5 -21 45.5 -17.5t37 11.5q9 17 171 191 t181 186q17 11 -3 33q-21 24 -44 18q-3 0 -6 -2q-39 -23 -195.5 -175t-179.5 -187q-24 -37 -6.5 -58z" />
<glyph unicode="&#xfe;" horiz-adv-x="868" d="M-8 -891q12 100 38 377t31 442q9 293 9 1235q0 29 38 38.5t76 -2.5t37 -36q-3 -89 -9.5 -365.5t-10.5 -398.5q57 181 143.5 269t183.5 88q88 0 142.5 -90.5t54.5 -241.5q0 -113 -33.5 -209.5t-84.5 -156t-109 -93t-111 -33.5q-62 0 -75 51q-9 34 7 53q5 5 11 5 q87 0 148.5 60.5t87.5 145.5t26 181q0 102 -23.5 173t-60.5 71q-63 0 -129 -82t-119 -232.5t-76 -334.5q0 -6 -1 -18t-1 -17q-13 -147 -18 -347.5t-5.5 -357t-2.5 -184.5t-20 -42.5t-42.5 -13t-48 9.5t-39.5 24t-14 32z" />
<glyph unicode="&#xff;" horiz-adv-x="897" d="M-229 -561q0 61 60 80q40 12 60 -1q4 -4 5 -7q0 -55 63.5 -114t167.5 -59q189 0 304.5 216t115.5 579q0 15 0.5 77.5t0.5 111t-1 114t-4 113.5q-2 40 -17 16l-8 -18q-15 -38 -43 -108q-38 -94 -56 -138t-47 -111t-47 -97t-42.5 -63.5t-47 -46t-47.5 -12.5 q-73 0 -122.5 71.5t-49.5 188.5q0 56 8 147.5t21 229t21 240.5q1 13 39 20.5t74.5 1.5t33.5 -26q-3 -22 -14.5 -99t-15 -103t-12.5 -88.5t-12 -94.5t-8 -79.5t-6.5 -83.5t-1.5 -69q0 -190 56 -190q39 0 113.5 175.5t148.5 432.5q25 86 42.5 113.5t47.5 27.5q23 0 39 -1 t28.5 -5.5t20 -8.5t12.5 -15t6.5 -20.5t2 -29.5t-0.5 -37t-1.5 -48t-0.5 -58q0 -18 -2 -167t-2 -240q0 -108 -11 -211.5t-34.5 -211.5t-66 -198t-99.5 -161t-140.5 -111.5t-184.5 -40.5q-151 0 -248.5 69t-97.5 148zM203 1268q0 41 23 63.5t48 22.5q37 0 64 -28t27 -66 q0 -36 -35.5 -70.5t-65.5 -34.5q-27 0 -44 33t-17 80zM463 1262q0 41 23.5 63.5t48.5 22.5q37 0 63.5 -28.5t26.5 -66.5q0 -36 -35.5 -70t-65.5 -34q-27 0 -44 33t-17 80z" />
<glyph unicode="&#x152;" horiz-adv-x="1718" d="M18 614q0 185 26 337t70 254.5t104 172.5t126 101.5t137 31.5q58 0 103.5 -26.5t71 -68.5t38.5 -84.5t15 -82.5q3 -76 -18.5 -144.5t-63.5 -96.5q-53 -36 -95 3q-22 20 -19 36q1 3 3 4q94 62 94 194q0 25 -7.5 55t-22.5 61t-43 52t-64 21q-68 0 -125.5 -75.5t-93.5 -195 t-56 -259.5t-20 -277q0 -177 35.5 -321t100 -228t145.5 -84q71 0 132.5 61.5t101 159t61.5 212t22 224.5q0 138 32 199q20 39 37 1q21 -48 21 -196q0 -52 -8 -116.5t-25.5 -138.5t-42 -146t-60 -138t-77 -116.5t-96.5 -80.5t-115 -30q-48 0 -88 6.5t-85 26t-80 52t-68 88 t-55 130t-35 182t-13 240.5zM703 1371q6 32 42 42q30 9 86 12q-4 50 -4 54q-3 15 39 27.5t87 8.5t51 -28q0 -2 4 -57q153 -3 296 -24t216 -58q19 -9 20.5 -27t-7.5 -31.5t-17 -11.5q-214 66 -506 49q3 -265 -2 -655q151 -11 260 4t133 39q3 3 13 -5.5t17.5 -25.5t2.5 -35 q-13 -51 -132.5 -66t-293.5 7q-1 -117 0.5 -217.5t4.5 -151t6.5 -107.5t4.5 -73q0 -9 2 -15.5t4 -11t6.5 -7.5t7 -4.5t9.5 -2t9.5 -0.5h11h11.5q123 0 224 26t227 83q3 1 7 -7q15 -29 8 -61q-4 -17 -15 -23q-56 -34 -231 -62.5t-332 -25.5q-23 0 -37 1.5t-29 6t-22 15.5 t-6 29q14 353 6 624q-5 172 -45 703q-30 -5 -115 -23q-6 -1 -17 26t-5 59z" />
<glyph unicode="&#x153;" horiz-adv-x="1095" d="M-47 289q0 172 40 294t87 179q11 13 42 4.5t50 -29.5q45 51 123 51q51 0 107 -45t87 -137q47 101 117.5 159t145.5 58q77 0 116 -44.5t39 -110.5q0 -53 -27 -109t-73 -102.5t-113.5 -77.5t-140.5 -33q-2 -4 -2 -14q-6 -92 9.5 -161.5t44.5 -106t58 -53.5t56 -17 q77 0 169.5 110t161.5 251t107 270q8 30 29 5q22 -28 22 -62l-2 -13q-20 -60 -52.5 -135t-82.5 -164.5t-104.5 -161.5t-122.5 -121t-131 -49q-30 0 -64 9t-73 29t-74 60.5t-56 94.5q-42 -90 -100.5 -144.5t-124.5 -54.5q-116 0 -192 101t-76 270zM102 293 q0 -134 32.5 -215.5t86.5 -81.5q65 0 126 107t75 241q0 3 1 8t1 8q-131 7 -200 73t-81 163q-41 -121 -41 -303zM238 639q0 -84 58.5 -144.5t129.5 -68.5q-1 79 -14 137t-33.5 88t-41.5 44t-44 14q-29 0 -42 -21t-13 -49zM561 408h2q99 19 161.5 85.5t78.5 153.5q7 39 -4 75 t-43 36q-57 0 -114 -106.5t-81 -243.5z" />
<glyph unicode="&#x178;" horiz-adv-x="892" d="M2 1380q0 13 37.5 24t74.5 8t36 -23q-4 -87 -5.5 -165t-0.5 -133.5t3 -188.5t3 -249q1 -94 20 -140t49 -46q75 0 174.5 202.5t167.5 561.5q17 84 34.5 112.5t49.5 28.5h45t32 -3.5t24.5 -4.5t14 -12.5t8.5 -18.5t0.5 -30t-1.5 -39t-6 -54q-6 -50 -44.5 -253.5 t-72.5 -449.5t-39 -468q-5 -155 25 -260q2 -17 -25 -36.5t-66.5 -20t-66.5 33.5q-35 43 -20 279q6 88 84.5 562.5t78.5 498.5q0 16 -3 17q-3 2 -9 -19q-30 -109 -55 -191.5t-55.5 -165.5t-61 -140.5t-65 -104t-74.5 -69t-84 -22.5q-75 0 -130 66.5t-56 179.5q-3 255 -21 733 zM166 1825q0 41 23.5 63.5t48.5 22.5q37 0 63.5 -28t26.5 -66q0 -36 -35.5 -70.5t-65.5 -34.5q-27 0 -44 33t-17 80zM426 1819q0 41 23.5 63.5t48.5 22.5q37 0 63.5 -28.5t26.5 -66.5q0 -36 -35.5 -70t-65.5 -34q-27 0 -44 33t-17 80z" />
<glyph unicode="&#x2c6;" horiz-adv-x="899" d="M129 1087q22 -38 75 -43h11q24 0 75.5 43.5t103 96.5t59.5 59q23 17 31 17t18 -15q27 -39 96 -113.5t107 -82.5q30 -7 61 19q15 13 8 17q-45 22 -91 65.5t-79.5 87.5t-63.5 83.5t-53 60t-38 11.5q-17 -10 -17 -30t-14 -30q-4 -2 -67 -54.5t-130.5 -104t-91.5 -60.5 q-13 -4 0 -27z" />
<glyph unicode="&#x2dc;" horiz-adv-x="864" d="M125 1087q-9 -10 17 -25q42 -26 79 -6q9 5 17 13q9 11 21.5 50.5t29.5 69.5t43 30q19 0 55 -31.5t70 -69t77.5 -69t75.5 -31.5q34 0 60.5 19.5t41 49t22 59.5t7.5 56q0 49 -13.5 95t-33.5 59q-18 10 -34 4.5t-26.5 -18.5t-6.5 -19q34 -50 39.5 -100.5t-11 -80.5 t-43.5 -30q-17 0 -60.5 30.5t-88 67t-92 67t-72.5 30.5q-33 0 -61 -35.5t-60 -97t-53 -87.5z" />
<glyph unicode="&#x2000;" horiz-adv-x="1072" />
<glyph unicode="&#x2001;" horiz-adv-x="2144" />
<glyph unicode="&#x2002;" horiz-adv-x="1072" />
<glyph unicode="&#x2003;" horiz-adv-x="2144" />
<glyph unicode="&#x2004;" horiz-adv-x="714" />
<glyph unicode="&#x2005;" horiz-adv-x="536" />
<glyph unicode="&#x2006;" horiz-adv-x="357" />
<glyph unicode="&#x2007;" horiz-adv-x="357" />
<glyph unicode="&#x2008;" horiz-adv-x="268" />
<glyph unicode="&#x2009;" horiz-adv-x="428" />
<glyph unicode="&#x200a;" horiz-adv-x="119" />
<glyph unicode="&#x2010;" d="M123 508.5q-1 -30.5 14.5 -53.5t26.5 -19q67 24 157.5 30t159.5 -1.5t136 -10.5t88 5q29 10 22 55q-4 29 -14 30q-2 0 -4 -1q-17 -15 -144.5 -6.5t-240.5 19t-170 -4.5q-30 -12 -31 -42.5z" />
<glyph unicode="&#x2011;" d="M123 508.5q-1 -30.5 14.5 -53.5t26.5 -19q67 24 157.5 30t159.5 -1.5t136 -10.5t88 5q29 10 22 55q-4 29 -14 30q-2 0 -4 -1q-17 -15 -144.5 -6.5t-240.5 19t-170 -4.5q-30 -12 -31 -42.5z" />
<glyph unicode="&#x2012;" d="M123 508.5q-1 -30.5 14.5 -53.5t26.5 -19q67 24 157.5 30t159.5 -1.5t136 -10.5t88 5q29 10 22 55q-4 29 -14 30q-2 0 -4 -1q-17 -15 -144.5 -6.5t-240.5 19t-170 -4.5q-30 -12 -31 -42.5z" />
<glyph unicode="&#x2013;" horiz-adv-x="1034" d="M123 508.5q1 30.5 31 42.5q27 11 143.5 8t240.5 -12.5t233.5 -12.5t121.5 9q8 6 15 -15q12 -36 -5 -59q-5 -7 -14 -10q-19 -7 -109 -2t-186 15t-219.5 2.5t-210.5 -38.5q-11 -4 -26.5 19t-14.5 53.5z" />
<glyph unicode="&#x2014;" horiz-adv-x="1228" d="M95.5 503q-1.5 -36 14 -64.5t27.5 -24.5q87 31 245.5 42t297 5t263.5 -7.5t144 5.5q29 10 23 55q-4 29 -14 30q-2 0 -4 -1q-17 -15 -250.5 -6.5t-438 19t-276.5 -4.5q-30 -12 -31.5 -48z" />
<glyph unicode="&#x2018;" horiz-adv-x="452" d="M164 1081q0 70 27.5 147t78.5 115q28 20 59 -5q18 -17 11 -25q-49 -30 -74 -73.5t-28 -86.5q-5 -71 63 -90q1 0 10 -2.5t10.5 -3t9.5 -3.5t10 -4.5t8 -5.5t7.5 -7t5.5 -8.5t5.5 -11.5t2.5 -13.5t1 -16.5q0 -42 -25.5 -64t-60.5 -22q-53 0 -87 48t-34 132z" />
<glyph unicode="&#x2019;" horiz-adv-x="452" d="M164 1266q0 42 25.5 64t60.5 22q53 0 87 -48.5t34 -132.5q0 -70 -28 -147t-79 -115q-28 -20 -59 7q-17 16 -10 24q49 30 74 73.5t28 86.5q5 70 -64 90q-2 1 -7 2q-21 6 -31.5 10.5t-20.5 20.5t-10 43z" />
<glyph unicode="&#x201a;" horiz-adv-x="493" d="M123 20q0 42 25.5 64t60.5 22q53 0 87 -48t34 -132q0 -70 -28 -147t-79 -115q-28 -20 -59 7q-17 16 -10 24q49 30 74 73.5t28 86.5q5 71 -63 90q-3 1 -10.5 3t-10.5 3t-9.5 3t-9.5 4t-8 5.5t-7.5 7t-6 8.5t-5 11t-2.5 13.5t-1 16.5z" />
<glyph unicode="&#x201c;" horiz-adv-x="751" d="M164 1081q0 70 27.5 147t78.5 115q28 20 59 -5q18 -17 11 -25q-49 -30 -74 -73.5t-28 -86.5q-5 -71 63 -90q1 0 10 -2.5t10.5 -3t9.5 -3.5t10 -4.5t8 -5.5t7.5 -7t5.5 -8.5t5.5 -11.5t2.5 -13.5t1 -16.5q0 -42 -25.5 -64t-60.5 -22q-53 0 -87 48t-34 132zM463 1081 q0 70 27.5 147t78.5 115q28 20 59 -5q18 -17 11 -25q-49 -30 -74 -73.5t-28 -86.5q-5 -71 63 -90q1 0 10 -2.5t10.5 -3t9.5 -3.5t10 -4.5t8 -5.5t7.5 -7t5.5 -8.5t5.5 -11.5t2.5 -13.5t1 -16.5q0 -42 -25.5 -64t-60.5 -22q-53 0 -87 48t-34 132z" />
<glyph unicode="&#x201d;" horiz-adv-x="751" d="M164 1266q0 42 25.5 64t60.5 22q53 0 87 -48.5t34 -132.5q0 -70 -28 -147t-79 -115q-28 -20 -59 7q-17 16 -10 24q49 30 74 73.5t28 86.5q5 70 -64 90q-2 1 -7 2q-21 6 -31.5 10.5t-20.5 20.5t-10 43zM463 1266q0 42 25.5 64t60.5 22q53 0 87 -48.5t34 -132.5 q0 -70 -28 -147t-79 -115q-28 -20 -59 7q-17 16 -10 24q49 30 74 73.5t28 86.5q5 70 -64 90q-2 1 -7 2q-21 6 -31.5 10.5t-20.5 20.5t-10 43z" />
<glyph unicode="&#x201e;" horiz-adv-x="833" d="M82 20q0 42 25.5 64t60.5 22q53 0 87 -48t34 -132q0 -70 -28 -147t-79 -115q-28 -20 -59 7q-17 16 -10 24q49 30 74 73.5t28 86.5q5 71 -63 90q-3 1 -10.5 3t-10.5 3t-9.5 3t-9.5 4t-8 5.5t-7.5 7t-6 8.5t-5 11t-2.5 13.5t-1 16.5zM381 20q0 42 25.5 64t60.5 22 q53 0 87 -48t34 -132q0 -70 -28 -147t-79 -115q-28 -20 -59 7q-17 16 -10 24q49 30 74 73.5t28 86.5q5 71 -63 90q-3 1 -10.5 3t-10.5 3t-9.5 3t-9.5 4t-8 5.5t-7.5 7t-6 8.5t-5 11t-2.5 13.5t-1 16.5z" />
<glyph unicode="&#x2022;" horiz-adv-x="505" d="M80 451q0 66 38.5 102.5t78.5 36.5q59 0 102 -45.5t43 -106.5q0 -39 -29 -67t-64.5 -38.5t-68.5 -10.5q-100 0 -100 129z" />
<glyph unicode="&#x2026;" horiz-adv-x="1288" d="M123 39q0 41 23.5 63.5t48.5 22.5q37 0 63.5 -28t26.5 -66q0 -41 -30.5 -69.5t-70.5 -12.5q-31 13 -46 30.5t-15 59.5zM539 33q0 41 23 63.5t48 22.5q37 0 63.5 -28t26.5 -66q0 -35 -33 -53.5t-67 -18.5q-61 0 -61 80zM963 39q0 41 23 63.5t48 22.5q37 0 63.5 -28 t26.5 -66q0 -40 -29 -59.5t-71 -2.5q-6 2 -19 6.5t-18 7t-12 9t-9.5 18t-2.5 29.5z" />
<glyph unicode="&#x202f;" horiz-adv-x="428" />
<glyph unicode="&#x2039;" horiz-adv-x="909" d="M82.5 450q6.5 44 26.5 44q23 0 53 11t45 23q49 38 221.5 150.5t230.5 140.5q34 10 68 -22q28 -25 17 -40q-3 -3 -7 -5q-51 -23 -113 -58t-117.5 -71.5t-100.5 -67.5t-80.5 -56.5t-38.5 -27.5q-9 -6 -13.5 -9.5t-12 -8.5t-10.5 -9t-6 -9t-2.5 -9t3.5 -8q31 -35 216 -184.5 t240 -155.5q13 -1 6 -34q-9 -45 -36 -52q-11 -3 -23 2q-80 34 -302.5 199.5t-254.5 197.5q-16 15 -9.5 59z" />
<glyph unicode="&#x203a;" horiz-adv-x="892" d="M170 752q-13 5 5 32q26 37 61 37q6 0 12 -2q75 -37 289.5 -168.5t261.5 -156.5q15 -9 12 -51.5t-20 -51.5q-25 -14 -50 -39q-99 -102 -252.5 -213t-230.5 -145q-34 -15 -53 31q-14 34 -5 50q2 3 5 3q38 4 150.5 87.5t203.5 161t103 91.5q9 11 -2.5 23t-38.5 30l-53 39 q-52 39 -107 77.5t-138 87t-153 77.5z" />
<glyph unicode="&#x205f;" horiz-adv-x="536" />
<glyph unicode="&#x20ac;" horiz-adv-x="960" d="M-39 597q6 26 12 24q34 -14 158 -17v49v54q-93 -7 -96 -7q-26 0 -32.5 26.5t-0.5 52.5t12 24q29 -12 123 -15q12 139 50 243.5t93.5 164.5t119.5 89.5t137 29.5q60 0 106 -15.5t69.5 -40t34.5 -46t13 -39.5q2 -64 -44 -74q-28 -5 -42 8q-5 5 -2 10q3 8 5 22.5t-7.5 32.5 t-24.5 33.5t-46.5 26t-72.5 10.5q-94 0 -170 -119t-94 -338q64 1 139.5 3.5t123 5t48.5 2.5q16 0 21 -20t2.5 -39.5t-6.5 -18.5q-36 11 -334 -6v-51v-58q55 2 118 4.5t99 4t39 1.5q16 0 21 -19.5t2 -39t-7 -18.5q-31 10 -268 -2q18 -251 95.5 -372.5t181.5 -121.5 q49 0 90 18t67 46.5t40.5 52t23.5 45.5q5 13 36 -2q40 -19 44 -53q1 -13 -4 -25q-24 -56 -99.5 -99.5t-208.5 -43.5q-355 0 -391 546l-141 -8q-26 0 -32.5 26.5t-0.5 52.5z" />
<glyph unicode="&#x2122;" horiz-adv-x="2015" d="M165 1393q7 30 13 28q91 -24 145 -27t109 3q76 3 141 14q121 20 250 72q5 2 12 -11q16 -34 -1 -58q-3 -4 -7 -7q-83 -61 -254 -96q3 -92 13.5 -266.5t19 -309.5t8.5 -149q0 -25 -40 -33.5t-79.5 4.5t-37.5 39q19 222 15 384t-42 310q-119 -10 -199 2q-45 6 -59 38.5 t-7 62.5zM777 593q-2 7 1 11q109 98 173 306t106 503q3 20 42 28t77.5 2t40.5 -20q92 -633 94 -641q6 -31 11.5 -41t11.5 -2.5t14 31.5q196 576 196 664q0 21 45 25t90 -7.5t45 -28.5q0 -156 17.5 -293t38 -213.5t42.5 -156.5t27 -125q10 -85 -58 -99q-42 -9 -74 10 q-11 7 -11 13q8 94 -16 208t-62 228t-43 135q-7 33 -11 35q-2 1 -5 -5q-2 -5 -6 -24l-2 -8q-8 -32 -195 -577q-6 -17 -44.5 -27.5t-76 -2.5t-41.5 36q-4 33 -30.5 254.5t-30.5 257.5q-18 141 -19 149q-8 32 -14 -8q-54 -335 -70 -407q-36 -158 -96 -219.5t-127 -28.5 q-32 16 -40 38z" />
<glyph unicode="&#x25fc;" horiz-adv-x="829" d="M0 0v829h829v-829h-829z" />
</font>
</defs>
</svg>
